{
classes = (
{
code = "M Q R a j t u";
name = salt1;
},
{
code = "M.alt Q.alt R.alt a.alt j.alt t.alt u.alt";
name = salt2;
}
);
copyright = "Copyright 2020 The Spartan Project Authors (https://github.com/MattBaileyDesign/Spartan-MB/tree/V-1.005)";
designer = "Matt Bailey, Mirko Velimirovic";
designerURL = "http://mtbailey.com";
familyName = "Spartan MB QAW";
customParameters = (
{
name = glyphOrder;
value = (
.notdef,
NULL,
CR,
space,
A,
Aacute,
Abreve,
Acircumflex,
Adieresis,
Agrave,
Amacron,
Aogonek,
Aring,
Atilde,
AE,
B,
C,
Cacute,
Ccaron,
Ccedilla,
Cdotaccent,
D,
Eth,
Dcaron,
Dcroat,
E,
Eacute,
Ecaron,
Ecircumflex,
Edieresis,
Edotaccent,
Egrave,
Emacron,
Eogonek,
F,
G,
Gbreve,
Gcommaaccent,
Gdotaccent,
H,
Hbar,
I,
Iacute,
Icircumflex,
Idieresis,
Idotaccent,
Igrave,
Imacron,
Iogonek,
J,
K,
Kcommaaccent,
L,
Lacute,
Lcaron,
Lcommaaccent,
Lslash,
M,
N,
Nacute,
Ncaron,
Ncommaaccent,
Eng,
Ntilde,
O,
Oacute,
Ocircumflex,
Odieresis,
Ograve,
Ohungarumlaut,
Omacron,
Oslash,
Otilde,
OE,
P,
Thorn,
Q,
R,
Racute,
Rcaron,
Rcommaaccent,
S,
Sacute,
Scaron,
Scedilla,
Scommaaccent,
Germandbls,
T,
Tbar,
Tcaron,
Tcedilla,
Tcommaaccent,
U,
Uacute,
Ucircumflex,
Udieresis,
Ugrave,
Uhungarumlaut,
Umacron,
Uogonek,
Uring,
V,
W,
Wacute,
Wcircumflex,
Wdieresis,
Wgrave,
X,
Y,
Yacute,
Ycircumflex,
Ydieresis,
Ygrave,
Z,
Zacute,
Zcaron,
Zdotaccent,
M.1,
Q.1,
Q.2,
R.1,
a,
aacute,
abreve,
acircumflex,
adieresis,
agrave,
amacron,
aogonek,
aring,
atilde,
ae,
b,
c,
cacute,
ccaron,
ccedilla,
cdotaccent,
d,
eth,
dcaron,
dcroat,
e,
eacute,
ecaron,
ecircumflex,
edieresis,
edotaccent,
egrave,
emacron,
eogonek,
f,
g,
gbreve,
gcommaaccent,
gdotaccent,
h,
hbar,
i,
idotless,
iacute,
icircumflex,
idieresis,
idotaccent,
igrave,
imacron,
iogonek,
j,
k,
kcommaaccent,
l,
lacute,
lcaron,
lcommaaccent,
lslash,
m,
n,
nacute,
ncaron,
ncommaaccent,
eng,
ntilde,
o,
oacute,
ocircumflex,
odieresis,
ograve,
ohungarumlaut,
omacron,
oslash,
otilde,
oe,
p,
thorn,
q,
r,
racute,
rcaron,
rcommaaccent,
s,
sacute,
scaron,

glyphs = (
{
color = 5;
glyphname = A;
layers = (
{
anchors = (
{
name = bottom;
position = "{808, 0}";
},
{
name = ogonek;
position = "{1684, 0}";
},
{
name = top;
position = "{808, 1650}";
}
);
hints = (
{
horizontal = 1;
place = "{1650, -20}";
target = down;
type = TopGhost;
},
{
horizontal = 1;
place = "{274, 386}";
type = Stem;
},
{
horizontal = 1;
place = "{0, 21}";
target = up;
type = BottomGhost;
}
);
layerId = "2DB08DF0-02C3-44C2-9E0E-FF1701E70813";
paths = (
{
closed = 1;
nodes = (
"406 0 LINE",
"505 274 LINE",
"1111 274 LINE",
"1210 0 LINE",
"1684 0 LINE",
"1012 1650 LINE",
"604 1650 LINE",
"-68 0 LINE"
);
},
{
closed = 1;
nodes = (
"808 1052 LINE",
"961 660 LINE",
"655 660 LINE"
);
}
);
width = 1616;
},
{
anchors = (
{
name = bottom;
position = "{785, 0}";
},
{
name = ogonek;
position = "{1627, 0}";
},
{
name = top;
position = "{785, 1650}";
}
);
hints = (
{
horizontal = 1;
place = "{1650, -20}";
target = down;
type = TopGhost;
},
{
horizontal = 1;
place = "{330, 330}";
type = Stem;
},
{
horizontal = 1;
place = "{0, 21}";
target = up;
type = BottomGhost;
}
);
layerId = "42521C20-2C1E-4F42-AF24-FEB99F0BB27F";
paths = (
{
closed = 1;
nodes = (
"349 0 LINE",
"471 330 LINE",
"1099 330 LINE",
"1221 0 LINE",
"1627 0 LINE",
"959 1650 LINE",
"610 1650 LINE",
"-57 0 LINE"
);
},
{
closed = 1;
nodes = (
"785 1140 LINE",
"971 660 LINE",
"599 660 LINE"
);
}
);
width = 1570;
},
{
anchors = (
{
name = bottom;
position = "{760, 0}";
},
{
name = ogonek;
position = "{1565, 0}";
},
{
name = top;
position = "{760, 1650}";
}
);
hints = (
{
horizontal = 1;
place = "{1650, -20}";
target = down;
type = TopGhost;
},
{
horizontal = 1;
place = "{389, 271}";
type = Stem;
},
{
horizontal = 1;
place = "{0, 21}";
target = up;
type = BottomGhost;
}
);
layerId = "EC0A9815-809D-40B1-AF02-15154ADC149F";
paths = (
{
closed = 1;
nodes = (
"287 0 LINE",
"433 389 LINE",
"1087 389 LINE",
"1233 0 LINE",
"1565 0 LINE",
"902 1650 LINE",
"618 1650 LINE",
"-45 0 LINE"
);
},
{
closed = 1;
nodes = (
"760 1234 LINE",
"981 660 LINE",
"539 660 LINE"
);
}
);
width = 1520;
},
{
anchors = (
{
name = bottom;
position = "{738, 0}";
},
{
name = ogonek;
position = "{1511, 0}";
},
{
name = top;
position = "{738, 1650}";
}
);
hints = (
{
horizontal = 1;
place = "{1650, -20}";
target = down;
type = TopGhost;
},
{
horizontal = 1;
place = "{440, 220}";
type = Stem;
},
{
horizontal = 1;
place = "{0, 21}";
target = up;
type = BottomGhost;
}
);
layerId = "078079F8-88FE-4B64-A845-190032768C39";
paths = (
{
closed = 1;
nodes = (
"235 0 LINE",
"401 440 LINE",
"1075 440 LINE",
"1241 0 LINE",
"1511 0 LINE",
"853 1650 LINE",
"623 1650 LINE",
"-35 0 LINE"
);
},
{
closed = 1;
nodes = (
"738 1314 LINE",
"989 660 LINE",
"487 660 LINE"
);
}
);
width = 1476;
},
{
anchors = (
{
name = bottom;
position = "{728, 0}";
},
{
name = ogonek;
position = "{1477, 0}";
},
{
name = top;
position = "{728, 1650}";
}
);
hints = (
{
horizontal = 1;
place = "{1650, -20}";
target = down;
type = TopGhost;
},
{
horizontal = 1;
place = "{480, 180}";
type = Stem;
},
{
horizontal = 1;
place = "{0, 21}";
target = up;
type = BottomGhost;
}
);
layerId = "BD6EF84D-666D-4BF5-8AC4-0B98CD7A9734";
paths = (
{
closed = 1;
nodes = (
"200 0 LINE",
"383 480 LINE",
"1074 480 LINE",
"1257 0 LINE",
"1477 0 LINE",
"823 1650 LINE",
"634 1650 LINE",
"-20 0 LINE"
);
},
{
closed = 1;
nodes = (
"728 1378 LINE",
"1004 660 LINE",
"453 660 LINE"
);
}
);
width = 1457;
},
{
anchors = (
{
name = bottom;
position = "{701, 0}";
},
{
name = ogonek;
position = "{1418, 0}";
},
{
name = top;
position = "{701, 1650}";
}
);
hints = (
{
horizontal = 1;
place = "{1650, -20}";
target = down;
type = TopGhost;
},
{
horizontal = 1;
place = "{531, 129}";
type = Stem;
},
{
horizontal = 1;
place = "{0, 21}";
target = up;
type = BottomGhost;
}
);
layerId = "E2387CF4-B2A9-41B6-8C2D-75095F558AA2";
paths = (
{
closed = 1;
nodes = (
"141 0 LINE",
"345 531 LINE",
"1057 531 LINE",
"1261 0 LINE",
"1418 0 LINE",
"769 1650 LINE",
"633 1650 LINE",
"-16 0 LINE"
);
},
{
closed = 1;
nodes = (
"701 1458 LINE",
"1007 660 LINE",
"395 660 LINE"
);
}
);
width = 1402;
},
{
anchors = (
{
name = bottom;
position = "{684, 0}";
},
{
name = ogonek;
position = "{1379, 0}";
},
{
name = top;
position = "{684, 1650}";
}
);
hints = (
{
horizontal = 1;
place = "{1650, -20}";
target = down;
type = TopGhost;
},
{
horizontal = 1;
place = "{566, 94}";
type = Stem;
},
{
horizontal = 1;
place = "{0, 21}";
target = up;
type = BottomGhost;
}
);
layerId = "409FFF8B-6B5D-4160-8B77-EB84ED6DCA06";
paths = (
{
closed = 1;
nodes = (
"103 0 LINE",
"321 566 LINE",
"1047 566 LINE",
"1265 0 LINE",
"1379 0 LINE",
"733 1650 LINE",
"635 1650 LINE",
"-11 0 LINE"
);
},
{
closed = 1;
nodes = (
"684 1513 LINE",
"1011 660 LINE",
"357 660 LINE"
);
}
);
width = 1368;
},
{
anchors = (
{
name = bottom;
position = "{673, 0}";
},
{
name = ogonek;
position = "{1351, 0}";
},
{
name = top;
position = "{673, 1650}";
}
);
hints = (
{
horizontal = 1;
place = "{1650, -20}";
target = down;
type = TopGhost;
},
{
horizontal = 1;
place = "{592, 68}";
type = Stem;
},
{
horizontal = 1;
place = "{0, 21}";
target = up;
type = BottomGhost;
}
);
layerId = "429DE6A8-FC85-4834-8ADF-6599F7754E15";
paths = (
{
closed = 1;
nodes = (
"75 0 LINE",
"305 592 LINE",
"1041 592 LINE",
"1271 0 LINE",
"1351 0 LINE",
"708 1650 LINE",
"638 1650 LINE",
"-5 0 LINE"
);
},
{
closed = 1;
nodes = (
"673 1554 LINE",
"1015 660 LINE",
"331 660 LINE"
);
}
);
width = 1346;
},
{
anchors = (
{
name = bottom;
position = "{668, 0}";
},
{
name = ogonek;
position = "{1336, 0}";
},
{
name = top;
position = "{668, 1650}";
}
);
hints = (
{
horizontal = 1;
place = "{1650, -20}";
target = down;
type = TopGhost;
},
{
horizontal = 1;
place = "{610, 50}";
type = Stem;
},
{
horizontal = 1;
place = "{0, 21}";
target = up;
type = BottomGhost;
}
);
layerId = "F04A0BE8-B495-4823-90DC-0CCFE7794FD1";
paths = (
{
closed = 1;
nodes = (
"60 0 LINE",
"296 610 LINE",
"1040 610 LINE",
"1276 0 LINE",
"1336 0 LINE",
"694 1650 LINE",
"642 1650 LINE",
"0 0 LINE"
);
},
{
closed = 1;
nodes = (
"668 1582 LINE",
"1021 660 LINE",
"315 660 LINE"
);
}
);
width = 1336;
}
);
leftKerningGroup = _A;
rightKerningGroup = _A1;
unicode = 0041;
},
{
color = 3;
glyphname = AE;
leftMetricsKey = A;
rightMetricsKey = E;
layers = (
{
hints = (
{
horizontal = 1;
place = "{274, 386}";
type = Stem;
},
{
horizontal = 1;
place = "{0, 21}";
target = up;
type = BottomGhost;
},
{
horizontal = 1;
place = "{1264, 386}";
type = Stem;
},
{
horizontal = 1;
place = "{634, 386}";
type = Stem;
},
{
horizontal = 1;
place = "{0, 386}";
type = Stem;
},
{
place = "{808, 440}";
type = Stem;
}
);
layerId = "2DB08DF0-02C3-44C2-9E0E-FF1701E70813";
paths = (
{
closed = 1;
nodes = (
"808 1052 LINE",
"808 660 LINE",
"655 660 LINE"
);
},
{
closed = 1;
nodes = (
"604 1650 LINE",
"-68 0 LINE",
"406 0 LINE",
"505 274 LINE",
"808 274 LINE",
"808 0 LINE",
"1784 0 LINE",
"1784 386 LINE",
"1248 386 LINE",
"1248 634 LINE",
"1760 634 LINE",
"1760 1020 LINE",
"1248 1020 LINE",
"1248 1264 LINE",
"1784 1264 LINE",
"1784 1650 LINE"
);
}
);
width = 1868;
},
{
hints = (
{
horizontal = 1;
place = "{330, 330}";
type = Stem;
},
{
horizontal = 1;
place = "{0, 21}";
target = up;
type = BottomGhost;
},
{
horizontal = 1;
place = "{1320, 330}";
type = Stem;
},
{
horizontal = 1;
place = "{662, 330}";
type = Stem;
},
{
horizontal = 1;
place = "{0, 330}";
type = Stem;
},
{
place = "{785, 376}";
type = Stem;
}
);
layerId = "42521C20-2C1E-4F42-AF24-FEB99F0BB27F";
paths = (
{
closed = 1;
nodes = (
"785 1140 LINE",
"785 660 LINE",
"598 660 LINE"
);
},
{
closed = 1;
nodes = (
"610 1650 LINE",
"-57 0 LINE",
"348 0 LINE",
"470 330 LINE",
"785 330 LINE",
"785 0 LINE",
"1729 0 LINE",
"1729 330 LINE",
"1161 330 LINE",
"1161 662 LINE",
"1705 662 LINE",
"1705 992 LINE",
"1161 992 LINE",
"1161 1320 LINE",
"1729 1320 LINE",
"1729 1650 LINE"
);
}
);
width = 1824;
},
{
hints = (
{
horizontal = 1;
place = "{390, 271}";
type = Stem;
},
{
horizontal = 1;
place = "{0, 21}";
target = up;
type = BottomGhost;
},
{
horizontal = 1;
place = "{1380, 271}";
type = Stem;
},
{
horizontal = 1;
place = "{692, 271}";
type = Stem;
},
{
horizontal = 1;
place = "{0, 271}";
type = Stem;
},
{
place = "{760, 308}";
type = Stem;
}
);
layerId = "EC0A9815-809D-40B1-AF02-15154ADC149F";
paths = (
{
closed = 1;
nodes = (
"760 1235 LINE",
"760 661 LINE",
"538 661 LINE"
);
},
{
closed = 1;
nodes = (
"617 1651 LINE",
"-45 0 LINE",
"287 0 LINE",
"433 390 LINE",
"760 390 LINE",
"760 0 LINE",
"1670 0 LINE",
"1670 271 LINE",
"1068 271 LINE",
"1068 692 LINE",
"1646 692 LINE",
"1646 963 LINE",
"1068 963 LINE",
"1068 1380 LINE",
"1670 1380 LINE",
"1670 1651 LINE"
);
}
);
width = 1765;
},
{
hints = (
{
horizontal = 1;
place = "{441, 220}";
type = Stem;
},
{
horizontal = 1;
place = "{0, 21}";
target = up;
type = BottomGhost;
},
{
horizontal = 1;
place = "{1431, 220}";
type = Stem;
},
{
horizontal = 1;
place = "{717, 220}";
type = Stem;
},
{
horizontal = 1;
place = "{0, 220}";
type = Stem;
},
{
place = "{738, 250}";
type = Stem;
}
);
layerId = "078079F8-88FE-4B64-A845-190032768C39";
paths = (
{
closed = 1;
nodes = (
"738 1315 LINE",
"738 661 LINE",
"487 661 LINE"
);
},
{
closed = 1;
nodes = (
"623 1651 LINE",
"-35 0 LINE",
"235 0 LINE",
"401 441 LINE",
"738 441 LINE",
"738 0 LINE",
"1619 0 LINE",
"1619 220 LINE",
"988 220 LINE",
"988 717 LINE",
"1595 717 LINE",
"1595 937 LINE",
"988 937 LINE",
"988 1431 LINE",
"1619 1431 LINE",
"1619 1651 LINE"
);
}
);
width = 1725;
},
{
hints = (
{
horizontal = 1;
place = "{481, 180}";
type = Stem;
},
{
horizontal = 1;
place = "{0, 21}";
target = up;
type = BottomGhost;
},
{
horizontal = 1;
place = "{1471, 180}";
type = Stem;
},
{
horizontal = 1;
place = "{737, 180}";
type = Stem;
},
{
horizontal = 1;
place = "{0, 180}";
type = Stem;
},
{
place = "{728, 204}";
type = Stem;
}
);
layerId = "BD6EF84D-666D-4BF5-8AC4-0B98CD7A9734";
paths = (
{
closed = 1;
nodes = (
"728 1378 LINE",
"728 661 LINE",
"453 661 LINE"
);
},
{
closed = 1;
nodes = (
"634 1651 LINE",
"-20 0 LINE",
"200 0 LINE",
"383 481 LINE",
"728 481 LINE",
"728 0 LINE",
"1586 0 LINE",
"1586 180 LINE",
"932 180 LINE",
"932 737 LINE",
"1562 737 LINE",
"1562 917 LINE",
"932 917 LINE",
"932 1471 LINE",
"1586 1471 LINE",
"1586 1651 LINE"
);
}
);
width = 1708;
},
{
hints = (
{
horizontal = 1;
place = "{532, 129}";
type = Stem;
},
{
horizontal = 1;
place = "{0, 21}";
target = up;
type = BottomGhost;
},
{
horizontal = 1;
place = "{1522, 129}";
type = Stem;
},
{
horizontal = 1;
place = "{762, 129}";
type = Stem;
},
{
horizontal = 1;
place = "{0, 129}";
type = Stem;
},
{
place = "{701, 146}";
type = Stem;
}
);
layerId = "E2387CF4-B2A9-41B6-8C2D-75095F558AA2";
paths = (
{
closed = 1;
nodes = (
"701 1459 LINE",
"701 661 LINE",
"395 661 LINE"
);
},
{
closed = 1;
nodes = (
"633 1651 LINE",
"-16 0 LINE",
"141 0 LINE",
"345 532 LINE",
"701 532 LINE",
"701 0 LINE",
"1530 0 LINE",
"1530 129 LINE",
"847 129 LINE",
"847 762 LINE",
"1506 762 LINE",
"1506 891 LINE",
"847 891 LINE",
"847 1522 LINE",
"1530 1522 LINE",
"1530 1651 LINE"
);
}
);
width = 1650;
},
{
hints = (
{
horizontal = 1;
place = "{567, 94}";
type = Stem;
},
{
horizontal = 1;
place = "{0, 21}";
target = up;
type = BottomGhost;
},
{
horizontal = 1;
place = "{1557, 94}";
type = Stem;
},
{
horizontal = 1;
place = "{780, 94}";
type = Stem;
},
{
horizontal = 1;
place = "{0, 94}";
type = Stem;
},
{
place = "{684, 106}";
type = Stem;
}
);
layerId = "409FFF8B-6B5D-4160-8B77-EB84ED6DCA06";
paths = (
{
closed = 1;
nodes = (
"684 1514 LINE",
"684 661 LINE",
"357 661 LINE"
);
},
{
closed = 1;
nodes = (
"635 1651 LINE",
"-11 0 LINE",
"103 0 LINE",
"321 567 LINE",
"684 567 LINE",
"684 0 LINE",
"1493 0 LINE",
"1493 94 LINE",
"790 94 LINE",
"790 780 LINE",
"1469 780 LINE",
"1469 874 LINE",
"790 874 LINE",
"790 1557 LINE",
"1493 1557 LINE",
"1493 1651 LINE"
);
}
);
width = 1629;
},
{
hints = (
{
horizontal = 1;
place = "{593, 68}";
type = Stem;
},
{
horizontal = 1;
place = "{0, 21}";
target = up;
type = BottomGhost;
},
{
horizontal = 1;
place = "{1583, 68}";
type = Stem;
},
{
horizontal = 1;
place = "{793, 68}";
type = Stem;
},
{
horizontal = 1;
place = "{0, 68}";
type = Stem;
},
{
place = "{673, 76}";
type = Stem;
}
);
layerId = "429DE6A8-FC85-4834-8ADF-6599F7754E15";
paths = (
{
closed = 1;
nodes = (
"673 1555 LINE",
"673 661 LINE",
"331 661 LINE"
);
},
{
closed = 1;
nodes = (
"638 1651 LINE",
"-5 0 LINE",
"76 0 LINE",
"305 593 LINE",
"673 593 LINE",
"673 0 LINE",
"1467 0 LINE",
"1467 68 LINE",
"749 68 LINE",
"749 793 LINE",
"1443 793 LINE",
"1443 861 LINE",
"749 861 LINE",
"749 1583 LINE",
"1467 1583 LINE",
"1467 1651 LINE"
);
}
);
width = 1603;
},
{
hints = (
{
horizontal = 1;
place = "{610, 50}";
type = Stem;
},
{
horizontal = 1;
place = "{0, 21}";
target = up;
type = BottomGhost;
},
{
horizontal = 1;
place = "{1600, 50}";
type = Stem;
},
{
horizontal = 1;
place = "{802, 50}";
type = Stem;
},
{
horizontal = 1;
place = "{0, 50}";
type = Stem;
},
{
place = "{668, 56}";
type = Stem;
}
);
layerId = "F04A0BE8-B495-4823-90DC-0CCFE7794FD1";
paths = (
{
closed = 1;
nodes = (
"668 1582 LINE",
"668 660 LINE",
"315 660 LINE"
);
},
{
closed = 1;
nodes = (
"642 1650 LINE",
"0 0 LINE",
"60 0 LINE",
"296 610 LINE",
"668 610 LINE",
"668 0 LINE",
"1452 0 LINE",
"1452 50 LINE",
"724 50 LINE",
"724 802 LINE",
"1428 802 LINE",
"1428 852 LINE",
"724 852 LINE",
"724 1600 LINE",
"1452 1600 LINE",
"1452 1650 LINE"
);
}
);
width = 1599;
}
);
rightKerningGroup = _A1;
unicode = 00C6;
},
{
color = 5;
glyphname = B;
leftMetricsKey = H;
layers = (
{
anchors = (
{
name = bottom;
position = "{670, 0}";
},
{
name = top;
position = "{670, 1650}";
}
);
hints = (
{
horizontal = 1;
place = "{0, 338}";
type = Stem;
},
{
horizontal = 1;
place = "{654, 378}";
type = Stem;
},
{
horizontal = 1;
place = "{1312, 338}";
type = Stem;
},
{
place = "{97, 440}";
type = Stem;
},
{
place = "{737, 108}";
type = Stem;
},
{
place = "{1163, 146}";
type = Stem;
}
);
layerId = "2DB08DF0-02C3-44C2-9E0E-FF1701E70813";
paths = (
{
closed = 1;
nodes = (
"763 0 LINE SMOOTH",
"1095 0 OFFCURVE",
"1309 180 OFFCURVE",
"1309 478 CURVE SMOOTH",
"1309 701 OFFCURVE",
"1190 841 OFFCURVE",
"967 880 CURVE",
"1097 953 OFFCURVE",
"1163 1073 OFFCURVE",
"1163 1236 CURVE SMOOTH",
"1163 1516 OFFCURVE",
"970 1650 OFFCURVE",
"655 1650 CURVE SMOOTH",
"97 1650 LINE",
"97 0 LINE"
);
},
{
closed = 1;
nodes = (
"537 1312 LINE",
"547 1312 LINE SMOOTH",
"678 1312 OFFCURVE",
"737 1269 OFFCURVE",
"737 1176 CURVE SMOOTH",
"737 1082 OFFCURVE",
"671 1032 OFFCURVE",
"547 1032 CURVE SMOOTH",
"537 1032 LINE"
);
},
{
closed = 1;
nodes = (
"537 654 LINE",
"605 654 LINE SMOOTH",
"763 654 OFFCURVE",
"845 598 OFFCURVE",
"845 492 CURVE SMOOTH",
"845 386 OFFCURVE",
"770 338 OFFCURVE",
"605 338 CURVE SMOOTH",
"537 338 LINE"
);
}
);
width = 1340;
},
{
anchors = (
{
name = bottom;
position = "{664, 0}";
},
{
name = top;
position = "{664, 1650}";
}
);
hints = (
{
horizontal = 1;
place = "{0, 290}";
type = Stem;
},
{
horizontal = 1;
place = "{681, 324}";
type = Stem;
},
{
horizontal = 1;
place = "{1360, 290}";
type = Stem;
},
{
place = "{119, 376}";
type = Stem;
},
{
place = "{775, 114}";
type = Stem;
},
{
place = "{1139, 146}";
type = Stem;
}
);
layerId = "42521C20-2C1E-4F42-AF24-FEB99F0BB27F";
paths = (
{
closed = 1;
nodes = (
"745 0 LINE SMOOTH",
"1076 0 OFFCURVE",
"1285 176 OFFCURVE",
"1285 470 CURVE SMOOTH",
"1285 696 OFFCURVE",
"1162 838 OFFCURVE",
"933 876 CURVE",
"1069 947 OFFCURVE",
"1139 1069 OFFCURVE",
"1139 1236 CURVE SMOOTH",
"1139 1513 OFFCURVE",
"947 1650 OFFCURVE",
"631 1650 CURVE SMOOTH",
"119 1650 LINE",
"119 0 LINE"
);
},
{
closed = 1;
nodes = (
"495 1360 LINE",
"541 1360 LINE SMOOTH",
"699 1360 OFFCURVE",
"775 1302 OFFCURVE",
"775 1185 CURVE SMOOTH",
"775 1069 OFFCURVE",
"693 1005 OFFCURVE",
"541 1005 CURVE SMOOTH",
"495 1005 LINE"
);
},
{
closed = 1;
nodes = (
"495 681 LINE",
"613 681 LINE SMOOTH",
"793 681 OFFCURVE",
"889 610 OFFCURVE",
"889 481 CURVE SMOOTH",
"889 353 OFFCURVE",
"799 290 OFFCURVE",
"613 290 CURVE SMOOTH",
"495 290 LINE"
);
}
);
width = 1329;
},
{
anchors = (
{
name = bottom;
position = "{659, 0}";
},
{
name = top;
position = "{659, 1650}";
}
);
hints = (
{
horizontal = 1;
place = "{0, 239}";
type = Stem;
},
{
horizontal = 1;
place = "{709, 267}";
type = Stem;
},
{
horizontal = 1;
place = "{1411, 239}";
type = Stem;
},
{
place = "{143, 308}";
type = Stem;
},
{
place = "{816, 121}";
type = Stem;
},
{
place = "{1113, 147}";
type = Stem;
}
);
layerId = "EC0A9815-809D-40B1-AF02-15154ADC149F";
paths = (
{
closed = 1;
nodes = (
"727 0 LINE SMOOTH",
"1055 0 OFFCURVE",
"1260 172 OFFCURVE",
"1260 461 CURVE SMOOTH",
"1260 690 OFFCURVE",
"1131 835 OFFCURVE",
"898 871 CURVE",
"1040 941 OFFCURVE",
"1113 1065 OFFCURVE",
"1113 1235 CURVE SMOOTH",
"1113 1510 OFFCURVE",
"923 1650 OFFCURVE",
"606 1650 CURVE SMOOTH",
"143 1650 LINE",
"143 0 LINE"
);
},
{
closed = 1;
nodes = (
"451 1411 LINE",
"535 1411 LINE SMOOTH",
"721 1411 OFFCURVE",
"816 1338 OFFCURVE",
"816 1195 CURVE SMOOTH",
"816 1054 OFFCURVE",
"717 976 OFFCURVE",
"535 976 CURVE SMOOTH",
"451 976 LINE"
);
},
{
closed = 1;
nodes = (
"451 709 LINE",
"623 709 LINE SMOOTH",
"825 709 OFFCURVE",
"937 623 OFFCURVE",
"937 470 CURVE SMOOTH",
"937 318 OFFCURVE",
"830 239 OFFCURVE",
"623 239 CURVE SMOOTH",
"451 239 LINE"
);
}
);
width = 1320;
},
{
anchors = (
{
name = bottom;
position = "{655, 0}";
},
{
name = top;
position = "{655, 1650}";
}
);
hints = (
{
horizontal = 1;
place = "{0, 196}";
type = Stem;
},
{
horizontal = 1;
place = "{733, 218}";
type = Stem;
},
{
horizontal = 1;
place = "{1455, 195}";
type = Stem;
},
{
place = "{163, 250}";
type = Stem;
},
{
place = "{851, 127}";
type = Stem;
},
{
place = "{1091, 147}";
type = Stem;
}
);
layerId = "078079F8-88FE-4B64-A845-190032768C39";
paths = (
{
closed = 1;
nodes = (
"711 0 LINE SMOOTH",
"1037 0 OFFCURVE",
"1238 169 OFFCURVE",
"1238 454 CURVE SMOOTH",
"1238 685 OFFCURVE",
"1105 832 OFFCURVE",
"868 867 CURVE",
"1015 936 OFFCURVE",
"1091 1061 OFFCURVE",
"1091 1234 CURVE SMOOTH",
"1091 1507 OFFCURVE",
"903 1650 OFFCURVE",
"584 1650 CURVE SMOOTH",
"163 1650 LINE",
"163 0 LINE"
);
},
{
closed = 1;
nodes = (
"413 1455 LINE",
"529 1455 LINE SMOOTH",
"740 1455 OFFCURVE",
"851 1368 OFFCURVE",
"851 1204 CURVE SMOOTH",
"851 1041 OFFCURVE",
"737 951 OFFCURVE",
"529 951 CURVE SMOOTH",
"413 951 LINE"
);
},
{
closed = 1;
nodes = (
"413 733 LINE",
"631 733 LINE SMOOTH",
"852 733 OFFCURVE",
"978 634 OFFCURVE",
"978 461 CURVE SMOOTH",
"978 289 OFFCURVE",
"857 196 OFFCURVE",
"631 196 CURVE SMOOTH",
"413 196 LINE"
);
}
);
width = 1311;
},
{
anchors = (
{
name = bottom;
position = "{652, 0}";
},
{
name = top;
position = "{652, 1650}";
}
);
hints = (
{
horizontal = 1;
place = "{0, 162}";
type = Stem;
},
{
horizontal = 1;
place = "{752, 179}";
type = Stem;
},
{
horizontal = 1;
place = "{1490, 160}";
type = Stem;
},
{
place = "{179, 204}";
type = Stem;
},
{
place = "{878, 132}";
type = Stem;
},
{
place = "{1074, 147}";
type = Stem;
}
);
layerId = "BD6EF84D-666D-4BF5-8AC4-0B98CD7A9734";
paths = (
{
closed = 1;
nodes = (
"698 0 LINE SMOOTH",
"1023 0 OFFCURVE",
"1221 167 OFFCURVE",
"1221 448 CURVE SMOOTH",
"1221 681 OFFCURVE",
"1085 829 OFFCURVE",
"844 864 CURVE",
"995 931 OFFCURVE",
"1074 1058 OFFCURVE",
"1074 1234 CURVE SMOOTH",
"1074 1505 OFFCURVE",
"886 1650 OFFCURVE",
"566 1650 CURVE SMOOTH",
"179 1650 LINE",
"179 0 LINE"
);
},
{
closed = 1;
nodes = (
"383 1490 LINE",
"525 1490 LINE SMOOTH",
"754 1490 OFFCURVE",
"878 1392 OFFCURVE",
"878 1211 CURVE SMOOTH",
"878 1031 OFFCURVE",
"752 931 OFFCURVE",
"525 931 CURVE SMOOTH",
"383 931 LINE"
);
},
{
closed = 1;
nodes = (
"383 752 LINE",
"637 752 LINE SMOOTH",
"873 752 OFFCURVE",
"1010 643 OFFCURVE",
"1010 454 CURVE SMOOTH",
"1010 266 OFFCURVE",
"877 162 OFFCURVE",
"637 162 CURVE SMOOTH",
"383 162 LINE"
);
}
);
width = 1310;
},
{
anchors = (
{
name = bottom;
position = "{641, 0}";
},
{
name = top;
position = "{641, 1650}";
}
);
hints = (
{
horizontal = 1;
place = "{0, 119}";
type = Stem;
},
{
horizontal = 1;
place = "{776, 130}";
type = Stem;
},
{
horizontal = 1;
place = "{1534, 117}";
type = Stem;
},
{
place = "{194, 146}";
type = Stem;
},
{
place = "{908, 137}";
type = Stem;
},
{
place = "{1047, 146}";
type = Stem;
}
);
layerId = "E2387CF4-B2A9-41B6-8C2D-75095F558AA2";
paths = (
{
closed = 1;
nodes = (
"677 0 LINE SMOOTH",
"1000 0 OFFCURVE",
"1193 164 OFFCURVE",
"1193 441 CURVE SMOOTH",
"1193 675 OFFCURVE",
"1054 826 OFFCURVE",
"809 860 CURVE",
"965 926 OFFCURVE",
"1047 1054 OFFCURVE",
"1047 1233 CURVE SMOOTH",
"1047 1503 OFFCURVE",
"861 1651 OFFCURVE",
"539 1651 CURVE SMOOTH",
"194 1651 LINE",
"194 0 LINE"
);
},
{
closed = 1;
nodes = (
"340 1534 LINE",
"515 1534 LINE SMOOTH",
"768 1534 OFFCURVE",
"908 1422 OFFCURVE",
"908 1219 CURVE SMOOTH",
"908 1018 OFFCURVE",
"767 906 OFFCURVE",
"515 906 CURVE SMOOTH",
"340 906 LINE"
);
},
{
closed = 1;
nodes = (
"340 776 LINE",
"640 776 LINE SMOOTH",
"896 776 OFFCURVE",
"1045 654 OFFCURVE",
"1045 445 CURVE SMOOTH",
"1045 237 OFFCURVE",
"899 119 OFFCURVE",
"640 119 CURVE SMOOTH",
"340 119 LINE"
);
}
);
width = 1288;
},
{
anchors = (
{
name = bottom;
position = "{639, 0}";
},
{
name = top;
position = "{639, 1650}";
}
);
hints = (
{
horizontal = 1;
place = "{0, 89}";
type = Stem;
},
{
horizontal = 1;
place = "{793, 96}";
type = Stem;
},
{
horizontal = 1;
place = "{1564, 87}";
type = Stem;
},
{
place = "{209, 106}";
type = Stem;
},
{
place = "{933, 100}";
type = Stem;
},
{
place = "{1074, 105}";
type = Stem;
}
);
layerId = "409FFF8B-6B5D-4160-8B77-EB84ED6DCA06";
paths = (
{
closed = 1;
nodes = (
"667 0 LINE SMOOTH",
"988 0 OFFCURVE",
"1179 161 OFFCURVE",
"1179 436 CURVE SMOOTH",
"1179 672 OFFCURVE",
"1037 824 OFFCURVE",
"789 858 CURVE",
"949 922 OFFCURVE",
"1033 1052 OFFCURVE",
"1033 1233 CURVE SMOOTH",
"1033 1501 OFFCURVE",
"848 1651 OFFCURVE",
"525 1651 CURVE SMOOTH",
"209 1651 LINE",
"209 0 LINE"
);
},
{
closed = 1;
nodes = (
"315 1564 LINE",
"512 1564 LINE SMOOTH",
"782 1564 OFFCURVE",
"933 1443 OFFCURVE",
"933 1225 CURVE SMOOTH",
"933 1010 OFFCURVE",
"782 889 OFFCURVE",
"512 889 CURVE SMOOTH",
"315 889 LINE"
);
},
{
closed = 1;
nodes = (
"315 793 LINE",
"646 793 LINE SMOOTH",
"916 793 OFFCURVE",
"1074 662 OFFCURVE",
"1074 438 CURVE SMOOTH",
"1074 216 OFFCURVE",
"918 89 OFFCURVE",
"646 89 CURVE SMOOTH",
"315 89 LINE"
);
}
);
width = 1280;
},
{
anchors = (
{
name = bottom;
position = "{637, 0}";
},
{
name = top;
position = "{637, 1650}";
}
);
hints = (
{
horizontal = 1;
place = "{0, 67}";
type = Stem;
},
{
horizontal = 1;
place = "{806, 70}";
type = Stem;
},
{
horizontal = 1;
place = "{1586, 64}";
type = Stem;
},
{
place = "{220, 76}";
type = Stem;
},
{
place = "{951, 71}";
type = Stem;
},
{
place = "{1095, 73}";
type = Stem;
}
);
layerId = "429DE6A8-FC85-4834-8ADF-6599F7754E15";
paths = (
{
closed = 1;
nodes = (
"659 0 LINE SMOOTH",
"979 0 OFFCURVE",
"1168 160 OFFCURVE",
"1168 433 CURVE SMOOTH",
"1168 670 OFFCURVE",
"1024 823 OFFCURVE",
"773 856 CURVE",
"936 919 OFFCURVE",
"1022 1050 OFFCURVE",
"1022 1232 CURVE SMOOTH",
"1022 1499 OFFCURVE",
"837 1650 OFFCURVE",
"514 1650 CURVE SMOOTH",
"220 1650 LINE",
"220 0 LINE"
);
},
{
closed = 1;
nodes = (
"296 1586 LINE",
"509 1586 LINE SMOOTH",
"792 1586 OFFCURVE",
"951 1458 OFFCURVE",
"951 1229 CURVE SMOOTH",
"951 1003 OFFCURVE",
"793 876 OFFCURVE",
"509 876 CURVE SMOOTH",
"296 876 LINE"
);
},
{
closed = 1;
nodes = (
"296 806 LINE",
"650 806 LINE SMOOTH",
"930 806 OFFCURVE",
"1095 668 OFFCURVE",
"1095 433 CURVE SMOOTH",
"1095 201 OFFCURVE",
"932 67 OFFCURVE",
"650 67 CURVE SMOOTH",
"296 67 LINE"
);
}
);
width = 1274;
},
{
anchors = (
{
name = bottom;
position = "{640, 0}";
},
{
name = top;
position = "{640, 1650}";
}
);
hints = (
{
horizontal = 1;
place = "{0, 52}";
type = Stem;
},
{
horizontal = 1;
place = "{814, 53}";
type = Stem;
},
{
horizontal = 1;
place = "{1601, 49}";
type = Stem;
},
{
place = "{231, 56}";
type = Stem;
},
{
place = "{967, 52}";
type = Stem;
},
{
place = "{1113, 52}";
type = Stem;
}
);
layerId = "F04A0BE8-B495-4823-90DC-0CCFE7794FD1";
paths = (
{
closed = 1;
nodes = (
"657 0 LINE SMOOTH",
"977 0 OFFCURVE",
"1165 159 OFFCURVE",
"1165 430 CURVE SMOOTH",
"1165 668 OFFCURVE",
"1020 822 OFFCURVE",
"767 854 CURVE",
"931 917 OFFCURVE",
"1019 1049 OFFCURVE",
"1019 1232 CURVE SMOOTH",
"1019 1498 OFFCURVE",
"834 1650 OFFCURVE",
"511 1650 CURVE SMOOTH",
"231 1650 LINE",
"231 0 LINE"
);
},
{
closed = 1;
nodes = (
"287 1601 LINE",
"511 1601 LINE SMOOTH",
"802 1601 OFFCURVE",
"967 1468 OFFCURVE",
"967 1232 CURVE SMOOTH",
"967 998 OFFCURVE",
"804 867 OFFCURVE",
"511 867 CURVE SMOOTH",
"287 867 LINE"
);
},
{
closed = 1;
nodes = (
"287 814 LINE",
"657 814 LINE SMOOTH",
"943 814 OFFCURVE",
"1113 671 OFFCURVE",
"1113 430 CURVE SMOOTH",
"1113 191 OFFCURVE",
"945 52 OFFCURVE",
"657 52 CURVE SMOOTH",
"287 52 LINE"
);
}
);
width = 1282;
}
);
rightKerningGroup = _A1;
unicode = 0042;
},
{
color = 5;
glyphname = C;
layers = (
{
anchors = (
{
name = bottom;
position = "{799, 0}";
},
{
name = top;
position = "{799, 1650}";
},
{
name = cedilla;
position = "{839, 0}";
}
);
hints = (
{
horizontal = 1;
place = "{-32, 432}";
type = Stem;
},
{
horizontal = 1;
place = "{1248, 432}";
type = Stem;
},
{
place = "{24, 476}";
type = Stem;
}
);
layerId = "2DB08DF0-02C3-44C2-9E0E-FF1701E70813";
paths = (
{
closed = 1;
nodes = (
"24 351 OFFCURVE",
"403 -32 OFFCURVE",
"919 -32 CURVE SMOOTH",
"1119 -32 OFFCURVE",
"1315 30 OFFCURVE",
"1440 114 CURVE",
"1230 474 LINE",
"1158 428 OFFCURVE",
"1052 400 OFFCURVE",
"948 400 CURVE SMOOTH",
"662 400 OFFCURVE",
"500 581 OFFCURVE",
"500 825 CURVE SMOOTH",
"500 1067 OFFCURVE",
"662 1248 OFFCURVE",
"948 1248 CURVE SMOOTH",
"1052 1248 OFFCURVE",
"1158 1220 OFFCURVE",
"1230 1174 CURVE",
"1440 1534 LINE",
"1315 1618 OFFCURVE",
"1119 1680 OFFCURVE",
"919 1680 CURVE SMOOTH",
"403 1680 OFFCURVE",
"24 1297 OFFCURVE",
"24 824 CURVE SMOOTH"
);
}
);
width = 1442;
},
{
anchors = (
{
name = bottom;
position = "{822, 0}";
},
{
name = cedilla;
position = "{857, 0}";
},
{
name = top;
position = "{822, 1650}";
}
);
hints = (
{
horizontal = 1;
place = "{-32, 369}";
type = Stem;
},
{
horizontal = 1;
place = "{1311, 369}";
type = Stem;
},
{
place = "{44, 407}";
type = Stem;
}
);
layerId = "42521C20-2C1E-4F42-AF24-FEB99F0BB27F";
paths = (
{
closed = 1;
nodes = (
"44 349 OFFCURVE",
"419 -32 OFFCURVE",
"932 -32 CURVE SMOOTH",
"1133 -32 OFFCURVE",
"1327 30 OFFCURVE",
"1455 119 CURVE",
"1274 427 LINE",
"1193 370 OFFCURVE",
"1075 337 OFFCURVE",
"956 337 CURVE SMOOTH",
"640 337 OFFCURVE",
"451 547 OFFCURVE",
"451 825 CURVE SMOOTH",
"451 1101 OFFCURVE",
"640 1311 OFFCURVE",
"956 1311 CURVE SMOOTH",
"1075 1311 OFFCURVE",
"1193 1278 OFFCURVE",
"1274 1221 CURVE",
"1455 1529 LINE",
"1327 1618 OFFCURVE",
"1133 1680 OFFCURVE",
"932 1680 CURVE SMOOTH",
"419 1680 OFFCURVE",
"44 1299 OFFCURVE",
"44 824 CURVE SMOOTH"
);
}
);
width = 1479;
},
{
anchors = (
{
name = bottom;
position = "{871, 0}";
},
{
name = cedilla;
position = "{899, 0}";
},
{
name = top;
position = "{871, 1650}";
}
);
hints = (
{
horizontal = 1;
place = "{-32, 303}";
type = Stem;
},
{
horizontal = 1;
place = "{1377, 303}";
type = Stem;
},
{
place = "{88, 334}";
type = Stem;
}
);
layerId = "EC0A9815-809D-40B1-AF02-15154ADC149F";
paths = (
{
closed = 1;
nodes = (
"88 346 OFFCURVE",
"460 -32 OFFCURVE",
"969 -32 CURVE SMOOTH",
"1172 -32 OFFCURVE",
"1363 31 OFFCURVE",
"1494 125 CURVE",
"1345 377 LINE",
"1253 309 OFFCURVE",
"1123 271 OFFCURVE",
"989 271 CURVE SMOOTH",
"641 271 OFFCURVE",
"422 511 OFFCURVE",
"422 824 CURVE SMOOTH",
"422 1137 OFFCURVE",
"641 1377 OFFCURVE",
"989 1377 CURVE SMOOTH",
"1123 1377 OFFCURVE",
"1253 1339 OFFCURVE",
"1345 1271 CURVE",
"1494 1523 LINE",
"1363 1617 OFFCURVE",
"1172 1680 OFFCURVE",
"969 1680 CURVE SMOOTH",
"460 1680 OFFCURVE",
"88 1302 OFFCURVE",
"88 824 CURVE SMOOTH"
);
}
);
width = 1536;
},
{
anchors = (
{
name = bottom;
position = "{872, 0}";
},
{
name = cedilla;
position = "{896, 0}";
},
{
name = top;
position = "{872, 1650}";
}
);
hints = (
{
horizontal = 1;
place = "{-32, 246}";
type = Stem;
},
{
horizontal = 1;
place = "{1434, 246}";
type = Stem;
},
{
place = "{86, 271}";
type = Stem;
}
);
layerId = "078079F8-88FE-4B64-A845-190032768C39";
paths = (
{
closed = 1;
nodes = (
"86 344 OFFCURVE",
"455 -32 OFFCURVE",
"961 -32 CURVE SMOOTH",
"1165 -32 OFFCURVE",
"1354 31 OFFCURVE",
"1488 130 CURVE",
"1365 334 LINE",
"1264 257 OFFCURVE",
"1124 214 OFFCURVE",
"977 214 CURVE SMOOTH",
"601 214 OFFCURVE",
"357 480 OFFCURVE",
"357 824 CURVE SMOOTH",
"357 1168 OFFCURVE",
"601 1434 OFFCURVE",
"977 1434 CURVE SMOOTH",
"1124 1434 OFFCURVE",
"1264 1391 OFFCURVE",
"1365 1314 CURVE",
"1488 1518 LINE",
"1354 1617 OFFCURVE",
"1165 1680 OFFCURVE",
"961 1680 CURVE SMOOTH",
"455 1680 OFFCURVE",
"86 1304 OFFCURVE",
"86 824 CURVE SMOOTH"
);
}
);
width = 1547;
},
{
anchors = (
{
name = bottom;
position = "{890, 0}";
},
{
name = top;
position = "{890, 1650}";
},
{
name = cedilla;
position = "{910, 0}";
}
);
hints = (
{
horizontal = 1;
place = "{-32, 201}";
type = Stem;
},
{
horizontal = 1;
place = "{1479, 201}";
type = Stem;
},
{
place = "{101, 222}";
type = Stem;
}
);
layerId = "BD6EF84D-666D-4BF5-8AC4-0B98CD7A9734";
paths = (
{
closed = 1;
nodes = (
"101 342 OFFCURVE",
"468 -32 OFFCURVE",
"971 -32 CURVE SMOOTH",
"1176 -32 OFFCURVE",
"1364 31 OFFCURVE",
"1500 134 CURVE",
"1398 300 LINE",
"1290 215 OFFCURVE",
"1142 169 OFFCURVE",
"984 169 CURVE SMOOTH",
"586 169 OFFCURVE",
"323 455 OFFCURVE",
"323 824 CURVE SMOOTH",
"323 1193 OFFCURVE",
"586 1479 OFFCURVE",
"984 1479 CURVE SMOOTH",
"1142 1479 OFFCURVE",
"1290 1433 OFFCURVE",
"1398 1348 CURVE",
"1500 1514 LINE",
"1364 1617 OFFCURVE",
"1176 1680 OFFCURVE",
"971 1680 CURVE SMOOTH",
"468 1680 OFFCURVE",
"101 1306 OFFCURVE",
"101 824 CURVE SMOOTH"
);
}
);
width = 1575;
},
{
anchors = (
{
name = bottom;
position = "{911, 0}";
},
{
name = cedilla;
position = "{920, 0}";
},
{
name = top;
position = "{911, 1650}";
}
);
hints = (
{
horizontal = 1;
place = "{-32, 144}";
type = Stem;
},
{
horizontal = 1;
place = "{1536, 144}";
type = Stem;
},
{
place = "{113, 159}";
type = Stem;
}
);
layerId = "E2387CF4-B2A9-41B6-8C2D-75095F558AA2";
paths = (
{
closed = 1;
nodes = (
"113 340 OFFCURVE",
"477 -32 OFFCURVE",
"976 -32 CURVE SMOOTH",
"1183 -32 OFFCURVE",
"1369 31 OFFCURVE",
"1507 139 CURVE",
"1432 257 LINE",
"1315 163 OFFCURVE",
"1157 112 OFFCURVE",
"986 112 CURVE SMOOTH",
"560 112 OFFCURVE",
"272 424 OFFCURVE",
"272 824 CURVE SMOOTH",
"272 1224 OFFCURVE",
"560 1536 OFFCURVE",
"986 1536 CURVE SMOOTH",
"1157 1536 OFFCURVE",
"1315 1485 OFFCURVE",
"1432 1391 CURVE",
"1507 1509 LINE",
"1369 1617 OFFCURVE",
"1183 1680 OFFCURVE",
"976 1680 CURVE SMOOTH",
"477 1680 OFFCURVE",
"113 1308 OFFCURVE",
"113 824 CURVE SMOOTH"
);
}
);
width = 1586;
},
{
anchors = (
{
name = bottom;
position = "{933, 0}";
},
{
name = cedilla;
position = "{935, 0}";
},
{
name = top;
position = "{933, 1650}";
}
);
hints = (
{
horizontal = 1;
place = "{-32, 105}";
type = Stem;
},
{
horizontal = 1;
place = "{1575, 105}";
type = Stem;
},
{
place = "{128, 116}";
type = Stem;
}
);
layerId = "409FFF8B-6B5D-4160-8B77-EB84ED6DCA06";
paths = (
{
closed = 1;
nodes = (
"128 339 OFFCURVE",
"490 -32 OFFCURVE",
"987 -32 CURVE SMOOTH",
"1195 -32 OFFCURVE",
"1379 31 OFFCURVE",
"1520 142 CURVE",
"1463 227 LINE",
"1339 127 OFFCURVE",
"1174 73 OFFCURVE",
"994 73 CURVE SMOOTH",
"549 73 OFFCURVE",
"244 403 OFFCURVE",
"244 824 CURVE SMOOTH",
"244 1245 OFFCURVE",
"549 1575 OFFCURVE",
"994 1575 CURVE SMOOTH",
"1174 1575 OFFCURVE",
"1339 1521 OFFCURVE",
"1463 1421 CURVE",
"1520 1506 LINE",
"1379 1617 OFFCURVE",
"1195 1680 OFFCURVE",
"987 1680 CURVE SMOOTH",
"490 1680 OFFCURVE",
"128 1309 OFFCURVE",
"128 824 CURVE SMOOTH"
);
}
);
width = 1615;
},
{
anchors = (
{
name = bottom;
position = "{946, 0}";
},
{
name = cedilla;
position = "{943, 0}";
},
{
name = top;
position = "{946, 1650}";
}
);
hints = (
{
horizontal = 1;
place = "{-32, 76}";
type = Stem;
},
{
horizontal = 1;
place = "{1604, 76}";
type = Stem;
},
{
place = "{136, 84}";
type = Stem;
}
);
layerId = "429DE6A8-FC85-4834-8ADF-6599F7754E15";
paths = (
{
closed = 1;
nodes = (
"136 338 OFFCURVE",
"496 -32 OFFCURVE",
"992 -32 CURVE SMOOTH",
"1200 -32 OFFCURVE",
"1383 31 OFFCURVE",
"1526 144 CURVE",
"1483 205 LINE",
"1354 100 OFFCURVE",
"1183 44 OFFCURVE",
"997 44 CURVE SMOOTH",
"537 44 OFFCURVE",
"220 387 OFFCURVE",
"220 824 CURVE SMOOTH",
"220 1261 OFFCURVE",
"537 1604 OFFCURVE",
"997 1604 CURVE SMOOTH",
"1183 1604 OFFCURVE",
"1354 1548 OFFCURVE",
"1483 1443 CURVE",
"1526 1504 LINE",
"1383 1617 OFFCURVE",
"1200 1680 OFFCURVE",
"992 1680 CURVE SMOOTH",
"496 1680 OFFCURVE",
"136 1310 OFFCURVE",
"136 824 CURVE SMOOTH"
);
}
);
width = 1629;
},
{
anchors = (
{
name = bottom;
position = "{960, 0}";
},
{
name = top;
position = "{960, 1650}";
},
{
name = cedilla;
position = "{943, 0}";
}
);
hints = (
{
horizontal = 1;
place = "{-32, 56}";
type = Stem;
},
{
horizontal = 1;
place = "{1624, 56}";
type = Stem;
},
{
place = "{147, 62}";
type = Stem;
}
);
layerId = "F04A0BE8-B495-4823-90DC-0CCFE7794FD1";
paths = (
{
closed = 1;
nodes = (
"147 337 OFFCURVE",
"506 -32 OFFCURVE",
"1000 -32 CURVE SMOOTH",
"1209 -32 OFFCURVE",
"1391 31 OFFCURVE",
"1535 146 CURVE",
"1501 190 LINE",
"1369 82 OFFCURVE",
"1195 24 OFFCURVE",
"1004 24 CURVE SMOOTH",
"535 24 OFFCURVE",
"209 376 OFFCURVE",
"209 824 CURVE SMOOTH",
"209 1272 OFFCURVE",
"535 1624 OFFCURVE",
"1004 1624 CURVE SMOOTH",
"1195 1624 OFFCURVE",
"1369 1566 OFFCURVE",
"1501 1458 CURVE",
"1535 1502 LINE",
"1391 1617 OFFCURVE",
"1209 1680 OFFCURVE",
"1000 1680 CURVE SMOOTH",
"506 1680 OFFCURVE",
"147 1311 OFFCURVE",
"147 824 CURVE SMOOTH"
);
}
);
width = 1649;
}
);
leftKerningGroup = _C;
rightKerningGroup = _C;
unicode = 0043;
},
{
color = 5;
glyphname = D;
leftMetricsKey = H;
rightMetricsKey = O;
layers = (
{
anchors = (
{
name = bottom;
position = "{698, 0}";
},
{
name = center;
position = "{698, 825}";
},
{
name = top;
position = "{698, 1650}";
}
);
hints = (
{
horizontal = 1;
place = "{0, 394}";
type = Stem;
},
{
horizontal = 1;
place = "{1256, 394}";
type = Stem;
},
{
place = "{961, 476}";
type = Stem;
},
{
place = "{97, 440}";
type = Stem;
}
);
layerId = "2DB08DF0-02C3-44C2-9E0E-FF1701E70813";
paths = (
{
closed = 1;
nodes = (
"605 0 LINE SMOOTH",
"1075 0 OFFCURVE",
"1437 360 OFFCURVE",
"1437 825 CURVE SMOOTH",
"1437 1290 OFFCURVE",
"1073 1650 OFFCURVE",
"605 1650 CURVE SMOOTH",
"97 1650 LINE",
"97 0 LINE"
);
},
{
closed = 1;
nodes = (
"537 1256 LINE",
"553 1256 LINE SMOOTH",
"792 1256 OFFCURVE",
"961 1078 OFFCURVE",
"961 825 CURVE SMOOTH",
"961 572 OFFCURVE",
"792 394 OFFCURVE",
"553 394 CURVE SMOOTH",
"537 394 LINE"
);
}
);
width = 1461;
},
{
anchors = (
{
name = bottom;
position = "{708, 0}";
},
{
name = center;
position = "{708, 825}";
},
{
name = top;
position = "{708, 1650}";
}
);
hints = (
{
horizontal = 1;
place = "{0, 337}";
type = Stem;
},
{
horizontal = 1;
place = "{1313, 337}";
type = Stem;
},
{
place = "{1023, 406}";
type = Stem;
},
{
place = "{119, 376}";
type = Stem;
}
);
layerId = "42521C20-2C1E-4F42-AF24-FEB99F0BB27F";
paths = (
{
closed = 1;
nodes = (
"597 0 LINE SMOOTH",
"1067 0 OFFCURVE",
"1429 360 OFFCURVE",
"1429 825 CURVE SMOOTH",
"1429 1290 OFFCURVE",
"1065 1650 OFFCURVE",
"597 1650 CURVE SMOOTH",
"119 1650 LINE",
"119 0 LINE"
);
},
{
closed = 1;
nodes = (
"495 1313 LINE",
"554 1313 LINE SMOOTH",
"825 1313 OFFCURVE",
"1023 1108 OFFCURVE",
"1023 825 CURVE SMOOTH",
"1023 542 OFFCURVE",
"825 337 OFFCURVE",
"554 337 CURVE SMOOTH",
"495 337 LINE"
);
}
);
width = 1473;
},
{
anchors = (
{
name = bottom;
position = "{721, 0}";
},
{
name = center;
position = "{721, 825}";
},
{
name = top;
position = "{721, 1650}";
}
);
hints = (
{
horizontal = 1;
place = "{0, 276}";
type = Stem;
},
{
horizontal = 1;
place = "{1374, 276}";
type = Stem;
},
{
place = "{1090, 331}";
type = Stem;
},
{
place = "{143, 308}";
type = Stem;
}
);
layerId = "EC0A9815-809D-40B1-AF02-15154ADC149F";
paths = (
{
closed = 1;
nodes = (
"589 0 LINE SMOOTH",
"1059 0 OFFCURVE",
"1421 360 OFFCURVE",
"1421 825 CURVE SMOOTH",
"1421 1290 OFFCURVE",
"1057 1650 OFFCURVE",
"589 1650 CURVE SMOOTH",
"143 1650 LINE",
"143 0 LINE"
);
},
{
closed = 1;
nodes = (
"451 1374 LINE",
"555 1374 LINE SMOOTH",
"861 1374 OFFCURVE",
"1090 1140 OFFCURVE",
"1090 825 CURVE SMOOTH",
"1090 510 OFFCURVE",
"861 276 OFFCURVE",
"555 276 CURVE SMOOTH",
"451 276 LINE"
);
}
);
width = 1487;
},
{
anchors = (
{
name = bottom;
position = "{730, 0}";
},
{
name = center;
position = "{730, 825}";
},
{
name = top;
position = "{730, 1650}";
}
);
hints = (
{
horizontal = 1;
place = "{0, 224}";
type = Stem;
},
{
horizontal = 1;
place = "{1426, 224}";
type = Stem;
},
{
place = "{1146, 267}";
type = Stem;
},
{
place = "{163, 250}";
type = Stem;
}
);
layerId = "078079F8-88FE-4B64-A845-190032768C39";
paths = (
{
closed = 1;
nodes = (
"581 0 LINE SMOOTH",
"1051 0 OFFCURVE",
"1413 360 OFFCURVE",
"1413 825 CURVE SMOOTH",
"1413 1290 OFFCURVE",
"1050 1650 OFFCURVE",
"581 1650 CURVE SMOOTH",
"163 1650 LINE",
"163 0 LINE"
);
},
{
closed = 1;
nodes = (
"413 1426 LINE",
"555 1426 LINE SMOOTH",
"891 1426 OFFCURVE",
"1146 1168 OFFCURVE",
"1146 825 CURVE SMOOTH",
"1146 482 OFFCURVE",
"891 224 OFFCURVE",
"555 224 CURVE SMOOTH",
"413 224 LINE"
);
}
);
width = 1499;
},
{
anchors = (
{
name = bottom;
position = "{738, 0}";
},
{
name = center;
position = "{738, 825}";
},
{
name = top;
position = "{738, 1650}";
}
);
hints = (
{
horizontal = 1;
place = "{0, 183}";
type = Stem;
},
{
horizontal = 1;
place = "{1467, 183}";
type = Stem;
},
{
place = "{1190, 217}";
type = Stem;
},
{
place = "{179, 204}";
type = Stem;
}
);
layerId = "BD6EF84D-666D-4BF5-8AC4-0B98CD7A9734";
paths = (
{
closed = 1;
nodes = (
"575 0 LINE SMOOTH",
"1045 0 OFFCURVE",
"1407 360 OFFCURVE",
"1407 825 CURVE SMOOTH",
"1407 1290 OFFCURVE",
"1044 1650 OFFCURVE",
"575 1650 CURVE SMOOTH",
"179 1650 LINE",
"179 0 LINE"
);
},
{
closed = 1;
nodes = (
"383 1467 LINE",
"555 1467 LINE SMOOTH",
"915 1467 OFFCURVE",
"1190 1190 OFFCURVE",
"1190 825 CURVE SMOOTH",
"1190 460 OFFCURVE",
"915 183 OFFCURVE",
"555 183 CURVE SMOOTH",
"383 183 LINE"
);
}
);
width = 1509;
},
{
anchors = (
{
name = bottom;
position = "{742, 0}";
},
{
name = center;
position = "{742, 825}";
},
{
name = top;
position = "{742, 1650}";
}
);
hints = (
{
horizontal = 1;
place = "{0, 131}";
type = Stem;
},
{
horizontal = 1;
place = "{1519, 131}";
type = Stem;
},
{
place = "{1241, 153}";
type = Stem;
},
{
place = "{194, 146}";
type = Stem;
}
);
layerId = "E2387CF4-B2A9-41B6-8C2D-75095F558AA2";
paths = (
{
closed = 1;
nodes = (
"562 0 LINE SMOOTH",
"1032 0 OFFCURVE",
"1394 359 OFFCURVE",
"1394 825 CURVE SMOOTH",
"1394 1291 OFFCURVE",
"1032 1650 OFFCURVE",
"562 1650 CURVE SMOOTH",
"194 1650 LINE",
"194 0 LINE"
);
},
{
closed = 1;
nodes = (
"340 1519 LINE",
"550 1519 LINE SMOOTH",
"940 1519 OFFCURVE",
"1241 1218 OFFCURVE",
"1241 825 CURVE SMOOTH",
"1241 432 OFFCURVE",
"940 131 OFFCURVE",
"550 131 CURVE SMOOTH",
"340 131 LINE"
);
}
);
width = 1507;
},
{
anchors = (
{
name = bottom;
position = "{751, 0}";
},
{
name = center;
position = "{751, 825}";
},
{
name = top;
position = "{751, 1650}";
}
);
hints = (
{
horizontal = 1;
place = "{0, 95}";
type = Stem;
},
{
horizontal = 1;
place = "{1555, 95}";
type = Stem;
},
{
place = "{1281, 109}";
type = Stem;
},
{
place = "{209, 106}";
type = Stem;
}
);
layerId = "409FFF8B-6B5D-4160-8B77-EB84ED6DCA06";
paths = (
{
closed = 1;
nodes = (
"558 0 LINE SMOOTH",
"1028 0 OFFCURVE",
"1390 359 OFFCURVE",
"1390 825 CURVE SMOOTH",
"1390 1291 OFFCURVE",
"1028 1650 OFFCURVE",
"558 1650 CURVE SMOOTH",
"209 1650 LINE",
"209 0 LINE"
);
},
{
closed = 1;
nodes = (
"315 1555 LINE",
"552 1555 LINE SMOOTH",
"962 1555 OFFCURVE",
"1281 1237 OFFCURVE",
"1281 825 CURVE SMOOTH",
"1281 413 OFFCURVE",
"962 95 OFFCURVE",
"552 95 CURVE SMOOTH",
"315 95 LINE"
);
}
);
width = 1518;
},
{
anchors = (
{
name = bottom;
position = "{757, 0}";
},
{
name = center;
position = "{757, 825}";
},
{
name = top;
position = "{757, 1650}";
}
);
hints = (
{
horizontal = 1;
place = "{0, 68}";
type = Stem;
},
{
horizontal = 1;
place = "{1582, 68}";
type = Stem;
},
{
place = "{1311, 76}";
type = Stem;
},
{
place = "{220, 76}";
type = Stem;
}
);
layerId = "429DE6A8-FC85-4834-8ADF-6599F7754E15";
paths = (
{
closed = 1;
nodes = (
"555 0 LINE SMOOTH",
"1025 0 OFFCURVE",
"1387 359 OFFCURVE",
"1387 825 CURVE SMOOTH",
"1387 1291 OFFCURVE",
"1025 1650 OFFCURVE",
"555 1650 CURVE SMOOTH",
"220 1650 LINE",
"220 0 LINE"
);
},
{
closed = 1;
nodes = (
"296 1582 LINE",
"553 1582 LINE SMOOTH",
"978 1582 OFFCURVE",
"1311 1251 OFFCURVE",
"1311 825 CURVE SMOOTH",
"1311 399 OFFCURVE",
"978 68 OFFCURVE",
"553 68 CURVE SMOOTH",
"296 68 LINE"
);
}
);
width = 1523;
},
{
anchors = (
{
name = bottom;
position = "{765, 0}";
},
{
name = center;
position = "{765, 825}";
},
{
name = top;
position = "{765, 1650}";
}
);
hints = (
{
horizontal = 1;
place = "{0, 50}";
type = Stem;
},
{
horizontal = 1;
place = "{1600, 50}";
type = Stem;
},
{
place = "{1335, 54}";
type = Stem;
},
{
place = "{231, 56}";
type = Stem;
}
);
layerId = "F04A0BE8-B495-4823-90DC-0CCFE7794FD1";
paths = (
{
closed = 1;
nodes = (
"557 0 LINE SMOOTH",
"1027 0 OFFCURVE",
"1389 359 OFFCURVE",
"1389 825 CURVE SMOOTH",
"1389 1291 OFFCURVE",
"1027 1650 OFFCURVE",
"557 1650 CURVE SMOOTH",
"231 1650 LINE",
"231 0 LINE"
);
},
{
closed = 1;
nodes = (
"287 1600 LINE",
"557 1600 LINE SMOOTH",
"993 1600 OFFCURVE",
"1335 1260 OFFCURVE",
"1335 825 CURVE SMOOTH",
"1335 390 OFFCURVE",
"993 50 OFFCURVE",
"557 50 CURVE SMOOTH",
"287 50 LINE"
);
}
);
width = 1536;
}
);
rightKerningGroup = _A1;
unicode = 0044;
},
{
color = 4;
glyphname = Eth;
leftMetricsKey = D;
rightMetricsKey = D;
layers = (
{
components = (
{
name = D;
transform = "{1, 0, 0, 1, 125, 0}";
alignment = -1;
}
);
hints = (
{
horizontal = 1;
place = "{646, 358}";
type = Stem;
}
);
layerId = "2DB08DF0-02C3-44C2-9E0E-FF1701E70813";
paths = (
{
closed = 1;
nodes = (
"97 1004 LINE",
"97 646 LINE",
"855 646 LINE",
"855 1004 LINE"
);
}
);
width = 1586;
},
{
components = (
{
name = D;
transform = "{1, 0, 0, 1, 130, 0}";
alignment = -1;
}
);
hints = (
{
horizontal = 1;
place = "{672, 306}";
type = Stem;
}
);
layerId = "42521C20-2C1E-4F42-AF24-FEB99F0BB27F";
paths = (
{
closed = 1;
nodes = (
"119 978 LINE",
"119 672 LINE",
"877 672 LINE",
"877 978 LINE"
);
}
);
width = 1603;
},
{
components = (
{
name = D;
transform = "{1, 0, 0, 1, 150, 0}";
alignment = -1;
}
);
hints = (
{
horizontal = 1;
place = "{699, 250}";
type = Stem;
}
);
layerId = "EC0A9815-809D-40B1-AF02-15154ADC149F";
paths = (
{
closed = 1;
nodes = (
"143 949 LINE",
"143 699 LINE",
"901 699 LINE",
"901 949 LINE"
);
}
);
width = 1637;
},
{
components = (
{
name = D;
transform = "{1, 0, 0, 1, 153, 0}";
alignment = -1;
}
);
hints = (
{
horizontal = 1;
place = "{723, 203}";
type = Stem;
}
);
layerId = "078079F8-88FE-4B64-A845-190032768C39";
paths = (
{
closed = 1;
nodes = (
"163 926 LINE",
"163 723 LINE",
"921 723 LINE",
"921 926 LINE"
);
}
);
width = 1652;
},
{
components = (
{
name = D;
transform = "{1, 0, 0, 1, 161, 0}";
alignment = -1;
}
);
hints = (
{
horizontal = 1;
place = "{742, 166}";
type = Stem;
}
);
layerId = "BD6EF84D-666D-4BF5-8AC4-0B98CD7A9734";
paths = (
{
closed = 1;
nodes = (
"179 908 LINE",
"179 742 LINE",
"937 742 LINE",
"937 908 LINE"
);
}
);
width = 1670;
},
{
components = (
{
name = D;
transform = "{1, 0, 0, 1, 203, 0}";
alignment = -1;
}
);
hints = (
{
horizontal = 1;
place = "{766, 119}";
type = Stem;
}
);
layerId = "E2387CF4-B2A9-41B6-8C2D-75095F558AA2";
paths = (
{
closed = 1;
nodes = (
"194 885 LINE",
"194 766 LINE",
"952 766 LINE",
"952 885 LINE"
);
}
);
width = 1710;
},
{
components = (
{
name = D;
transform = "{1, 0, 0, 1, 203, 0}";
alignment = -1;
}
);
hints = (
{
horizontal = 1;
place = "{782, 86}";
type = Stem;
}
);
layerId = "409FFF8B-6B5D-4160-8B77-EB84ED6DCA06";
paths = (
{
closed = 1;
nodes = (
"209 868 LINE",
"209 782 LINE",
"967 782 LINE",
"967 868 LINE"
);
}
);
width = 1721;
},
{
components = (
{
name = D;
transform = "{1, 0, 0, 1, 227, 0}";
alignment = -1;
}
);
hints = (
{
horizontal = 1;
place = "{794, 62}";
type = Stem;
}
);
layerId = "429DE6A8-FC85-4834-8ADF-6599F7754E15";
paths = (
{
closed = 1;
nodes = (
"220 856 LINE",
"220 794 LINE",
"978 794 LINE",
"978 856 LINE"
);
}
);
width = 1750;
},
{
components = (
{
name = D;
transform = "{1, 0, 0, 1, 232, 0}";
alignment = -1;
}
);
hints = (
{
horizontal = 1;
place = "{802, 46}";
type = Stem;
}
);
layerId = "F04A0BE8-B495-4823-90DC-0CCFE7794FD1";
paths = (
{
closed = 1;
nodes = (
"231 848 LINE",
"231 802 LINE",
"989 802 LINE",
"989 848 LINE"
);
}
);
width = 1768;
}
);
rightKerningGroup = _A1;
unicode = 00D0;
},
{
color = 5;
glyphname = E;
leftMetricsKey = H;
layers = (
{
anchors = (
{
name = bottom;
position = "{571, 0}";
},
{
name = ogonek;
position = "{1073, 0}";
},
{
name = top;
position = "{571, 1650}";
},
{
name = topleft;
position = "{97, 1650}";
}
);
hints = (
{
horizontal = 1;
place = "{1264, 386}";
type = Stem;
},
{
horizontal = 1;
place = "{634, 386}";
type = Stem;
},
{
horizontal = 1;
place = "{0, 386}";
type = Stem;
},
{
place = "{97, 440}";
type = Stem;
}
);
layerId = "2DB08DF0-02C3-44C2-9E0E-FF1701E70813";
paths = (
{
closed = 1;
nodes = (
"1073 0 LINE",
"1073 386 LINE",
"537 386 LINE",
"537 634 LINE",
"1049 634 LINE",
"1049 1020 LINE",
"537 1020 LINE",
"537 1264 LINE",
"1073 1264 LINE",
"1073 1650 LINE",
"97 1650 LINE",
"97 0 LINE"
);
}
);
width = 1157;
},
{
anchors = (
{
name = bottom;
position = "{582, 0}";
},
{
name = ogonek;
position = "{1063, 0}";
},
{
name = top;
position = "{582, 1650}";
},
{
name = topleft;
position = "{103, 1650}";
}
);
hints = (
{
horizontal = 1;
place = "{1320, 330}";
type = Stem;
},
{
horizontal = 1;
place = "{662, 330}";
type = Stem;
},
{
horizontal = 1;
place = "{0, 330}";
type = Stem;
},
{
place = "{119, 376}";
type = Stem;
}
);
layerId = "42521C20-2C1E-4F42-AF24-FEB99F0BB27F";
paths = (
{
closed = 1;
nodes = (
"1063 0 LINE",
"1063 330 LINE",
"495 330 LINE",
"495 662 LINE",
"1039 662 LINE",
"1039 992 LINE",
"495 992 LINE",
"495 1320 LINE",
"1063 1320 LINE",
"1063 1650 LINE",
"119 1650 LINE",
"119 0 LINE"
);
}
);
width = 1158;
},
{
anchors = (
{
name = bottom;
position = "{596, 0}";
},
{
name = ogonek;
position = "{1053, 0}";
},
{
name = top;
position = "{596, 1650}";
},
{
name = topleft;
position = "{110, 1650}";
}
);
hints = (
{
horizontal = 1;
place = "{1379, 271}";
type = Stem;
},
{
horizontal = 1;
place = "{692, 271}";
type = Stem;
},
{
horizontal = 1;
place = "{0, 271}";
type = Stem;
},
{
place = "{143, 308}";
type = Stem;
}
);
layerId = "EC0A9815-809D-40B1-AF02-15154ADC149F";
paths = (
{
closed = 1;
nodes = (
"1053 0 LINE",
"1053 271 LINE",
"451 271 LINE",
"451 692 LINE",
"1029 692 LINE",
"1029 963 LINE",
"451 963 LINE",
"451 1379 LINE",
"1053 1379 LINE",
"1053 1650 LINE",
"143 1650 LINE",
"143 0 LINE"
);
}
);
width = 1148;
},
{
anchors = (
{
name = bottom;
position = "{607, 0}";
},
{
name = ogonek;
position = "{1044, 0}";
},
{
name = top;
position = "{607, 1650}";
},
{
name = topleft;
position = "{115, 1650}";
}
);
hints = (
{
horizontal = 1;
place = "{1430, 220}";
type = Stem;
},
{
horizontal = 1;
place = "{717, 220}";
type = Stem;
},
{
horizontal = 1;
place = "{0, 220}";
type = Stem;
},
{
place = "{163, 250}";
type = Stem;
}
);
layerId = "078079F8-88FE-4B64-A845-190032768C39";
paths = (
{
closed = 1;
nodes = (
"1044 0 LINE",
"1044 220 LINE",
"413 220 LINE",
"413 717 LINE",
"1020 717 LINE",
"1020 937 LINE",
"413 937 LINE",
"413 1430 LINE",
"1044 1430 LINE",
"1044 1650 LINE",
"163 1650 LINE",
"163 0 LINE"
);
}
);
width = 1150;
},
{
anchors = (
{
name = bottom;
position = "{615, 0}";
},
{
name = ogonek;
position = "{1037, 0}";
},
{
name = top;
position = "{615, 1650}";
}
);
hints = (
{
horizontal = 1;
place = "{1470, 180}";
type = Stem;
},
{
horizontal = 1;
place = "{737, 180}";
type = Stem;
},
{
horizontal = 1;
place = "{0, 180}";
type = Stem;
},
{
place = "{179, 204}";
type = Stem;
}
);
layerId = "BD6EF84D-666D-4BF5-8AC4-0B98CD7A9734";
paths = (
{
closed = 1;
nodes = (
"1037 0 LINE",
"1037 180 LINE",
"383 180 LINE",
"383 737 LINE",
"1013 737 LINE",
"1013 917 LINE",
"383 917 LINE",
"383 1470 LINE",
"1037 1470 LINE",
"1037 1650 LINE",
"179 1650 LINE",
"179 0 LINE"
);
}
);
width = 1159;
},
{
anchors = (
{
name = bottom;
position = "{620, 0}";
},
{
name = ogonek;
position = "{1023, 0}";
},
{
name = top;
position = "{620, 1650}";
},
{
name = topleft;
position = "{119, 1650}";
}
);
hints = (
{
horizontal = 1;
place = "{1521, 129}";
type = Stem;
},
{
horizontal = 1;
place = "{762, 129}";
type = Stem;
},
{
horizontal = 1;
place = "{0, 129}";
type = Stem;
},
{
place = "{194, 146}";
type = Stem;
}
);
layerId = "E2387CF4-B2A9-41B6-8C2D-75095F558AA2";
paths = (
{
closed = 1;
nodes = (
"1023 0 LINE",
"1023 129 LINE",
"340 129 LINE",
"340 762 LINE",
"999 762 LINE",
"999 891 LINE",
"340 891 LINE",
"340 1521 LINE",
"1023 1521 LINE",
"1023 1650 LINE",
"194 1650 LINE",
"194 0 LINE"
);
}
);
width = 1143;
},
{
anchors = (
{
name = bottom;
position = "{629, 0}";
},
{
name = ogonek;
position = "{1018, 0}";
},
{
name = top;
position = "{629, 1650}";
},
{
name = topleft;
position = "{124, 1650}";
}
);
hints = (
{
horizontal = 1;
place = "{1556, 94}";
type = Stem;
},
{
horizontal = 1;
place = "{780, 94}";
type = Stem;
},
{
horizontal = 1;
place = "{0, 94}";
type = Stem;
},
{
place = "{209, 106}";
type = Stem;
}
);
layerId = "409FFF8B-6B5D-4160-8B77-EB84ED6DCA06";
paths = (
{
closed = 1;
nodes = (
"1018 0 LINE",
"1018 94 LINE",
"315 94 LINE",
"315 780 LINE",
"994 780 LINE",
"994 874 LINE",
"315 874 LINE",
"315 1556 LINE",
"1018 1556 LINE",
"1018 1650 LINE",
"209 1650 LINE",
"209 0 LINE"
);
}
);
width = 1154;
},
{
anchors = (
{
name = bottom;
position = "{636, 0}";
},
{
name = ogonek;
position = "{1014, 0}";
},
{
name = top;
position = "{636, 1650}";
},
{
name = topleft;
position = "{128, 1650}";
}
);
hints = (
{
horizontal = 1;
place = "{1582, 68}";
type = Stem;
},
{
horizontal = 1;
place = "{793, 68}";
type = Stem;
},
{
horizontal = 1;
place = "{0, 68}";
type = Stem;
},
{
place = "{220, 76}";
type = Stem;
}
);
layerId = "429DE6A8-FC85-4834-8ADF-6599F7754E15";
paths = (
{
closed = 1;
nodes = (
"1014 0 LINE",
"1014 68 LINE",
"296 68 LINE",
"296 793 LINE",
"990 793 LINE",
"990 861 LINE",
"296 861 LINE",
"296 1582 LINE",
"1014 1582 LINE",
"1014 1650 LINE",
"220 1650 LINE",
"220 0 LINE"
);
}
);
width = 1150;
},
{
anchors = (
{
name = bottom;
position = "{644, 0}";
},
{
name = ogonek;
position = "{1015, 0}";
},
{
name = top;
position = "{644, 1650}";
}
);
hints = (
{
horizontal = 1;
place = "{1600, 50}";
type = Stem;
},
{
horizontal = 1;
place = "{802, 50}";
type = Stem;
},
{
horizontal = 1;
place = "{0, 50}";
type = Stem;
},
{
place = "{231, 56}";
type = Stem;
}
);
layerId = "F04A0BE8-B495-4823-90DC-0CCFE7794FD1";
paths = (
{
closed = 1;
nodes = (
"1015 0 LINE",
"1015 50 LINE",
"287 50 LINE",
"287 802 LINE",
"991 802 LINE",
"991 852 LINE",
"287 852 LINE",
"287 1600 LINE",
"1015 1600 LINE",
"1015 1650 LINE",
"231 1650 LINE",
"231 0 LINE"
);
}
);
width = 1162;
}
);
rightKerningGroup = _E;
unicode = 0045;
},
{
color = 5;
glyphname = F;
leftMetricsKey = H;
layers = (
{
anchors = (
{
name = bottom;
position = "{531, 0}";
},
{
name = top;
position = "{531, 1650}";
}
);
hints = (
{
horizontal = 1;
place = "{1264, 386}";
type = Stem;
},
{
place = "{97, 440}";
type = Stem;
},
{
horizontal = 1;
place = "{634, 386}";
type = Stem;
},
{
horizontal = 1;
place = "{0, 21}";
target = up;
type = BottomGhost;
}
);
layerId = "2DB08DF0-02C3-44C2-9E0E-FF1701E70813";
paths = (
{
closed = 1;
nodes = (
"97 1650 LINE",
"97 0 LINE",
"537 0 LINE",
"537 634 LINE",
"1041 634 LINE",
"1041 1020 LINE",
"537 1020 LINE",
"537 1264 LINE",
"1085 1264 LINE",
"1085 1650 LINE"
);
}
);
width = 1158;
},
{
anchors = (
{
name = bottom;
position = "{535, 0}";
},
{
name = top;
position = "{535, 1650}";
}
);
hints = (
{
horizontal = 1;
place = "{1320, 330}";
type = Stem;
},
{
place = "{119, 376}";
type = Stem;
},
{
horizontal = 1;
place = "{662, 330}";
type = Stem;
},
{
horizontal = 1;
place = "{0, 21}";
target = up;
type = BottomGhost;
}
);
layerId = "42521C20-2C1E-4F42-AF24-FEB99F0BB27F";
paths = (
{
closed = 1;
nodes = (
"119 1650 LINE",
"119 0 LINE",
"495 0 LINE",
"495 662 LINE",
"1029 662 LINE",
"1029 992 LINE",
"495 992 LINE",
"495 1320 LINE",
"1073 1320 LINE",
"1073 1650 LINE"
);
}
);
width = 1168;
},
{
anchors = (
{
name = bottom;
position = "{540, 0}";
},
{
name = top;
position = "{540, 1650}";
}
);
hints = (
{
horizontal = 1;
place = "{1379, 271}";
type = Stem;
},
{
place = "{143, 308}";
type = Stem;
},
{
horizontal = 1;
place = "{691, 271}";
type = Stem;
},
{
horizontal = 1;
place = "{0, 21}";
target = up;
type = BottomGhost;
}
);
layerId = "EC0A9815-809D-40B1-AF02-15154ADC149F";
paths = (
{
closed = 1;
nodes = (
"143 1650 LINE",
"143 0 LINE",
"451 0 LINE",
"451 691 LINE",
"1016 691 LINE",
"1016 962 LINE",
"451 962 LINE",
"451 1379 LINE",
"1061 1379 LINE",
"1061 1650 LINE"
);
}
);
width = 1112;
},
{
anchors = (
{
name = bottom;
position = "{543, 0}";
},
{
name = top;
position = "{543, 1650}";
}
);
hints = (
{
horizontal = 1;
place = "{1430, 220}";
type = Stem;
},
{
place = "{163, 250}";
type = Stem;
},
{
horizontal = 1;
place = "{716, 220}";
type = Stem;
},
{
horizontal = 1;
place = "{0, 21}";
target = up;
type = BottomGhost;
}
);
layerId = "078079F8-88FE-4B64-A845-190032768C39";
paths = (
{
closed = 1;
nodes = (
"163 1650 LINE",
"163 0 LINE",
"413 0 LINE",
"413 716 LINE",
"1005 716 LINE",
"1005 936 LINE",
"413 936 LINE",
"413 1430 LINE",
"1050 1430 LINE",
"1050 1650 LINE"
);
}
);
width = 1149;
},
{
anchors = (
{
name = bottom;
position = "{547, 0}";
},
{
name = top;
position = "{547, 1650}";
}
);
hints = (
{
horizontal = 1;
place = "{1470, 180}";
type = Stem;
},
{
place = "{179, 204}";
type = Stem;
},
{
horizontal = 1;
place = "{736, 180}";
type = Stem;
},
{
horizontal = 1;
place = "{0, 21}";
target = up;
type = BottomGhost;
}
);
layerId = "BD6EF84D-666D-4BF5-8AC4-0B98CD7A9734";
paths = (
{
closed = 1;
nodes = (
"179 1650 LINE",
"179 0 LINE",
"383 0 LINE",
"383 736 LINE",
"996 736 LINE",
"996 916 LINE",
"383 916 LINE",
"383 1470 LINE",
"1042 1470 LINE",
"1042 1650 LINE"
);
}
);
width = 1157;
},
{
anchors = (
{
name = bottom;
position = "{544, 0}";
},
{
name = top;
position = "{544, 1650}";
}
);
hints = (
{
horizontal = 1;
place = "{1521, 129}";
type = Stem;
},
{
place = "{194, 146}";
type = Stem;
},
{
horizontal = 1;
place = "{762, 129}";
type = Stem;
},
{
horizontal = 1;
place = "{0, 21}";
target = up;
type = BottomGhost;
}
);
layerId = "E2387CF4-B2A9-41B6-8C2D-75095F558AA2";
paths = (
{
closed = 1;
nodes = (
"194 1650 LINE",
"194 0 LINE",
"340 0 LINE",
"340 762 LINE",
"980 762 LINE",
"980 891 LINE",
"340 891 LINE",
"340 1521 LINE",
"1026 1521 LINE",
"1026 1650 LINE"
);
}
);
width = 1144;
},
{
anchors = (
{
name = bottom;
position = "{549, 0}";
},
{
name = top;
position = "{549, 1650}";
}
);
hints = (
{
horizontal = 1;
place = "{1556, 94}";
type = Stem;
},
{
place = "{209, 106}";
type = Stem;
},
{
horizontal = 1;
place = "{780, 94}";
type = Stem;
},
{
horizontal = 1;
place = "{0, 21}";
target = up;
type = BottomGhost;
}
);
layerId = "409FFF8B-6B5D-4160-8B77-EB84ED6DCA06";
paths = (
{
closed = 1;
nodes = (
"209 1650 LINE",
"209 0 LINE",
"315 0 LINE",
"315 780 LINE",
"974 780 LINE",
"974 874 LINE",
"315 874 LINE",
"315 1556 LINE",
"1020 1556 LINE",
"1020 1650 LINE"
);
}
);
width = 1154;
},
{
anchors = (
{
name = bottom;
position = "{552, 0}";
},
{
name = top;
position = "{552, 1650}";
}
);
hints = (
{
horizontal = 1;
place = "{1582, 68}";
type = Stem;
},
{
place = "{220, 76}";
type = Stem;
},
{
horizontal = 1;
place = "{793, 68}";
type = Stem;
},
{
horizontal = 1;
place = "{0, 21}";
target = up;
type = BottomGhost;
}
);
layerId = "429DE6A8-FC85-4834-8ADF-6599F7754E15";
paths = (
{
closed = 1;
nodes = (
"220 1650 LINE",
"220 0 LINE",
"296 0 LINE",
"296 793 LINE",
"969 793 LINE",
"969 861 LINE",
"296 861 LINE",
"296 1582 LINE",
"1015 1582 LINE",
"1015 1650 LINE"
);
}
);
width = 1160;
},
{
anchors = (
{
name = bottom;
position = "{558, 0}";
},
{
name = top;
position = "{558, 1650}";
}
);
hints = (
{
horizontal = 1;
place = "{1600, 50}";
type = Stem;
},
{
place = "{231, 56}";
type = Stem;
},
{
horizontal = 1;
place = "{802, 50}";
type = Stem;
},
{
horizontal = 1;
place = "{0, 21}";
target = up;
type = BottomGhost;
}
);
layerId = "F04A0BE8-B495-4823-90DC-0CCFE7794FD1";
paths = (
{
closed = 1;
nodes = (
"231 1650 LINE",
"231 0 LINE",
"287 0 LINE",
"287 802 LINE",
"969 802 LINE",
"969 852 LINE",
"287 852 LINE",
"287 1600 LINE",
"1015 1600 LINE",
"1015 1650 LINE"
);
}
);
width = 1171;
}
);
rightKerningGroup = _A1;
unicode = 0046;
},
{
color = 5;
glyphname = G;
layers = (
{
anchors = (
{
name = bottom;
position = "{802, 0}";
},
{
name = top;
position = "{802, 1650}";
}
);
hints = (
{
horizontal = 1;
place = "{-32, 406}";
type = Stem;
},
{
horizontal = 1;
place = "{614, 338}";
type = Stem;
},
{
horizontal = 1;
place = "{1282, 398}";
type = Stem;
},
{
place = "{24, 476}";
type = Stem;
},
{
place = "{1143, 448}";
type = Stem;
}
);
layerId = "2DB08DF0-02C3-44C2-9E0E-FF1701E70813";
paths = (
{
closed = 1;
nodes = (
"1239 -32 OFFCURVE",
"1591 225 OFFCURVE",
"1591 699 CURVE SMOOTH",
"1591 952 LINE",
"829 952 LINE",
"829 614 LINE",
"1143 614 LINE",
"1143 612 LINE SMOOTH",
"1143 481 OFFCURVE",
"1017 374 OFFCURVE",
"862 374 CURVE SMOOTH",
"642 374 OFFCURVE",
"500 581 OFFCURVE",
"500 825 CURVE SMOOTH",
"500 1067 OFFCURVE",
"632 1282 OFFCURVE",
"892 1282 CURVE SMOOTH",
"1014 1282 OFFCURVE",
"1133 1234 OFFCURVE",
"1199 1158 CURVE",
"1459 1421 LINE",
"1287 1582 OFFCURVE",
"1103 1680 OFFCURVE",
"858 1680 CURVE SMOOTH",
"373 1680 OFFCURVE",
"24 1297 OFFCURVE",
"24 824 CURVE SMOOTH",
"24 351 OFFCURVE",
"369 -32 OFFCURVE",
"848 -32 CURVE SMOOTH"
);
}
);
width = 1611;
},
{
anchors = (
{
name = bottom;
position = "{827, 0}";
},
{
name = top;
position = "{827, 1650}";
}
);
hints = (
{
horizontal = 1;
place = "{-32, 347}";
type = Stem;
},
{
horizontal = 1;
place = "{632, 290}";
type = Stem;
},
{
horizontal = 1;
place = "{1340, 340}";
type = Stem;
},
{
place = "{44, 406}";
type = Stem;
},
{
place = "{1228, 383}";
type = Stem;
}
);
layerId = "42521C20-2C1E-4F42-AF24-FEB99F0BB27F";
paths = (
{
closed = 1;
nodes = (
"1249 -32 OFFCURVE",
"1611 218 OFFCURVE",
"1611 697 CURVE SMOOTH",
"1611 922 LINE",
"848 922 LINE",
"848 632 LINE",
"1228 632 LINE",
"1228 618 LINE SMOOTH",
"1228 444 OFFCURVE",
"1064 315 OFFCURVE",
"877 315 CURVE SMOOTH",
"624 315 OFFCURVE",
"450 547 OFFCURVE",
"450 825 CURVE SMOOTH",
"450 1095 OFFCURVE",
"607 1340 OFFCURVE",
"903 1340 CURVE SMOOTH",
"1046 1340 OFFCURVE",
"1179 1283 OFFCURVE",
"1255 1193 CURVE",
"1480 1417 LINE",
"1314 1579 OFFCURVE",
"1126 1680 OFFCURVE",
"876 1680 CURVE SMOOTH",
"383 1680 OFFCURVE",
"44 1290 OFFCURVE",
"44 824 CURVE SMOOTH",
"44 351 OFFCURVE",
"390 -32 OFFCURVE",
"866 -32 CURVE SMOOTH"
);
}
);
width = 1657;
},
{
anchors = (
{
name = bottom;
position = "{857, 0}";
},
{
name = top;
position = "{857, 1650}";
}
);
hints = (
{
horizontal = 1;
place = "{-32, 284}";
type = Stem;
},
{
horizontal = 1;
place = "{651, 239}";
type = Stem;
},
{
horizontal = 1;
place = "{1401, 279}";
type = Stem;
},
{
place = "{68, 332}";
type = Stem;
},
{
place = "{1321, 314}";
type = Stem;
}
);
layerId = "EC0A9815-809D-40B1-AF02-15154ADC149F";
paths = (
{
closed = 1;
nodes = (
"1263 -32 OFFCURVE",
"1635 211 OFFCURVE",
"1635 694 CURVE SMOOTH",
"1635 890 LINE",
"872 890 LINE",
"872 651 LINE",
"1321 651 LINE",
"1321 624 LINE SMOOTH",
"1321 404 OFFCURVE",
"1116 252 OFFCURVE",
"896 252 CURVE SMOOTH",
"607 252 OFFCURVE",
"400 511 OFFCURVE",
"400 824 CURVE SMOOTH",
"400 1124 OFFCURVE",
"583 1401 OFFCURVE",
"917 1401 CURVE SMOOTH",
"1082 1401 OFFCURVE",
"1230 1334 OFFCURVE",
"1318 1230 CURVE",
"1505 1412 LINE",
"1346 1575 OFFCURVE",
"1153 1680 OFFCURVE",
"897 1680 CURVE SMOOTH",
"397 1680 OFFCURVE",
"68 1281 OFFCURVE",
"68 823 CURVE SMOOTH",
"68 351 OFFCURVE",
"416 -32 OFFCURVE",
"888 -32 CURVE SMOOTH"
);
}
);
width = 1696;
},
{
anchors = (
{
name = bottom;
position = "{881, 0}";
},
{
name = top;
position = "{881, 1650}";
}
);
hints = (
{
horizontal = 1;
place = "{-32, 230}";
type = Stem;
},
{
horizontal = 1;
place = "{667, 196}";
type = Stem;
},
{
horizontal = 1;
place = "{1454, 226}";
type = Stem;
},
{
place = "{86, 269}";
type = Stem;
},
{
place = "{1398, 255}";
type = Stem;
}
);
layerId = "078079F8-88FE-4B64-A845-190032768C39";
paths = (
{
closed = 1;
nodes = (
"1273 -32 OFFCURVE",
"1653 204 OFFCURVE",
"1653 691 CURVE SMOOTH",
"1653 863 LINE",
"890 863 LINE",
"890 667 LINE",
"1398 667 LINE",
"1398 629 LINE SMOOTH",
"1398 370 OFFCURVE",
"1159 198 OFFCURVE",
"910 198 CURVE SMOOTH",
"590 198 OFFCURVE",
"355 480 OFFCURVE",
"355 824 CURVE SMOOTH",
"355 1150 OFFCURVE",
"561 1454 OFFCURVE",
"927 1454 CURVE SMOOTH",
"1110 1454 OFFCURVE",
"1271 1378 OFFCURVE",
"1369 1262 CURVE",
"1524 1409 LINE",
"1371 1572 OFFCURVE",
"1174 1680 OFFCURVE",
"913 1680 CURVE SMOOTH",
"406 1680 OFFCURVE",
"86 1274 OFFCURVE",
"86 823 CURVE SMOOTH",
"86 350 OFFCURVE",
"435 -32 OFFCURVE",
"905 -32 CURVE SMOOTH"
);
}
);
width = 1734;
},
{
anchors = (
{
name = bottom;
position = "{900, 0}";
},
{
name = top;
position = "{900, 1650}";
}
);
hints = (
{
horizontal = 1;
place = "{-32, 187}";
type = Stem;
},
{
horizontal = 1;
place = "{680, 162}";
type = Stem;
},
{
horizontal = 1;
place = "{1496, 184}";
type = Stem;
},
{
place = "{101, 219}";
type = Stem;
},
{
place = "{1460, 208}";
type = Stem;
}
);
layerId = "BD6EF84D-666D-4BF5-8AC4-0B98CD7A9734";
paths = (
{
closed = 1;
nodes = (
"1282 -32 OFFCURVE",
"1668 198 OFFCURVE",
"1668 689 CURVE SMOOTH",
"1668 842 LINE",
"905 842 LINE",
"905 680 LINE",
"1460 680 LINE",
"1460 633 LINE SMOOTH",
"1460 343 OFFCURVE",
"1193 155 OFFCURVE",
"922 155 CURVE SMOOTH",
"577 155 OFFCURVE",
"320 456 OFFCURVE",
"320 824 CURVE SMOOTH",
"320 1171 OFFCURVE",
"544 1496 OFFCURVE",
"936 1496 CURVE SMOOTH",
"1133 1496 OFFCURVE",
"1305 1413 OFFCURVE",
"1411 1288 CURVE",
"1540 1407 LINE",
"1392 1570 OFFCURVE",
"1191 1680 OFFCURVE",
"926 1680 CURVE SMOOTH",
"414 1680 OFFCURVE",
"101 1269 OFFCURVE",
"101 823 CURVE SMOOTH",
"101 350 OFFCURVE",
"451 -32 OFFCURVE",
"919 -32 CURVE SMOOTH"
);
}
);
width = 1765;
},
{
anchors = (
{
name = bottom;
position = "{910, 0}";
},
{
name = top;
position = "{910, 1650}";
}
);
hints = (
{
horizontal = 1;
place = "{-32, 134}";
type = Stem;
},
{
horizontal = 1;
place = "{697, 119}";
type = Stem;
},
{
horizontal = 1;
place = "{1549, 131}";
type = Stem;
},
{
place = "{113, 156}";
type = Stem;
},
{
place = "{1531, 149}";
type = Stem;
}
);
layerId = "E2387CF4-B2A9-41B6-8C2D-75095F558AA2";
paths = (
{
closed = 1;
nodes = (
"1286 -32 OFFCURVE",
"1680 192 OFFCURVE",
"1680 688 CURVE SMOOTH",
"1680 816 LINE",
"917 816 LINE",
"917 697 LINE",
"1531 697 LINE",
"1531 639 LINE SMOOTH",
"1531 310 OFFCURVE",
"1229 102 OFFCURVE",
"930 102 CURVE SMOOTH",
"554 102 OFFCURVE",
"269 426 OFFCURVE",
"269 825 CURVE SMOOTH",
"269 1197 OFFCURVE",
"516 1549 OFFCURVE",
"940 1549 CURVE SMOOTH",
"1155 1549 OFFCURVE",
"1340 1458 OFFCURVE",
"1456 1320 CURVE",
"1553 1404 LINE",
"1411 1567 OFFCURVE",
"1206 1680 OFFCURVE",
"936 1680 CURVE SMOOTH",
"417 1680 OFFCURVE",
"113 1263 OFFCURVE",
"113 824 CURVE SMOOTH",
"113 350 OFFCURVE",
"465 -32 OFFCURVE",
"930 -32 CURVE SMOOTH"
);
}
);
width = 1783;
},
{
anchors = (
{
name = bottom;
position = "{924, 0}";
},
{
name = top;
position = "{924, 1650}";
}
);
hints = (
{
horizontal = 1;
place = "{-32, 97}";
type = Stem;
},
{
horizontal = 1;
place = "{708, 89}";
type = Stem;
},
{
horizontal = 1;
place = "{1585, 95}";
type = Stem;
},
{
place = "{128, 113}";
type = Stem;
},
{
place = "{1587, 108}";
type = Stem;
}
);
layerId = "409FFF8B-6B5D-4160-8B77-EB84ED6DCA06";
paths = (
{
closed = 1;
nodes = (
"1295 -32 OFFCURVE",
"1695 188 OFFCURVE",
"1695 686 CURVE SMOOTH",
"1695 797 LINE",
"932 797 LINE",
"932 708 LINE",
"1587 708 LINE",
"1587 642 LINE SMOOTH",
"1587 287 OFFCURVE",
"1261 65 OFFCURVE",
"942 65 CURVE SMOOTH",
"546 65 OFFCURVE",
"241 405 OFFCURVE",
"241 824 CURVE SMOOTH",
"241 1214 OFFCURVE",
"503 1585 OFFCURVE",
"950 1585 CURVE SMOOTH",
"1177 1585 OFFCURVE",
"1372 1488 OFFCURVE",
"1494 1342 CURVE",
"1569 1401 LINE",
"1431 1565 OFFCURVE",
"1223 1680 OFFCURVE",
"950 1680 CURVE SMOOTH",
"427 1680 OFFCURVE",
"128 1258 OFFCURVE",
"128 823 CURVE SMOOTH",
"128 350 OFFCURVE",
"481 -32 OFFCURVE",
"944 -32 CURVE SMOOTH"
);
}
);
width = 1814;
},
{
anchors = (
{
name = bottom;
position = "{931, 0}";
},
{
name = top;
position = "{931, 1650}";
}
);
hints = (
{
horizontal = 1;
place = "{-32, 69}";
type = Stem;
},
{
horizontal = 1;
place = "{716, 67}";
type = Stem;
},
{
horizontal = 1;
place = "{1612, 68}";
type = Stem;
},
{
place = "{136, 80}";
type = Stem;
},
{
place = "{1625, 78}";
type = Stem;
}
);
layerId = "429DE6A8-FC85-4834-8ADF-6599F7754E15";
paths = (
{
closed = 1;
nodes = (
"1298 -32 OFFCURVE",
"1703 184 OFFCURVE",
"1703 684 CURVE SMOOTH",
"1703 783 LINE",
"940 783 LINE",
"940 716 LINE",
"1625 716 LINE",
"1625 644 LINE SMOOTH",
"1625 269 OFFCURVE",
"1281 37 OFFCURVE",
"947 37 CURVE SMOOTH",
"536 37 OFFCURVE",
"216 389 OFFCURVE",
"216 824 CURVE SMOOTH",
"216 1227 OFFCURVE",
"490 1612 OFFCURVE",
"953 1612 CURVE SMOOTH",
"1190 1612 OFFCURVE",
"1391 1511 OFFCURVE",
"1519 1358 CURVE",
"1577 1399 LINE",
"1442 1563 OFFCURVE",
"1232 1680 OFFCURVE",
"956 1680 CURVE SMOOTH",
"430 1680 OFFCURVE",
"136 1254 OFFCURVE",
"136 823 CURVE SMOOTH",
"136 350 OFFCURVE",
"490 -32 OFFCURVE",
"951 -32 CURVE SMOOTH"
);
}
);
width = 1828;
},
{
anchors = (
{
name = bottom;
position = "{942, 0}";
},
{
name = top;
position = "{942, 1650}";
}
);
hints = (
{
horizontal = 1;
place = "{-32, 50}";
type = Stem;
},
{
horizontal = 1;
place = "{722, 52}";
type = Stem;
},
{
horizontal = 1;
place = "{1630, 50}";
type = Stem;
},
{
place = "{147, 58}";
type = Stem;
},
{
place = "{1657, 58}";
type = Stem;
}
);
layerId = "F04A0BE8-B495-4823-90DC-0CCFE7794FD1";
paths = (
{
closed = 1;
nodes = (
"1307 -32 OFFCURVE",
"1715 181 OFFCURVE",
"1715 684 CURVE SMOOTH",
"1715 774 LINE",
"951 774 LINE",
"951 722 LINE",
"1657 722 LINE",
"1657 646 LINE SMOOTH",
"1657 257 OFFCURVE",
"1301 18 OFFCURVE",
"957 18 CURVE SMOOTH",
"535 18 OFFCURVE",
"205 378 OFFCURVE",
"205 824 CURVE SMOOTH",
"205 1236 OFFCURVE",
"487 1630 OFFCURVE",
"961 1630 CURVE SMOOTH",
"1205 1630 OFFCURVE",
"1411 1526 OFFCURVE",
"1542 1369 CURVE",
"1589 1398 LINE",
"1456 1562 OFFCURVE",
"1244 1680 OFFCURVE",
"966 1680 CURVE SMOOTH",
"438 1680 OFFCURVE",
"147 1252 OFFCURVE",
"147 823 CURVE SMOOTH",
"147 350 OFFCURVE",
"501 -32 OFFCURVE",
"962 -32 CURVE SMOOTH"
);
}
);
width = 1851;
}
);
rightKerningGroup = _A1;
unicode = 0047;
},
{
color = 5;
glyphname = H;
layers = (
{
anchors = (
{
name = bottom;
position = "{749, 0}";
},
{
name = center;
position = "{749, 825}";
},
{
name = top;
position = "{749, 1650}";
}
);
hints = (
{
horizontal = 1;
place = "{634, 386}";
type = Stem;
},
{
place = "{97, 440}";
type = Stem;
},
{
place = "{961, 440}";
type = Stem;
},
{
horizontal = 1;
place = "{1650, -20}";
target = down;
type = TopGhost;
},
{
horizontal = 1;
place = "{0, 21}";
target = up;
type = BottomGhost;
}
);
layerId = "2DB08DF0-02C3-44C2-9E0E-FF1701E70813";
paths = (
{
closed = 1;
nodes = (
"537 0 LINE",
"537 634 LINE",
"961 634 LINE",
"961 0 LINE",
"1401 0 LINE",
"1401 1650 LINE",
"961 1650 LINE",
"961 1020 LINE",
"537 1020 LINE",
"537 1650 LINE",
"97 1650 LINE",
"97 0 LINE"
);
}
);
width = 1498;
},
{
anchors = (
{
name = bottom;
position = "{760, 0}";
},
{
name = center;
position = "{760, 825}";
},
{
name = top;
position = "{760, 1650}";
}
);
hints = (
{
horizontal = 1;
place = "{662, 330}";
type = Stem;
},
{
place = "{119, 376}";
type = Stem;
},
{
place = "{1025, 376}";
type = Stem;
},
{
horizontal = 1;
place = "{1650, -20}";
target = down;
type = TopGhost;
},
{
horizontal = 1;
place = "{0, 21}";
target = up;
type = BottomGhost;
}
);
layerId = "42521C20-2C1E-4F42-AF24-FEB99F0BB27F";
paths = (
{
closed = 1;
nodes = (
"495 0 LINE",
"495 662 LINE",
"1025 662 LINE",
"1025 0 LINE",
"1401 0 LINE",
"1401 1650 LINE",
"1025 1650 LINE",
"1025 992 LINE",
"495 992 LINE",
"495 1650 LINE",
"119 1650 LINE",
"119 0 LINE"
);
}
);
width = 1520;
},
{
anchors = (
{
name = bottom;
position = "{772, 0}";
},
{
name = center;
position = "{772, 825}";
},
{
name = top;
position = "{772, 1650}";
}
);
hints = (
{
horizontal = 1;
place = "{692, 271}";
type = Stem;
},
{
place = "{143, 308}";
type = Stem;
},
{
place = "{1093, 308}";
type = Stem;
},
{
horizontal = 1;
place = "{1651, -20}";
target = down;
type = TopGhost;
},
{
horizontal = 1;
place = "{0, 21}";
target = up;
type = BottomGhost;
}
);
layerId = "EC0A9815-809D-40B1-AF02-15154ADC149F";
paths = (
{
closed = 1;
nodes = (
"451 0 LINE",
"451 692 LINE",
"1093 692 LINE",
"1093 0 LINE",
"1401 0 LINE",
"1401 1651 LINE",
"1093 1651 LINE",
"1093 963 LINE",
"451 963 LINE",
"451 1651 LINE",
"143 1651 LINE",
"143 0 LINE"
);
}
);
width = 1544;
},
{
anchors = (
{
name = bottom;
position = "{782, 0}";
},
{
name = center;
position = "{782, 825}";
},
{
name = top;
position = "{782, 1650}";
}
);
hints = (
{
horizontal = 1;
place = "{717, 220}";
type = Stem;
},
{
place = "{163, 250}";
type = Stem;
},
{
place = "{1151, 250}";
type = Stem;
},
{
horizontal = 1;
place = "{1650, -20}";
target = down;
type = TopGhost;
},
{
horizontal = 1;
place = "{0, 21}";
target = up;
type = BottomGhost;
}
);
layerId = "078079F8-88FE-4B64-A845-190032768C39";
paths = (
{
closed = 1;
nodes = (
"413 0 LINE",
"413 717 LINE",
"1151 717 LINE",
"1151 0 LINE",
"1401 0 LINE",
"1401 1650 LINE",
"1151 1650 LINE",
"1151 937 LINE",
"413 937 LINE",
"413 1650 LINE",
"163 1650 LINE",
"163 0 LINE"
);
}
);
width = 1564;
},
{
anchors = (
{
name = bottom;
position = "{790, 0}";
},
{
name = center;
position = "{790, 825}";
},
{
name = top;
position = "{790, 1650}";
}
);
hints = (
{
horizontal = 1;
place = "{737, 180}";
type = Stem;
},
{
place = "{179, 204}";
type = Stem;
},
{
place = "{1197, 204}";
type = Stem;
},
{
horizontal = 1;
place = "{1650, -20}";
target = down;
type = TopGhost;
},
{
horizontal = 1;
place = "{0, 21}";
target = up;
type = BottomGhost;
}
);
layerId = "BD6EF84D-666D-4BF5-8AC4-0B98CD7A9734";
paths = (
{
closed = 1;
nodes = (
"383 0 LINE",
"383 737 LINE",
"1197 737 LINE",
"1197 0 LINE",
"1401 0 LINE",
"1401 1650 LINE",
"1197 1650 LINE",
"1197 917 LINE",
"383 917 LINE",
"383 1650 LINE",
"179 1650 LINE",
"179 0 LINE"
);
}
);
width = 1580;
},
{
anchors = (
{
name = bottom;
position = "{795, 0}";
},
{
name = center;
position = "{795, 825}";
},
{
name = top;
position = "{795, 1650}";
}
);
hints = (
{
horizontal = 1;
place = "{762, 129}";
type = Stem;
},
{
place = "{194, 146}";
type = Stem;
},
{
place = "{1250, 146}";
type = Stem;
},
{
horizontal = 1;
place = "{1650, -20}";
target = down;
type = TopGhost;
},
{
horizontal = 1;
place = "{0, 21}";
target = up;
type = BottomGhost;
}
);
layerId = "E2387CF4-B2A9-41B6-8C2D-75095F558AA2";
paths = (
{
closed = 1;
nodes = (
"340 0 LINE",
"340 762 LINE",
"1250 762 LINE",
"1250 0 LINE",
"1396 0 LINE",
"1396 1650 LINE",
"1250 1650 LINE",
"1250 891 LINE",
"340 891 LINE",
"340 1650 LINE",
"194 1650 LINE",
"194 0 LINE"
);
}
);
width = 1590;
},
{
anchors = (
{
name = bottom;
position = "{803, 0}";
},
{
name = center;
position = "{803, 825}";
},
{
name = top;
position = "{803, 1650}";
}
);
hints = (
{
horizontal = 1;
place = "{780, 94}";
type = Stem;
},
{
place = "{209, 106}";
type = Stem;
},
{
place = "{1291, 106}";
type = Stem;
},
{
horizontal = 1;
place = "{1650, -20}";
target = down;
type = TopGhost;
},
{
horizontal = 1;
place = "{0, 21}";
target = up;
type = BottomGhost;
}
);
layerId = "409FFF8B-6B5D-4160-8B77-EB84ED6DCA06";
paths = (
{
closed = 1;
nodes = (
"315 0 LINE",
"315 780 LINE",
"1291 780 LINE",
"1291 0 LINE",
"1397 0 LINE",
"1397 1650 LINE",
"1291 1650 LINE",
"1291 874 LINE",
"315 874 LINE",
"315 1650 LINE",
"209 1650 LINE",
"209 0 LINE"
);
}
);
width = 1606;
},
{
anchors = (
{
name = bottom;
position = "{809, 0}";
},
{
name = center;
position = "{809, 825}";
},
{
name = top;
position = "{809, 1650}";
}
);
hints = (
{
horizontal = 1;
place = "{793, 68}";
type = Stem;
},
{
place = "{220, 76}";
type = Stem;
},
{
place = "{1322, 76}";
type = Stem;
},
{
horizontal = 1;
place = "{1650, -20}";
target = down;
type = TopGhost;
},
{
horizontal = 1;
place = "{0, 21}";
target = up;
type = BottomGhost;
}
);
layerId = "429DE6A8-FC85-4834-8ADF-6599F7754E15";
paths = (
{
closed = 1;
nodes = (
"296 0 LINE",
"296 793 LINE",
"1322 793 LINE",
"1322 0 LINE",
"1398 0 LINE",
"1398 1650 LINE",
"1322 1650 LINE",
"1322 861 LINE",
"296 861 LINE",
"296 1650 LINE",
"220 1650 LINE",
"220 0 LINE"
);
}
);
width = 1618;
},
{
anchors = (
{
name = bottom;
position = "{817, 0}";
},
{
name = center;
position = "{817, 825}";
},
{
name = top;
position = "{817, 1650}";
}
);
hints = (
{
horizontal = 1;
place = "{802, 50}";
type = Stem;
},
{
place = "{231, 56}";
type = Stem;
},
{
place = "{1347, 56}";
type = Stem;
},
{
horizontal = 1;
place = "{1650, -20}";
target = down;
type = TopGhost;
},
{
horizontal = 1;
place = "{0, 21}";
target = up;
type = BottomGhost;
}
);
layerId = "F04A0BE8-B495-4823-90DC-0CCFE7794FD1";
paths = (
{
closed = 1;
nodes = (
"287 0 LINE",
"287 802 LINE",
"1347 802 LINE",
"1347 0 LINE",
"1403 0 LINE",
"1403 1650 LINE",
"1347 1650 LINE",
"1347 852 LINE",
"287 852 LINE",
"287 1650 LINE",
"231 1650 LINE",
"231 0 LINE"
);
}
);
width = 1634;
}
);
rightKerningGroup = _A1;
unicode = 0048;
},
{
color = 4;
glyphname = Hbar;
layers = (
{
hints = (
{
horizontal = 1;
place = "{580, 294}";
type = Stem;
},
{
horizontal = 1;
place = "{1064, 294}";
type = Stem;
},
{
place = "{196, 440}";
type = Stem;
},
{
place = "{1060, 440}";
type = Stem;
},
{
horizontal = 1;
place = "{0, 21}";
target = up;
type = BottomGhost;
},
{
horizontal = 1;
place = "{1650, -20}";
target = down;
type = TopGhost;
}
);
layerId = "2DB08DF0-02C3-44C2-9E0E-FF1701E70813";
paths = (
{
closed = 1;
nodes = (
"636 0 LINE",
"636 580 LINE",
"1060 580 LINE",
"1060 0 LINE",
"1500 0 LINE",
"1500 1650 LINE",
"1060 1650 LINE",
"1060 874 LINE",
"636 874 LINE",
"636 1650 LINE",
"196 1650 LINE",
"196 0 LINE"
);
},
{
closed = 1;
nodes = (
"1630 1064 LINE",
"1630 1358 LINE",
"66 1358 LINE",
"66 1064 LINE"
);
}
);
width = 1696;
},
{
hints = (
{
horizontal = 1;
place = "{612, 253}";
type = Stem;
},
{
horizontal = 1;
place = "{1065, 253}";
type = Stem;
},
{
place = "{212, 376}";
type = Stem;
},
{
place = "{1118, 376}";
type = Stem;
},
{
horizontal = 1;
place = "{0, 21}";
target = up;
type = BottomGhost;
},
{
horizontal = 1;
place = "{1650, -20}";
target = down;
type = TopGhost;
}
);
layerId = "42521C20-2C1E-4F42-AF24-FEB99F0BB27F";
paths = (
{
closed = 1;
nodes = (
"588 0 LINE",
"588 612 LINE",
"1118 612 LINE",
"1118 0 LINE",
"1494 0 LINE",
"1494 1650 LINE",
"1118 1650 LINE",
"1118 865 LINE",
"588 865 LINE",
"588 1650 LINE",
"212 1650 LINE",
"212 0 LINE"
);
},
{
closed = 1;
nodes = (
"1624 1065 LINE",
"1624 1318 LINE",
"82 1318 LINE",
"82 1065 LINE"
);
}
);
width = 1706;
},
{
hints = (
{
horizontal = 1;
place = "{646, 210}";
type = Stem;
},
{
horizontal = 1;
place = "{1066, 210}";
type = Stem;
},
{
place = "{229, 308}";
type = Stem;
},
{
place = "{1179, 308}";
type = Stem;
},
{
horizontal = 1;
place = "{0, 21}";
target = up;
type = BottomGhost;
},
{
horizontal = 1;
place = "{1650, -20}";
target = down;
type = TopGhost;
}
);
layerId = "EC0A9815-809D-40B1-AF02-15154ADC149F";
paths = (
{
closed = 1;
nodes = (
"537 0 LINE",
"537 646 LINE",
"1179 646 LINE",
"1179 0 LINE",
"1487 0 LINE",
"1487 1650 LINE",
"1179 1650 LINE",
"1179 856 LINE",
"537 856 LINE",
"537 1650 LINE",
"229 1650 LINE",
"229 0 LINE"
);
},
{
closed = 1;
nodes = (
"1618 1066 LINE",
"1618 1276 LINE",
"98 1276 LINE",
"98 1066 LINE"
);
}
);
width = 1716;
},
{
hints = (
{
horizontal = 1;
place = "{675, 173}";
type = Stem;
},
{
horizontal = 1;
place = "{1067, 173}";
type = Stem;
},
{
place = "{244, 250}";
type = Stem;
},
{
place = "{1232, 250}";
type = Stem;
},
{
horizontal = 1;
place = "{0, 21}";
target = up;
type = BottomGhost;
},
{
horizontal = 1;
place = "{1650, -20}";
target = down;
type = TopGhost;
}
);
layerId = "078079F8-88FE-4B64-A845-190032768C39";
paths = (
{
closed = 1;
nodes = (
"494 0 LINE",
"494 675 LINE",
"1232 675 LINE",
"1232 0 LINE",
"1482 0 LINE",
"1482 1650 LINE",
"1232 1650 LINE",
"1232 848 LINE",
"494 848 LINE",
"494 1650 LINE",
"244 1650 LINE",
"244 0 LINE"
);
},
{
closed = 1;
nodes = (
"1614 1067 LINE",
"1614 1240 LINE",
"112 1240 LINE",
"112 1067 LINE"
);
}
);
width = 1726;
},
{
hints = (
{
horizontal = 1;
place = "{698, 144}";
type = Stem;
},
{
horizontal = 1;
place = "{1068, 144}";
type = Stem;
},
{
place = "{271, 204}";
type = Stem;
},
{
place = "{1289, 204}";
type = Stem;
},
{
horizontal = 1;
place = "{0, 21}";
target = up;
type = BottomGhost;
},
{
horizontal = 1;
place = "{1650, -20}";
target = down;
type = TopGhost;
}
);
layerId = "BD6EF84D-666D-4BF5-8AC4-0B98CD7A9734";
paths = (
{
closed = 1;
nodes = (
"475 0 LINE",
"475 698 LINE",
"1289 698 LINE",
"1289 0 LINE",
"1493 0 LINE",
"1493 1650 LINE",
"1289 1650 LINE",
"1289 842 LINE",
"475 842 LINE",
"475 1650 LINE",
"271 1650 LINE",
"271 0 LINE"
);
},
{
closed = 1;
nodes = (
"1626 1068 LINE",
"1626 1212 LINE",
"138 1212 LINE",
"138 1068 LINE"
);
}
);
width = 1764;
},
{
hints = (
{
horizontal = 1;
place = "{727, 107}";
type = Stem;
},
{
horizontal = 1;
place = "{1069, 107}";
type = Stem;
},
{
place = "{256, 146}";
type = Stem;
},
{
place = "{1312, 146}";
type = Stem;
},
{
horizontal = 1;
place = "{0, 21}";
target = up;
type = BottomGhost;
},
{
horizontal = 1;
place = "{1650, -20}";
target = down;
type = TopGhost;
}
);
layerId = "E2387CF4-B2A9-41B6-8C2D-75095F558AA2";
paths = (
{
closed = 1;
nodes = (
"402 0 LINE",
"402 727 LINE",
"1312 727 LINE",
"1312 0 LINE",
"1458 0 LINE",
"1458 1650 LINE",
"1312 1650 LINE",
"1312 834 LINE",
"402 834 LINE",
"402 1650 LINE",
"256 1650 LINE",
"256 0 LINE"
);
},
{
closed = 1;
nodes = (
"1592 1069 LINE",
"1592 1176 LINE",
"122 1176 LINE",
"122 1069 LINE"
);
}
);
width = 1713;
},
{
hints = (
{
horizontal = 1;
place = "{747, 82}";
type = Stem;
},
{
horizontal = 1;
place = "{1070, 82}";
type = Stem;
},
{
place = "{281, 106}";
type = Stem;
},
{
place = "{1364, 106}";
type = Stem;
},
{
horizontal = 1;
place = "{0, 21}";
target = up;
type = BottomGhost;
},
{
horizontal = 1;
place = "{1651, -20}";
target = down;
type = TopGhost;
}
);
layerId = "409FFF8B-6B5D-4160-8B77-EB84ED6DCA06";
paths = (
{
closed = 1;
nodes = (
"387 0 LINE",
"387 747 LINE",
"1364 747 LINE",
"1364 0 LINE",
"1470 0 LINE",
"1470 1651 LINE",
"1364 1651 LINE",
"1364 829 LINE",
"387 829 LINE",
"387 1651 LINE",
"281 1651 LINE",
"281 0 LINE"
);
},
{
closed = 1;
nodes = (
"1605 1070 LINE",
"1605 1152 LINE",
"146 1152 LINE",
"146 1070 LINE"
);
}
);
width = 1751;
},
{
hints = (
{
horizontal = 1;
place = "{762, 63}";
type = Stem;
},
{
horizontal = 1;
place = "{1070, 63}";
type = Stem;
},
{
place = "{277, 76}";
type = Stem;
},
{
place = "{1380, 76}";
type = Stem;
},
{
horizontal = 1;
place = "{0, 21}";
target = up;
type = BottomGhost;
},
{
horizontal = 1;
place = "{1651, -20}";
target = down;
type = TopGhost;
}
);
layerId = "429DE6A8-FC85-4834-8ADF-6599F7754E15";
paths = (
{
closed = 1;
nodes = (
"353 0 LINE",
"353 762 LINE",
"1380 762 LINE",
"1380 0 LINE",
"1456 0 LINE",
"1456 1651 LINE",
"1380 1651 LINE",
"1380 825 LINE",
"353 825 LINE",
"353 1651 LINE",
"277 1651 LINE",
"277 0 LINE"
);
},
{
closed = 1;
nodes = (
"1591 1070 LINE",
"1591 1133 LINE",
"142 1133 LINE",
"142 1070 LINE"
);
}
);
width = 1733;
},
{
hints = (
{
horizontal = 1;
place = "{772, 50}";
type = Stem;
},
{
horizontal = 1;
place = "{1070, 50}";
type = Stem;
},
{
place = "{293, 56}";
type = Stem;
},
{
place = "{1409, 56}";
type = Stem;
},
{
horizontal = 1;
place = "{0, 21}";
target = up;
type = BottomGhost;
},
{
horizontal = 1;
place = "{1650, -20}";
target = down;
type = TopGhost;
}
);
layerId = "F04A0BE8-B495-4823-90DC-0CCFE7794FD1";
paths = (
{
closed = 1;
nodes = (
"349 0 LINE",
"349 772 LINE",
"1409 772 LINE",
"1409 0 LINE",
"1465 0 LINE",
"1465 1650 LINE",
"1409 1650 LINE",
"1409 822 LINE",
"349 822 LINE",
"349 1650 LINE",
"293 1650 LINE",
"293 0 LINE"
);
},
{
closed = 1;
nodes = (
"1600 1070 LINE",
"1600 1120 LINE",
"158 1120 LINE",
"158 1070 LINE"
);
}
);
width = 1758;
}
);
unicode = 0126;
},
{
color = 5;
glyphname = I;
leftMetricsKey = H;
rightMetricsKey = H;
layers = (
{
anchors = (
{
name = bottom;
position = "{317, 0}";
},
{
name = ogonek;
position = "{537, 0}";
},
{
name = top;
position = "{317, 1650}";
}
);
hints = (
{
place = "{97, 440}";
type = Stem;
},
{
horizontal = 1;
place = "{0, 21}";
target = up;
type = BottomGhost;
},
{
horizontal = 1;
place = "{1650, -20}";
target = down;
type = TopGhost;
}
);
layerId = "2DB08DF0-02C3-44C2-9E0E-FF1701E70813";
paths = (
{
closed = 1;
nodes = (
"537 0 LINE",
"537 1650 LINE",
"97 1650 LINE",
"97 0 LINE"
);
}
);
width = 634;
},
{
anchors = (
{
name = bottom;
position = "{307, 0}";
},
{
name = ogonek;
position = "{495, 0}";
},
{
name = top;
position = "{307, 1650}";
}
);
hints = (
{
place = "{119, 376}";
type = Stem;
},
{
horizontal = 1;
place = "{0, 21}";
target = up;
type = BottomGhost;
},
{
horizontal = 1;
place = "{1650, -20}";
target = down;
type = TopGhost;
}
);
layerId = "42521C20-2C1E-4F42-AF24-FEB99F0BB27F";
paths = (
{
closed = 1;
nodes = (
"495 0 LINE",
"495 1650 LINE",
"119 1650 LINE",
"119 0 LINE"
);
}
);
width = 614;
},
{
anchors = (
{
name = bottom;
position = "{297, 0}";
},
{
name = ogonek;
position = "{451, 0}";
},
{
name = top;
position = "{297, 1650}";
}
);
hints = (
{
place = "{143, 308}";
type = Stem;
},
{
horizontal = 1;
place = "{0, 21}";
target = up;
type = BottomGhost;
},
{
horizontal = 1;
place = "{1650, -20}";
target = down;
type = TopGhost;
}
);
layerId = "EC0A9815-809D-40B1-AF02-15154ADC149F";
paths = (
{
closed = 1;
nodes = (
"451 0 LINE",
"451 1650 LINE",
"143 1650 LINE",
"143 0 LINE"
);
}
);
width = 594;
},
{
anchors = (
{
name = bottom;
position = "{288, 0}";
},
{
name = ogonek;
position = "{413, 0}";
},
{
name = top;
position = "{288, 1650}";
}
);
hints = (
{
place = "{163, 250}";
type = Stem;
},
{
horizontal = 1;
place = "{0, 21}";
target = up;
type = BottomGhost;
},
{
horizontal = 1;
place = "{1650, -20}";
target = down;
type = TopGhost;
}
);
layerId = "078079F8-88FE-4B64-A845-190032768C39";
paths = (
{
closed = 1;
nodes = (
"413 0 LINE",
"413 1650 LINE",
"163 1650 LINE",
"163 0 LINE"
);
}
);
width = 576;
},
{
anchors = (
{
name = bottom;
position = "{281, 0}";
},
{
name = ogonek;
position = "{383, 0}";
},
{
name = top;
position = "{281, 1650}";
}
);
hints = (
{
place = "{179, 204}";
type = Stem;
},
{
horizontal = 1;
place = "{0, 21}";
target = up;
type = BottomGhost;
},
{
horizontal = 1;
place = "{1650, -20}";
target = down;
type = TopGhost;
}
);
layerId = "BD6EF84D-666D-4BF5-8AC4-0B98CD7A9734";
paths = (
{
closed = 1;
nodes = (
"383 0 LINE",
"383 1650 LINE",
"179 1650 LINE",
"179 0 LINE"
);
}
);
width = 562;
},
{
anchors = (
{
name = bottom;
position = "{267, 0}";
},
{
name = ogonek;
position = "{340, 0}";
},
{
name = top;
position = "{267, 1650}";
}
);
hints = (
{
place = "{194, 146}";
type = Stem;
},
{
horizontal = 1;
place = "{0, 21}";
target = up;
type = BottomGhost;
},
{
horizontal = 1;
place = "{1650, -20}";
target = down;
type = TopGhost;
}
);
layerId = "E2387CF4-B2A9-41B6-8C2D-75095F558AA2";
paths = (
{
closed = 1;
nodes = (
"340 0 LINE",
"340 1650 LINE",
"194 1650 LINE",
"194 0 LINE"
);
}
);
width = 534;
},
{
anchors = (
{
name = bottom;
position = "{262, 0}";
},
{
name = ogonek;
position = "{315, 0}";
},
{
name = top;
position = "{262, 1650}";
}
);
hints = (
{
place = "{209, 106}";
type = Stem;
},
{
horizontal = 1;
place = "{0, 21}";
target = up;
type = BottomGhost;
},
{
horizontal = 1;
place = "{1650, -20}";
target = down;
type = TopGhost;
}
);
layerId = "409FFF8B-6B5D-4160-8B77-EB84ED6DCA06";
paths = (
{
closed = 1;
nodes = (
"315 0 LINE",
"315 1650 LINE",
"209 1650 LINE",
"209 0 LINE"
);
}
);
width = 524;
},
{
anchors = (
{
name = bottom;
position = "{258, 0}";
},
{
name = ogonek;
position = "{296, 0}";
},
{
name = top;
position = "{258, 1650}";
}
);
hints = (
{
place = "{220, 76}";
type = Stem;
},
{
horizontal = 1;
place = "{0, 21}";
target = up;
type = BottomGhost;
},
{
horizontal = 1;
place = "{1650, -20}";
target = down;
type = TopGhost;
}
);
layerId = "429DE6A8-FC85-4834-8ADF-6599F7754E15";
paths = (
{
closed = 1;
nodes = (
"296 0 LINE",
"296 1650 LINE",
"220 1650 LINE",
"220 0 LINE"
);
}
);
width = 516;
},
{
anchors = (
{
name = bottom;
position = "{259, 0}";
},
{
name = ogonek;
position = "{287, 0}";
},
{
name = top;
position = "{259, 1650}";
}
);
hints = (
{
place = "{231, 56}";
type = Stem;
},
{
horizontal = 1;
place = "{0, 21}";
target = up;
type = BottomGhost;
},
{
horizontal = 1;
place = "{1650, -20}";
target = down;
type = TopGhost;
}
);
layerId = "F04A0BE8-B495-4823-90DC-0CCFE7794FD1";
paths = (
{
closed = 1;
nodes = (
"287 0 LINE",
"287 1650 LINE",
"231 1650 LINE",
"231 0 LINE"
);
}
);
width = 518;
}
);
leftKerningGroup = _I;
rightKerningGroup = _A1;
unicode = 0049;
},
{
color = 5;
glyphname = J;
layers = (
{
anchors = (
{
name = bottom;
position = "{424, -32}";
},
{
name = top;
position = "{701, 1650}";
}
);
layerId = "2DB08DF0-02C3-44C2-9E0E-FF1701E70813";
paths = (
{
closed = 1;
nodes = (
"724 -32 OFFCURVE",
"910 148 OFFCURVE",
"910 464 CURVE SMOOTH",
"910 1650 LINE",
"470 1650 LINE",
"470 574 LINE SMOOTH",
"470 462 OFFCURVE",
"419 390 OFFCURVE",
"340 390 CURVE SMOOTH",
"295 390 OFFCURVE",
"232 413 OFFCURVE",
"172 472 CURVE",
"-68 208 LINE",
"73 41 OFFCURVE",
"220 -32 OFFCURVE",
"417 -32 CURVE SMOOTH"
);
}
);
width = 985;
},
{
anchors = (
{
name = bottom;
position = "{409, -26}";
},
{
name = top;
position = "{652, 1650}";
}
);
layerId = "42521C20-2C1E-4F42-AF24-FEB99F0BB27F";
paths = (
{
closed = 1;
nodes = (
"709 -32 OFFCURVE",
"895 148 OFFCURVE",
"895 464 CURVE SMOOTH",
"895 1650 LINE",
"519 1650 LINE",
"519 559 LINE SMOOTH",
"519 416 OFFCURVE",
"451 328 OFFCURVE",
"339 328 CURVE SMOOTH",
"279 328 OFFCURVE",
"208 355 OFFCURVE",
"142 421 CURVE",
"-64 193 LINE",
"72 37 OFFCURVE",
"213 -32 OFFCURVE",
"402 -32 CURVE SMOOTH"
);
}
);
width = 994;
},
{
anchors = (
{
name = bottom;
position = "{373, -20}";
},
{
name = top;
position = "{581, 1650}";
}
);
layerId = "EC0A9815-809D-40B1-AF02-15154ADC149F";
paths = (
{
closed = 1;
nodes = (
"675 -32 OFFCURVE",
"860 149 OFFCURVE",
"860 464 CURVE SMOOTH",
"860 1650 LINE",
"552 1650 LINE",
"552 544 LINE SMOOTH",
"552 368 OFFCURVE",
"465 263 OFFCURVE",
"318 263 CURVE SMOOTH",
"242 263 OFFCURVE",
"163 294 OFFCURVE",
"91 367 CURVE",
"-78 178 LINE",
"51 32 OFFCURVE",
"187 -32 OFFCURVE",
"367 -32 CURVE SMOOTH"
);
}
);
width = 970;
},
{
anchors = (
{
name = bottom;
position = "{381, -16}";
},
{
name = top;
position = "{558, 1650}";
}
);
layerId = "078079F8-88FE-4B64-A845-190032768C39";
paths = (
{
closed = 1;
nodes = (
"684 -32 OFFCURVE",
"868 150 OFFCURVE",
"868 464 CURVE SMOOTH",
"868 1650 LINE",
"618 1650 LINE",
"618 531 LINE SMOOTH",
"618 327 OFFCURVE",
"515 207 OFFCURVE",
"339 207 CURVE SMOOTH",
"248 207 OFFCURVE",
"162 242 OFFCURVE",
"85 321 CURVE",
"-53 164 LINE",
"71 28 OFFCURVE",
"203 -32 OFFCURVE",
"375 -32 CURVE SMOOTH"
);
}
);
width = 1013;
},
{
anchors = (
{
name = bottom;
position = "{383, -12}";
},
{
name = top;
position = "{536, 1650}";
}
);
layerId = "BD6EF84D-666D-4BF5-8AC4-0B98CD7A9734";
paths = (
{
closed = 1;
nodes = (
"685 -32 OFFCURVE",
"869 151 OFFCURVE",
"869 464 CURVE SMOOTH",
"869 1650 LINE",
"665 1650 LINE",
"665 521 LINE SMOOTH",
"665 295 OFFCURVE",
"549 163 OFFCURVE",
"350 163 CURVE SMOOTH",
"248 163 OFFCURVE",
"156 201 OFFCURVE",
"75 285 CURVE",
"-38 154 LINE",
"82 25 OFFCURVE",
"210 -32 OFFCURVE",
"376 -32 CURVE SMOOTH"
);
}
);
width = 1030;
},
{
anchors = (
{
name = bottom;
position = "{344, -7}";
},
{
name = top;
position = "{466, 1650}";
}
);
layerId = "E2387CF4-B2A9-41B6-8C2D-75095F558AA2";
paths = (
{
closed = 1;
nodes = (
"647 -32 OFFCURVE",
"830 152 OFFCURVE",
"830 464 CURVE SMOOTH",
"830 1650 LINE",
"684 1650 LINE",
"684 508 LINE SMOOTH",
"684 254 OFFCURVE",
"552 107 OFFCURVE",
"324 107 CURVE SMOOTH",
"208 107 OFFCURVE",
"108 149 OFFCURVE",
"23 239 CURVE",
"-59 141 LINE",
"55 21 OFFCURVE",
"178 -32 OFFCURVE",
"338 -32 CURVE SMOOTH"
);
}
);
width = 1005;
},
{
anchors = (
{
name = bottom;
position = "{347, -4}";
},
{
name = top;
position = "{448, 1650}";
}
);
layerId = "409FFF8B-6B5D-4160-8B77-EB84ED6DCA06";
paths = (
{
closed = 1;
nodes = (
"650 -32 OFFCURVE",
"833 152 OFFCURVE",
"833 464 CURVE SMOOTH",
"833 1650 LINE",
"727 1650 LINE",
"727 499 LINE SMOOTH",
"727 225 OFFCURVE",
"584 68 OFFCURVE",
"336 68 CURVE SMOOTH",
"210 68 OFFCURVE",
"105 113 OFFCURVE",
"17 207 CURVE",
"-44 131 LINE",
"67 18 OFFCURVE",
"186 -32 OFFCURVE",
"341 -32 CURVE SMOOTH"
);
}
);
width = 1024;
},
{
anchors = (
{
name = bottom;
position = "{334, -2}";
},
{
name = top;
position = "{420, 1650}";
}
);
layerId = "429DE6A8-FC85-4834-8ADF-6599F7754E15";
paths = (
{
closed = 1;
nodes = (
"637 -32 OFFCURVE",
"820 152 OFFCURVE",
"820 464 CURVE SMOOTH",
"820 1650 LINE",
"744 1650 LINE",
"744 492 LINE SMOOTH",
"744 204 OFFCURVE",
"593 39 OFFCURVE",
"330 39 CURVE SMOOTH",
"196 39 OFFCURVE",
"88 86 OFFCURVE",
"-3 183 CURVE",
"-48 124 LINE",
"61 16 OFFCURVE",
"177 -32 OFFCURVE",
"328 -32 CURVE SMOOTH"
);
}
);
width = 1040;
},
{
anchors = (
{
name = bottom;
position = "{339, 0}";
},
{
name = top;
position = "{414, 1650}";
}
);
layerId = "F04A0BE8-B495-4823-90DC-0CCFE7794FD1";
paths = (
{
closed = 1;
nodes = (
"642 -32 OFFCURVE",
"825 153 OFFCURVE",
"825 464 CURVE SMOOTH",
"825 1650 LINE",
"769 1650 LINE",
"769 488 LINE SMOOTH",
"769 190 OFFCURVE",
"613 20 OFFCURVE",
"339 20 CURVE SMOOTH",
"201 20 OFFCURVE",
"90 68 OFFCURVE",
"-3 167 CURVE",
"-37 120 LINE",
"70 15 OFFCURVE",
"185 -32 OFFCURVE",
"333 -32 CURVE SMOOTH"
);
}
);
width = 1056;
}
);
rightKerningGroup = _A1;
unicode = 004A;
},
{
color = 5;
glyphname = K;
layers = (
{
anchors = (
{
name = bottom;
position = "{766, 0}";
},
{
name = top;
position = "{766, 1650}";
}
);
hints = (
{
place = "{97, 440}";
type = Stem;
},
{
horizontal = 1;
place = "{1650, -20}";
target = down;
type = TopGhost;
},
{
horizontal = 1;
place = "{0, 21}";
target = up;
type = BottomGhost;
}
);
layerId = "2DB08DF0-02C3-44C2-9E0E-FF1701E70813";
paths = (
{
closed = 1;
nodes = (
"537 0 LINE",
"537 662 LINE",
"1089 0 LINE",
"1695 0 LINE",
"945 872 LINE",
"1585 1650 LINE",
"1051 1650 LINE",
"537 1008 LINE",
"537 1650 LINE",
"97 1650 LINE",
"97 0 LINE"
);
}
);
width = 1638;
},
{
anchors = (
{
name = bottom;
position = "{749, 0}";
},
{
name = top;
position = "{749, 1650}";
}
);
hints = (
{
place = "{119, 376}";
type = Stem;
},
{
horizontal = 1;
place = "{1650, -20}";
target = down;
type = TopGhost;
},
{
horizontal = 1;
place = "{0, 21}";
target = up;
type = BottomGhost;
}
);
layerId = "42521C20-2C1E-4F42-AF24-FEB99F0BB27F";
paths = (
{
closed = 1;
nodes = (
"495 0 LINE",
"495 681 LINE",
"1103 0 LINE",
"1621 0 LINE",
"841 863 LINE",
"1517 1650 LINE",
"1059 1650 LINE",
"495 983 LINE",
"495 1650 LINE",
"119 1650 LINE",
"119 0 LINE"
);
}
);
width = 1570;
},
{
anchors = (
{
name = bottom;
position = "{756, 0}";
},
{
name = top;
position = "{756, 1650}";
}
);
hints = (
{
place = "{167, 308}";
type = Stem;
},
{
horizontal = 1;
place = "{1650, -20}";
target = down;
type = TopGhost;
},
{
horizontal = 1;
place = "{0, 21}";
target = up;
type = BottomGhost;
}
);
layerId = "EC0A9815-809D-40B1-AF02-15154ADC149F";
paths = (
{
closed = 1;
nodes = (
"475 0 LINE",
"475 702 LINE",
"1142 0 LINE",
"1568 0 LINE",
"756 854 LINE",
"1470 1650 LINE",
"1093 1650 LINE",
"475 956 LINE",
"475 1650 LINE",
"167 1650 LINE",
"167 0 LINE"
);
}
);
width = 1509;
},
{
anchors = (
{
name = bottom;
position = "{716, 0}";
},
{
name = top;
position = "{717, 1650}";
}
);
hints = (
{
place = "{163, 250}";
type = Stem;
},
{
horizontal = 1;
place = "{1650, -20}";
target = down;
type = TopGhost;
},
{
horizontal = 1;
place = "{0, 21}";
target = up;
type = BottomGhost;
}
);
layerId = "078079F8-88FE-4B64-A845-190032768C39";
paths = (
{
closed = 1;
nodes = (
"413 0 LINE",
"413 719 LINE",
"1130 0 LINE",
"1477 0 LINE",
"638 846 LINE",
"1385 1650 LINE",
"1076 1650 LINE",
"413 933 LINE",
"413 1650 LINE",
"163 1650 LINE",
"163 0 LINE"
);
}
);
width = 1448;
},
{
anchors = (
{
name = bottom;
position = "{703, 0}";
},
{
name = top;
position = "{704, 1650}";
}
);
hints = (
{
place = "{178, 204}";
type = Stem;
},
{
horizontal = 1;
place = "{1650, -20}";
target = down;
type = TopGhost;
},
{
horizontal = 1;
place = "{0, 21}";
target = up;
type = BottomGhost;
}
);
layerId = "BD6EF84D-666D-4BF5-8AC4-0B98CD7A9734";
paths = (
{
closed = 1;
nodes = (
"382 0 LINE",
"382 733 LINE",
"1139 0 LINE",
"1423 0 LINE",
"563 840 LINE",
"1335 1650 LINE",
"1081 1650 LINE",
"382 915 LINE",
"382 1650 LINE",
"178 1650 LINE",
"178 0 LINE"
);
}
);
width = 1410;
},
{
anchors = (
{
name = bottom;
position = "{684, 0}";
},
{
name = top;
position = "{684, 1650}";
}
);
hints = (
{
place = "{194, 146}";
type = Stem;
},
{
horizontal = 1;
place = "{1650, -20}";
target = down;
type = TopGhost;
},
{
horizontal = 1;
place = "{0, 21}";
target = up;
type = BottomGhost;
}
);
layerId = "E2387CF4-B2A9-41B6-8C2D-75095F558AA2";
paths = (
{
closed = 1;
nodes = (
"340 0 LINE",
"340 751 LINE",
"1148 0 LINE",
"1353 0 LINE",
"466 832 LINE",
"1270 1650 LINE",
"1085 1650 LINE",
"340 892 LINE",
"340 1650 LINE",
"194 1650 LINE",
"194 0 LINE"
);
}
);
width = 1326;
},
{
anchors = (
{
name = bottom;
position = "{675, 0}";
},
{
name = top;
position = "{676, 1650}";
}
);
hints = (
{
place = "{209, 106}";
type = Stem;
},
{
horizontal = 1;
place = "{1650, -20}";
target = down;
type = TopGhost;
},
{
horizontal = 1;
place = "{0, 21}";
target = up;
type = BottomGhost;
}
);
layerId = "409FFF8B-6B5D-4160-8B77-EB84ED6DCA06";
paths = (
{
closed = 1;
nodes = (
"315 0 LINE",
"315 763 LINE",
"1158 0 LINE",
"1309 0 LINE",
"403 827 LINE",
"1229 1650 LINE",
"1091 1650 LINE",
"315 876 LINE",
"315 1650 LINE",
"209 1650 LINE",
"209 0 LINE"
);
}
);
width = 1298;
},
{
anchors = (
{
name = bottom;
position = "{670, 0}";
},
{
name = top;
position = "{670, 1650}";
}
);
hints = (
{
place = "{220, 76}";
type = Stem;
},
{
horizontal = 1;
place = "{1650, -20}";
target = down;
type = TopGhost;
},
{
horizontal = 1;
place = "{0, 21}";
target = up;
type = BottomGhost;
}
);
layerId = "429DE6A8-FC85-4834-8ADF-6599F7754E15";
paths = (
{
closed = 1;
nodes = (
"296 0 LINE",
"296 772 LINE",
"1165 0 LINE",
"1275 0 LINE",
"355 823 LINE",
"1198 1650 LINE",
"1096 1650 LINE",
"296 864 LINE",
"296 1650 LINE",
"220 1650 LINE",
"220 0 LINE"
);
}
);
width = 1262;
},
{
anchors = (
{
name = bottom;
position = "{669, 0}";
},
{
name = top;
position = "{669, 1650}";
}
);
hints = (
{
place = "{231, 56}";
type = Stem;
},
{
horizontal = 1;
place = "{1650, -20}";
target = down;
type = TopGhost;
},
{
horizontal = 1;
place = "{0, 21}";
target = up;
type = BottomGhost;
}
);
layerId = "F04A0BE8-B495-4823-90DC-0CCFE7794FD1";
paths = (
{
closed = 1;
nodes = (
"287 0 LINE",
"287 778 LINE",
"1173 0 LINE",
"1256 0 LINE",
"327 820 LINE",
"1181 1650 LINE",
"1103 1650 LINE",
"287 856 LINE",
"287 1650 LINE",
"231 1650 LINE",
"231 0 LINE"
);
}
);
width = 1254;
}
);
rightKerningGroup = _A1;
unicode = 004B;
},
{
color = 5;
glyphname = L;
leftMetricsKey = H;
rightMetricsKey = "=A+60";
layers = (
{
anchors = (
{
name = bottom;
position = "{623, 0}";
},
{
name = center;
position = "{480, 825}";
},
{
name = top;
position = "{492, 1650}";
},
{
name = topright;
position = "{1038, 1650}";
}
);
hints = (
{
horizontal = 1;
place = "{0, 386}";
type = Stem;
},
{
place = "{97, 440}";
type = Stem;
},
{
horizontal = 1;
place = "{1650, -20}";
target = down;
type = TopGhost;
}
);
layerId = "2DB08DF0-02C3-44C2-9E0E-FF1701E70813";
paths = (
{
closed = 1;
nodes = (
"1069 0 LINE",
"1069 386 LINE",
"537 386 LINE",
"537 1650 LINE",
"97 1650 LINE",
"97 0 LINE"
);
}
);
width = 1061;
},
{
anchors = (
{
name = bottom;
position = "{612, 0}";
},
{
name = center;
position = "{493, 825}";
},
{
name = top;
position = "{500, 1650}";
},
{
name = topright;
position = "{1058, 1650}";
}
);
hints = (
{
horizontal = 1;
place = "{0, 330}";
type = Stem;
},
{
place = "{119, 376}";
type = Stem;
},
{
horizontal = 1;
place = "{1650, -20}";
target = down;
type = TopGhost;
}
);
layerId = "42521C20-2C1E-4F42-AF24-FEB99F0BB27F";
paths = (
{
closed = 1;
nodes = (
"1062 0 LINE",
"1062 330 LINE",
"495 330 LINE",
"495 1650 LINE",
"119 1650 LINE",
"119 0 LINE"
);
}
);
width = 1065;
},
{
anchors = (
{
name = bottom;
position = "{601, 0}";
},
{
name = center;
position = "{508, 825}";
},
{
name = top;
position = "{511, 1650}";
},
{
name = topright;
position = "{1081, 1650}";
}
);
hints = (
{
horizontal = 1;
place = "{0, 271}";
type = Stem;
},
{
place = "{143, 308}";
type = Stem;
},
{
horizontal = 1;
place = "{1650, -20}";
target = down;
type = TopGhost;
}
);
layerId = "EC0A9815-809D-40B1-AF02-15154ADC149F";
paths = (
{
closed = 1;
nodes = (
"1056 0 LINE",
"1056 271 LINE",
"451 271 LINE",
"451 1650 LINE",
"143 1650 LINE",
"143 0 LINE"
);
}
);
width = 1071;
},
{
anchors = (
{
name = bottom;
position = "{592, 0}";
},
{
name = center;
position = "{520, 825}";
},
{
name = top;
position = "{519, 1650}";
},
{
name = topright;
position = "{1099, 1650}";
}
);
hints = (
{
horizontal = 1;
place = "{0, 220}";
type = Stem;
},
{
place = "{163, 250}";
type = Stem;
},
{
horizontal = 1;
place = "{1650, -20}";
target = down;
type = TopGhost;
}
);
layerId = "078079F8-88FE-4B64-A845-190032768C39";
paths = (
{
closed = 1;
nodes = (
"1050 0 LINE",
"1050 220 LINE",
"413 220 LINE",
"413 1650 LINE",
"163 1650 LINE",
"163 0 LINE"
);
}
);
width = 1075;
},
{
anchors = (
{
name = bottom;
position = "{584, 0}";
},
{
name = center;
position = "{529, 825}";
},
{
name = top;
position = "{525, 1650}";
},
{
name = topright;
position = "{1114, 1650}";
}
);
hints = (
{
horizontal = 1;
place = "{0, 180}";
type = Stem;
},
{
place = "{179, 204}";
type = Stem;
},
{
horizontal = 1;
place = "{1650, -20}";
target = down;
type = TopGhost;
}
);
layerId = "BD6EF84D-666D-4BF5-8AC4-0B98CD7A9734";
paths = (
{
closed = 1;
nodes = (
"1045 0 LINE",
"1045 180 LINE",
"383 180 LINE",
"383 1650 LINE",
"179 1650 LINE",
"179 0 LINE"
);
}
);
width = 1085;
},
{
anchors = (
{
name = bottom;
position = "{569, 0}";
},
{
name = center;
position = "{535, 825}";
},
{
name = top;
position = "{501, 1650}";
},
{
name = topright;
position = "{1127, 1650}";
}
);
hints = (
{
horizontal = 1;
place = "{0, 129}";
type = Stem;
},
{
place = "{194, 146}";
type = Stem;
},
{
horizontal = 1;
place = "{1650, -20}";
target = down;
type = TopGhost;
}
);
layerId = "E2387CF4-B2A9-41B6-8C2D-75095F558AA2";
paths = (
{
closed = 1;
nodes = (
"1034 0 LINE",
"1034 129 LINE",
"340 129 LINE",
"340 1650 LINE",
"194 1650 LINE",
"194 0 LINE"
);
}
);
width = 1078;
},
{
anchors = (
{
name = bottom;
position = "{564, 0}";
},
{
name = center;
position = "{545, 825}";
},
{
name = top;
position = "{490, 1650}";
},
{
name = topright;
position = "{1141, 1650}";
}
);
hints = (
{
horizontal = 1;
place = "{0, 94}";
type = Stem;
},
{
place = "{209, 106}";
type = Stem;
},
{
horizontal = 1;
place = "{1650, -20}";
target = down;
type = TopGhost;
}
);
layerId = "409FFF8B-6B5D-4160-8B77-EB84ED6DCA06";
paths = (
{
closed = 1;
nodes = (
"1031 0 LINE",
"1031 94 LINE",
"315 94 LINE",
"315 1650 LINE",
"209 1650 LINE",
"209 0 LINE"
);
}
);
width = 1080;
},
{
anchors = (
{
name = bottom;
position = "{560, 0}";
},
{
name = center;
position = "{553, 825}";
},
{
name = top;
position = "{483, 1650}";
},
{
name = topright;
position = "{1152, 1650}";
}
);
hints = (
{
horizontal = 1;
place = "{0, 68}";
type = Stem;
},
{
place = "{220, 76}";
type = Stem;
},
{
horizontal = 1;
place = "{1650, -20}";
target = down;
type = TopGhost;
}
);
layerId = "429DE6A8-FC85-4834-8ADF-6599F7754E15";
paths = (
{
closed = 1;
nodes = (
"1029 0 LINE",
"1029 68 LINE",
"296 68 LINE",
"296 1650 LINE",
"220 1650 LINE",
"220 0 LINE"
);
}
);
width = 1084;
},
{
anchors = (
{
name = bottom;
position = "{561, 0}";
},
{
name = center;
position = "{561, 825}";
},
{
name = top;
position = "{481, 1650}";
},
{
name = topright;
position = "{1163, 1650}";
}
);
hints = (
{
horizontal = 1;
place = "{0, 50}";
type = Stem;
},
{
place = "{231, 56}";
type = Stem;
},
{
horizontal = 1;
place = "{1650, -20}";
target = down;
type = TopGhost;
}
);
layerId = "F04A0BE8-B495-4823-90DC-0CCFE7794FD1";
paths = (
{
closed = 1;
nodes = (
"1031 0 LINE",
"1031 50 LINE",
"287 50 LINE",
"287 1650 LINE",
"231 1650 LINE",
"231 0 LINE"
);
}
);
width = 1091;
}
);
rightKerningGroup = _L;
unicode = 004C;
},
{
color = 3;
glyphname = Lslash;
leftMetricsKey = L;
rightMetricsKey = L;
layers = (
{
components = (
{
name = L;
transform = "{1, 0, 0, 1, 168, 0}";
alignment = -1;
}
);
layerId = "2DB08DF0-02C3-44C2-9E0E-FF1701E70813";
paths = (
{
closed = 1;
nodes = (
"893 1104 LINE",
"893 1462 LINE",
"97 836 LINE",
"97 478 LINE"
);
}
);
width = 1229;
},
{
components = (
{
name = L;
transform = "{1, 0, 0, 1, 160, 0}";
alignment = -1;
}
);
layerId = "42521C20-2C1E-4F42-AF24-FEB99F0BB27F";
paths = (
{
closed = 1;
nodes = (
"856 1079 LINE",
"856 1385 LINE",
"119 806 LINE",
"119 500 LINE"
);
}
);
width = 1225;
},
{
components = (
{
name = L;
transform = "{1, 0, 0, 1, 149, 0}";
alignment = -1;
}
);
layerId = "EC0A9815-809D-40B1-AF02-15154ADC149F";
paths = (
{
closed = 1;
nodes = (
"817 1053 LINE",
"817 1304 LINE",
"143 774 LINE",
"143 523 LINE"
);
}
);
width = 1220;
},
{
components = (
{
name = L;
transform = "{1, 0, 0, 1, 140, 0}";
alignment = -1;
}
);
layerId = "078079F8-88FE-4B64-A845-190032768C39";
paths = (
{
closed = 1;
nodes = (
"783 1031 LINE",
"783 1234 LINE",
"163 747 LINE",
"163 543 LINE"
);
}
);
width = 1215;
},
{
components = (
{
name = L;
transform = "{1, 0, 0, 1, 130, 0}";
alignment = -1;
}
);
layerId = "BD6EF84D-666D-4BF5-8AC4-0B98CD7A9734";
paths = (
{
closed = 1;
nodes = (
"756 1013 LINE",
"756 1179 LINE",
"179 725 LINE",
"179 559 LINE"
);
}
);
width = 1215;
},
{
components = (
{
name = L;
transform = "{1, 0, 0, 1, 119, 0}";
alignment = -1;
}
);
layerId = "E2387CF4-B2A9-41B6-8C2D-75095F558AA2";
paths = (
{
closed = 1;
nodes = (
"717 991 LINE",
"717 1110 LINE",
"194 698 LINE",
"194 579 LINE"
);
}
);
width = 1197;
},
{
components = (
{
name = L;
transform = "{1, 0, 0, 1, 109, 0}";
alignment = -1;
}
);
layerId = "409FFF8B-6B5D-4160-8B77-EB84ED6DCA06";
paths = (
{
closed = 1;
nodes = (
"695 975 LINE",
"695 1062 LINE",
"209 679 LINE",
"209 593 LINE"
);
}
);
width = 1189;
},
{
components = (
{
name = L;
transform = "{1, 0, 0, 1, 100, 0}";
alignment = -1;
}
);
layerId = "429DE6A8-FC85-4834-8ADF-6599F7754E15";
paths = (
{
closed = 1;
nodes = (
"678 964 LINE",
"678 1026 LINE",
"220 665 LINE",
"220 603 LINE"
);
}
);
width = 1184;
},
{
components = (
{
name = L;
transform = "{1, 0, 0, 1, 90, 0}";
alignment = -1;
}
);
layerId = "F04A0BE8-B495-4823-90DC-0CCFE7794FD1";
paths = (
{
closed = 1;
nodes = (
"671 956 LINE",
"671 1002 LINE",
"231 656 LINE",
"231 610 LINE"
);
}
);
width = 1181;
}
);
rightKerningGroup = _L;
unicode = 0141;
},
{
color = 5;
glyphname = M;
layers = (
{
anchors = (
{
name = bottom;
position = "{945, 0}";
},
{
name = top;
position = "{945, 1650}";
}
);
hints = (
{
horizontal = 1;
place = "{0, 21}";
target = up;
type = BottomGhost;
},
{
horizontal = 1;
place = "{1650, -20}";
target = down;
type = TopGhost;
}
);
layerId = "2DB08DF0-02C3-44C2-9E0E-FF1701E70813";
paths = (
{
closed = 1;
nodes = (
"455 0 LINE",
"503 866 LINE",
"815 0 LINE",
"1075 0 LINE",
"1387 866 LINE",
"1435 0 LINE",
"1875 0 LINE",
"1745 1650 LINE",
"1277 1650 LINE",
"945 794 LINE",
"613 1650 LINE",
"145 1650 LINE",
"15 0 LINE"
);
}
);
width = 1890;
},
{
anchors = (
{
name = bottom;
position = "{946, 22}";
},
{
name = top;
position = "{946, 1650}";
}
);
hints = (
{
horizontal = 1;
place = "{0, 21}";
target = up;
type = BottomGhost;
},
{
horizontal = 1;
place = "{1650, -20}";
target = down;
type = TopGhost;
}
);
layerId = "42521C20-2C1E-4F42-AF24-FEB99F0BB27F";
paths = (
{
closed = 1;
nodes = (
"407 0 LINE",
"485 978 LINE",
"833 22 LINE",
"1059 22 LINE",
"1407 978 LINE",
"1485 0 LINE",
"1861 0 LINE",
"1712 1650 LINE",
"1312 1650 LINE",
"946 698 LINE",
"580 1650 LINE",
"180 1650 LINE",
"31 0 LINE"
);
}
);
width = 1892;
},
{
anchors = (
{
name = bottom;
position = "{946, 46}";
},
{
name = top;
position = "{946, 1650}";
}
);
hints = (
{
horizontal = 1;
place = "{0, 21}";
target = up;
type = BottomGhost;
},
{
horizontal = 1;
place = "{1650, -20}";
target = down;
type = TopGhost;
}
);
layerId = "EC0A9815-809D-40B1-AF02-15154ADC149F";
paths = (
{
closed = 1;
nodes = (
"356 0 LINE",
"466 1096 LINE",
"851 46 LINE",
"1042 46 LINE",
"1427 1096 LINE",
"1537 0 LINE",
"1845 0 LINE",
"1677 1650 LINE",
"1349 1650 LINE",
"946 595 LINE",
"545 1650 LINE",
"217 1650 LINE",
"48 0 LINE"
);
}
);
width = 1893;
},
{
anchors = (
{
name = bottom;
position = "{948, 66}";
},
{
name = top;
position = "{948, 1650}";
}
);
hints = (
{
horizontal = 1;
place = "{0, 21}";
target = up;
type = BottomGhost;
},
{
horizontal = 1;
place = "{1650, -20}";
target = down;
type = TopGhost;
}
);
layerId = "078079F8-88FE-4B64-A845-190032768C39";
paths = (
{
closed = 1;
nodes = (
"314 0 LINE",
"451 1197 LINE",
"868 66 LINE",
"1029 66 LINE",
"1446 1197 LINE",
"1583 0 LINE",
"1833 0 LINE",
"1648 1650 LINE",
"1381 1650 LINE",
"948 507 LINE",
"516 1650 LINE",
"249 1650 LINE",
"64 0 LINE"
);
}
);
width = 1897;
},
{
anchors = (
{
name = bottom;
position = "{953, 82}";
},
{
name = top;
position = "{953, 1650}";
}
);
hints = (
{
horizontal = 1;
place = "{0, 21}";
target = up;
type = BottomGhost;
},
{
horizontal = 1;
place = "{1650, -20}";
target = down;
type = TopGhost;
}
);
layerId = "BD6EF84D-666D-4BF5-8AC4-0B98CD7A9734";
paths = (
{
closed = 1;
nodes = (
"284 0 LINE",
"442 1277 LINE",
"885 82 LINE",
"1022 82 LINE",
"1464 1277 LINE",
"1623 0 LINE",
"1827 0 LINE",
"1628 1650 LINE",
"1410 1650 LINE",
"953 438 LINE",
"496 1650 LINE",
"278 1650 LINE",
"80 0 LINE"
);
}
);
width = 1907;
},
{
anchors = (
{
name = bottom;
position = "{946, 102}";
},
{
name = top;
position = "{946, 1650}";
}
);
hints = (
{
horizontal = 1;
place = "{0, 21}";
target = up;
type = BottomGhost;
},
{
horizontal = 1;
place = "{1650, -20}";
target = down;
type = TopGhost;
}
);
layerId = "E2387CF4-B2A9-41B6-8C2D-75095F558AA2";
paths = (
{
closed = 1;
nodes = (
"233 0 LINE",
"418 1378 LINE",
"893 102 LINE",
"1000 102 LINE",
"1474 1378 LINE",
"1660 0 LINE",
"1806 0 LINE",
"1590 1650 LINE",
"1434 1650 LINE",
"946 350 LINE",
"458 1650 LINE",
"302 1650 LINE",
"87 0 LINE"
);
}
);
width = 1893;
},
{
anchors = (
{
name = bottom;
position = "{945, 116}";
},
{
name = top;
position = "{945, 1650}";
}
);
hints = (
{
horizontal = 1;
place = "{0, 21}";
target = up;
type = BottomGhost;
},
{
horizontal = 1;
place = "{1650, -20}";
target = down;
type = TopGhost;
}
);
layerId = "409FFF8B-6B5D-4160-8B77-EB84ED6DCA06";
paths = (
{
closed = 1;
nodes = (
"201 0 LINE",
"405 1447 LINE",
"902 116 LINE",
"988 116 LINE",
"1485 1447 LINE",
"1689 0 LINE",
"1795 0 LINE",
"1568 1650 LINE",
"1454 1650 LINE",
"945 289 LINE",
"436 1650 LINE",
"322 1650 LINE",
"95 0 LINE"
);
}
);
width = 1892;
},
{
anchors = (
{
name = bottom;
position = "{943, 127}";
},
{
name = top;
position = "{943, 1650}";
}
);
hints = (
{
horizontal = 1;
place = "{0, 21}";
type = Stem;
},
{
horizontal = 1;
place = "{1650, -20}";
target = down;
type = TopGhost;
}
);
layerId = "429DE6A8-FC85-4834-8ADF-6599F7754E15";
paths = (
{
closed = 1;
nodes = (
"176 0 LINE",
"394 1499 LINE",
"907 127 LINE",
"979 127 LINE",
"1492 1499 LINE",
"1710 0 LINE",
"1786 0 LINE",
"1550 1650 LINE",
"1469 1650 LINE",
"943 244 LINE",
"417 1650 LINE",
"336 1650 LINE",
"100 0 LINE"
);
}
);
width = 1886;
},
{
anchors = (
{
name = bottom;
position = "{949, 134}";
},
{
name = top;
position = "{949, 1650}";
}
);
hints = (
{
horizontal = 1;
place = "{0, 21}";
target = up;
type = BottomGhost;
},
{
horizontal = 1;
place = "{1650, -20}";
target = down;
type = TopGhost;
}
);
layerId = "F04A0BE8-B495-4823-90DC-0CCFE7794FD1";
paths = (
{
closed = 1;
nodes = (
"167 0 LINE",
"395 1534 LINE",
"919 134 LINE",
"979 134 LINE",
"1503 1534 LINE",
"1731 0 LINE",
"1787 0 LINE",
"1545 1650 LINE",
"1485 1650 LINE",
"949 214 LINE",
"413 1650 LINE",
"353 1650 LINE",
"111 0 LINE"
);
}
);
width = 1898;
}
);
rightKerningGroup = _A1;
unicode = 004D;
},
{
color = 5;
glyphname = N;
leftMetricsKey = H;
rightMetricsKey = H;
layers = (
{
anchors = (
{
name = bottom;
position = "{833, 0}";
},
{
name = top;
position = "{833, 1650}";
}
);
hints = (
{
place = "{97, 440}";
type = Stem;
},
{
place = "{1129, 440}";
type = Stem;
},
{
horizontal = 1;
place = "{0, 21}";
target = up;
type = BottomGhost;
},
{
horizontal = 1;
place = "{1650, -20}";
target = down;
type = TopGhost;
}
);
layerId = "2DB08DF0-02C3-44C2-9E0E-FF1701E70813";
paths = (
{
closed = 1;
nodes = (
"537 0 LINE",
"537 920 LINE",
"1129 0 LINE",
"1569 0 LINE",
"1569 1650 LINE",
"1129 1650 LINE",
"1129 730 LINE",
"537 1650 LINE",
"97 1650 LINE",
"97 0 LINE"
);
}
);
width = 1666;
},
{
anchors = (
{
name = bottom;
position = "{824, 0}";
},
{
name = top;
position = "{824, 1650}";
}
);
hints = (
{
place = "{119, 376}";
type = Stem;
},
{
place = "{1153, 376}";
type = Stem;
},
{
horizontal = 1;
place = "{0, 21}";
target = up;
type = BottomGhost;
},
{
horizontal = 1;
place = "{1650, -20}";
target = down;
type = TopGhost;
}
);
layerId = "42521C20-2C1E-4F42-AF24-FEB99F0BB27F";
paths = (
{
closed = 1;
nodes = (
"495 0 LINE",
"495 1024 LINE",
"1153 0 LINE",
"1529 0 LINE",
"1529 1650 LINE",
"1153 1650 LINE",
"1153 625 LINE",
"495 1650 LINE",
"119 1650 LINE",
"119 0 LINE"
);
}
);
width = 1648;
},
{
anchors = (
{
name = bottom;
position = "{814, 0}";
},
{
name = top;
position = "{814, 1650}";
}
);
hints = (
{
place = "{143, 308}";
type = Stem;
},
{
place = "{1177, 308}";
type = Stem;
},
{
horizontal = 1;
place = "{0, 21}";
target = up;
type = BottomGhost;
},
{
horizontal = 1;
place = "{1650, -20}";
target = down;
type = TopGhost;
}
);
layerId = "EC0A9815-809D-40B1-AF02-15154ADC149F";
paths = (
{
closed = 1;
nodes = (
"451 0 LINE",
"451 1135 LINE",
"1177 0 LINE",
"1485 0 LINE",
"1485 1650 LINE",
"1177 1650 LINE",
"1177 514 LINE",
"451 1650 LINE",
"143 1650 LINE",
"143 0 LINE"
);
}
);
width = 1628;
},
{
anchors = (
{
name = bottom;
position = "{806, 0}";
},
{
name = top;
position = "{806, 1650}";
}
);
hints = (
{
place = "{163, 250}";
type = Stem;
},
{
place = "{1199, 250}";
type = Stem;
},
{
horizontal = 1;
place = "{0, 21}";
target = up;
type = BottomGhost;
},
{
horizontal = 1;
place = "{1650, -20}";
target = down;
type = TopGhost;
}
);
layerId = "078079F8-88FE-4B64-A845-190032768C39";
paths = (
{
closed = 1;
nodes = (
"413 0 LINE",
"413 1230 LINE",
"1199 0 LINE",
"1449 0 LINE",
"1449 1650 LINE",
"1199 1650 LINE",
"1199 419 LINE",
"413 1650 LINE",
"163 1650 LINE",
"163 0 LINE"
);
}
);
width = 1612;
},
{
anchors = (
{
name = bottom;
position = "{800, 0}";
},
{
name = top;
position = "{800, 1650}";
}
);
hints = (
{
place = "{179, 204}";
type = Stem;
},
{
place = "{1217, 204}";
type = Stem;
},
{
horizontal = 1;
place = "{0, 21}";
target = up;
type = BottomGhost;
},
{
horizontal = 1;
place = "{1650, -20}";
target = down;
type = TopGhost;
}
);
layerId = "BD6EF84D-666D-4BF5-8AC4-0B98CD7A9734";
paths = (
{
closed = 1;
nodes = (
"383 0 LINE",
"383 1305 LINE",
"1217 0 LINE",
"1421 0 LINE",
"1421 1650 LINE",
"1217 1650 LINE",
"1217 344 LINE",
"383 1650 LINE",
"179 1650 LINE",
"179 0 LINE"
);
}
);
width = 1600;
},
{
anchors = (
{
name = bottom;
position = "{786, 0}";
},
{
name = top;
position = "{786, 1650}";
}
);
hints = (
{
place = "{194, 146}";
type = Stem;
},
{
place = "{1232, 146}";
type = Stem;
},
{
horizontal = 1;
place = "{0, 21}";
target = up;
type = BottomGhost;
},
{
horizontal = 1;
place = "{1650, -20}";
target = down;
type = TopGhost;
}
);
layerId = "E2387CF4-B2A9-41B6-8C2D-75095F558AA2";
paths = (
{
closed = 1;
nodes = (
"340 0 LINE",
"340 1399 LINE",
"1232 0 LINE",
"1378 0 LINE",
"1378 1650 LINE",
"1232 1650 LINE",
"1232 249 LINE",
"340 1650 LINE",
"194 1650 LINE",
"194 0 LINE"
);
}
);
width = 1572;
},
{
anchors = (
{
name = bottom;
position = "{782, 0}";
},
{
name = top;
position = "{782, 1650}";
}
);
hints = (
{
place = "{209, 106}";
type = Stem;
},
{
place = "{1249, 106}";
type = Stem;
},
{
horizontal = 1;
place = "{0, 21}";
target = up;
type = BottomGhost;
},
{
horizontal = 1;
place = "{1650, -20}";
target = down;
type = TopGhost;
}
);
layerId = "409FFF8B-6B5D-4160-8B77-EB84ED6DCA06";
paths = (
{
closed = 1;
nodes = (
"315 0 LINE",
"315 1464 LINE",
"1249 0 LINE",
"1355 0 LINE",
"1355 1650 LINE",
"1249 1650 LINE",
"1249 184 LINE",
"315 1650 LINE",
"209 1650 LINE",
"209 0 LINE"
);
}
);
width = 1564;
},
{
anchors = (
{
name = bottom;
position = "{778, 0}";
},
{
name = top;
position = "{778, 1650}";
}
);
hints = (
{
place = "{220, 76}";
type = Stem;
},
{
place = "{1260, 76}";
type = Stem;
},
{
horizontal = 1;
place = "{0, 21}";
target = up;
type = BottomGhost;
},
{
horizontal = 1;
place = "{1650, -20}";
target = down;
type = TopGhost;
}
);
layerId = "429DE6A8-FC85-4834-8ADF-6599F7754E15";
paths = (
{
closed = 1;
nodes = (
"296 0 LINE",
"296 1513 LINE",
"1260 0 LINE",
"1336 0 LINE",
"1336 1650 LINE",
"1260 1650 LINE",
"1260 135 LINE",
"296 1650 LINE",
"220 1650 LINE",
"220 0 LINE"
);
}
);
width = 1556;
},
{
anchors = (
{
name = bottom;
position = "{779, 0}";
},
{
name = top;
position = "{779, 1650}";
}
);
hints = (
{
place = "{231, 56}";
type = Stem;
},
{
place = "{1271, 56}";
type = Stem;
},
{
horizontal = 1;
place = "{0, 21}";
target = up;
type = BottomGhost;
},
{
horizontal = 1;
place = "{1650, -20}";
target = down;
type = TopGhost;
}
);
layerId = "F04A0BE8-B495-4823-90DC-0CCFE7794FD1";
paths = (
{
closed = 1;
nodes = (
"287 0 LINE",
"287 1546 LINE",
"1271 0 LINE",
"1327 0 LINE",
"1327 1650 LINE",
"1271 1650 LINE",
"1271 102 LINE",
"287 1650 LINE",
"231 1650 LINE",
"231 0 LINE"
);
}
);
width = 1558;
}
);
rightKerningGroup = _A1;
unicode = 004E;
},
{
color = 4;
glyphname = Eng;
leftMetricsKey = N;
rightMetricsKey = J;
layers = (
{
layerId = "2DB08DF0-02C3-44C2-9E0E-FF1701E70813";
paths = (
{
closed = 1;
nodes = (
"97 1650 LINE",
"97 0 LINE",
"537 0 LINE",
"537 920 LINE",
"1129 0 LINE",
"1129 -1 LINE",
"1129 -57 OFFCURVE",
"1078 -129 OFFCURVE",
"999 -129 CURVE SMOOTH",
"954 -129 OFFCURVE",
"891 -106 OFFCURVE",
"831 -47 CURVE",
"591 -311 LINE",
"732 -478 OFFCURVE",
"879 -551 OFFCURVE",
"1076 -551 CURVE SMOOTH",
"1383 -551 OFFCURVE",
"1569 -371 OFFCURVE",
"1569 -55 CURVE SMOOTH",
"1569 1650 LINE",
"1129 1650 LINE",
"1129 730 LINE",
"537 1650 LINE"
);
}
);
width = 1644;
},
{
layerId = "42521C20-2C1E-4F42-AF24-FEB99F0BB27F";
paths = (
{
closed = 1;
nodes = (
"119 1650 LINE",
"119 0 LINE",
"495 0 LINE",
"495 1024 LINE",
"1153 0 LINE",
"1153 -6 LINE SMOOTH",
"1153 -101 OFFCURVE",
"1086 -191 OFFCURVE",
"973 -191 CURVE SMOOTH",
"914 -191 OFFCURVE",
"842 -165 OFFCURVE",
"776 -98 CURVE",
"570 -326 LINE",
"705 -483 OFFCURVE",
"846 -551 OFFCURVE",
"1036 -551 CURVE SMOOTH",
"1343 -551 OFFCURVE",
"1529 -371 OFFCURVE",
"1529 -55 CURVE SMOOTH",
"1529 1650 LINE",
"1153 1650 LINE",
"1153 625 LINE",
"495 1650 LINE"
);
}
);
width = 1628;
},
{
layerId = "EC0A9815-809D-40B1-AF02-15154ADC149F";
paths = (
{
closed = 1;
nodes = (
"143 1650 LINE",
"143 0 LINE",
"451 0 LINE",
"451 1135 LINE",
"1178 0 LINE",
"1178 -11 LINE SMOOTH",
"1178 -148 OFFCURVE",
"1093 -256 OFFCURVE",
"944 -256 CURVE SMOOTH",
"871 -256 OFFCURVE",
"790 -227 OFFCURVE",
"717 -152 CURVE",
"547 -341 LINE",
"675 -488 OFFCURVE",
"810 -551 OFFCURVE",
"993 -551 CURVE SMOOTH",
"1301 -551 OFFCURVE",
"1486 -370 OFFCURVE",
"1486 -55 CURVE SMOOTH",
"1486 1650 LINE",
"1178 1650 LINE",
"1178 514 LINE",
"451 1650 LINE"
);
}
);
width = 1596;
},
{
layerId = "078079F8-88FE-4B64-A845-190032768C39";
paths = (
{
closed = 1;
nodes = (
"163 1650 LINE",
"163 0 LINE",
"413 0 LINE",
"413 1230 LINE",
"1199 0 LINE",
"1199 -15 LINE SMOOTH",
"1199 -188 OFFCURVE",
"1099 -312 OFFCURVE",
"920 -312 CURVE SMOOTH",
"834 -312 OFFCURVE",
"745 -280 OFFCURVE",
"666 -198 CURVE",
"528 -354 LINE",
"650 -492 OFFCURVE",
"780 -551 OFFCURVE",
"956 -551 CURVE SMOOTH",
"1264 -551 OFFCURVE",
"1449 -369 OFFCURVE",
"1449 -55 CURVE SMOOTH",
"1449 1650 LINE",
"1199 1650 LINE",
"1199 419 LINE",
"413 1650 LINE"
);
}
);
width = 1594;
},
{
layerId = "BD6EF84D-666D-4BF5-8AC4-0B98CD7A9734";
paths = (
{
closed = 1;
nodes = (
"179 1650 LINE",
"179 0 LINE",
"383 0 LINE",
"383 1305 LINE",
"1216 0 LINE",
"1216 -19 LINE SMOOTH",
"1216 -220 OFFCURVE",
"1104 -356 OFFCURVE",
"901 -356 CURVE SMOOTH",
"805 -356 OFFCURVE",
"710 -322 OFFCURVE",
"626 -234 CURVE",
"513 -365 LINE",
"630 -495 OFFCURVE",
"756 -551 OFFCURVE",
"927 -551 CURVE SMOOTH",
"1235 -551 OFFCURVE",
"1420 -368 OFFCURVE",
"1420 -55 CURVE SMOOTH",
"1420 1650 LINE",
"1216 1650 LINE",
"1216 344 LINE",
"383 1650 LINE"
);
}
);
width = 1581;
},
{
layerId = "E2387CF4-B2A9-41B6-8C2D-75095F558AA2";
paths = (
{
closed = 1;
nodes = (
"194 1650 LINE",
"194 0 LINE",
"340 0 LINE",
"340 1399 LINE",
"1232 0 LINE",
"1232 -24 LINE SMOOTH",
"1232 -260 OFFCURVE",
"1105 -412 OFFCURVE",
"872 -412 CURVE SMOOTH",
"763 -412 OFFCURVE",
"660 -375 OFFCURVE",
"571 -280 CURVE",
"488 -378 LINE",
"600 -499 OFFCURVE",
"721 -551 OFFCURVE",
"886 -551 CURVE SMOOTH",
"1194 -551 OFFCURVE",
"1378 -367 OFFCURVE",
"1378 -55 CURVE SMOOTH",
"1378 1650 LINE",
"1232 1650 LINE",
"1232 249 LINE",
"340 1650 LINE"
);
}
);
width = 1553;
},
{
layerId = "409FFF8B-6B5D-4160-8B77-EB84ED6DCA06";
paths = (
{
closed = 1;
nodes = (
"209 1650 LINE",
"209 0 LINE",
"315 0 LINE",
"315 1464 LINE",
"1248 0 LINE",
"1248 -27 LINE SMOOTH",
"1248 -287 OFFCURVE",
"1111 -451 OFFCURVE",
"857 -451 CURVE SMOOTH",
"739 -451 OFFCURVE",
"631 -412 OFFCURVE",
"537 -312 CURVE",
"476 -387 LINE",
"584 -502 OFFCURVE",
"701 -551 OFFCURVE",
"862 -551 CURVE SMOOTH",
"1170 -551 OFFCURVE",
"1354 -366 OFFCURVE",
"1354 -55 CURVE SMOOTH",
"1354 1650 LINE",
"1248 1650 LINE",
"1248 184 LINE",
"315 1650 LINE"
);
}
);
width = 1545;
},
{
layerId = "429DE6A8-FC85-4834-8ADF-6599F7754E15";
paths = (
{
closed = 1;
nodes = (
"220 1650 LINE",
"220 0 LINE",
"296 0 LINE",
"296 1513 LINE",
"1259 0 LINE",
"1259 -29 LINE SMOOTH",
"1259 -308 OFFCURVE",
"1115 -480 OFFCURVE",
"845 -480 CURVE SMOOTH",
"720 -480 OFFCURVE",
"609 -440 OFFCURVE",
"512 -336 CURVE",
"467 -394 LINE",
"571 -504 OFFCURVE",
"686 -551 OFFCURVE",
"843 -551 CURVE SMOOTH",
"1152 -551 OFFCURVE",
"1335 -366 OFFCURVE",
"1335 -55 CURVE SMOOTH",
"1335 1650 LINE",
"1259 1650 LINE",
"1259 135 LINE",
"296 1650 LINE"
);
}
);
width = 1555;
},
{
layerId = "F04A0BE8-B495-4823-90DC-0CCFE7794FD1";
paths = (
{
closed = 1;
nodes = (
"231 1650 LINE",
"231 0 LINE",
"287 0 LINE",
"287 1546 LINE",
"1271 0 LINE",
"1271 -31 LINE SMOOTH",
"1271 -322 OFFCURVE",
"1122 -499 OFFCURVE",
"841 -499 CURVE SMOOTH",
"712 -499 OFFCURVE",
"598 -458 OFFCURVE",
"499 -352 CURVE",
"465 -399 LINE",
"567 -505 OFFCURVE",
"680 -551 OFFCURVE",
"835 -551 CURVE SMOOTH",
"1144 -551 OFFCURVE",
"1327 -366 OFFCURVE",
"1327 -55 CURVE SMOOTH",
"1327 1650 LINE",
"1271 1650 LINE",
"1271 102 LINE",
"287 1650 LINE"
);
}
);
width = 1558;
}
);
unicode = 014A;
},
{
color = 5;
glyphname = O;
layers = (
{
anchors = (
{
name = bottom;
position = "{856, 0}";
},
{
name = center;
position = "{856, 824}";
},
{
name = ogonek;
position = "{968, 0}";
},
{
name = top;
position = "{856, 1650}";
},
{
name = topleft;
position = "{-18, 1650}";
},
{
name = topright;
position = "{1730, 1650}";
}
);
hints = (
{
horizontal = 1;
place = "{-32, 424}";
type = Stem;
},
{
horizontal = 1;
place = "{1256, 424}";
type = Stem;
},
{
place = "{24, 474}";
type = Stem;
},
{
place = "{1214, 474}";
type = Stem;
}
);
layerId = "2DB08DF0-02C3-44C2-9E0E-FF1701E70813";
paths = (
{
closed = 1;
nodes = (
"1317 -32 OFFCURVE",
"1688 349 OFFCURVE",
"1688 824 CURVE SMOOTH",
"1688 1299 OFFCURVE",
"1317 1680 OFFCURVE",
"856 1680 CURVE SMOOTH",
"395 1680 OFFCURVE",
"24 1299 OFFCURVE",
"24 824 CURVE SMOOTH",
"24 349 OFFCURVE",
"395 -32 OFFCURVE",
"856 -32 CURVE SMOOTH"
);
},
{
closed = 1;
nodes = (
"639 392 OFFCURVE",
"498 563 OFFCURVE",
"498 824 CURVE SMOOTH",
"498 1085 OFFCURVE",
"639 1256 OFFCURVE",
"856 1256 CURVE SMOOTH",
"1073 1256 OFFCURVE",
"1214 1085 OFFCURVE",
"1214 824 CURVE SMOOTH",
"1214 563 OFFCURVE",
"1073 392 OFFCURVE",
"856 392 CURVE SMOOTH"
);
}
);
width = 1712;
},
{
anchors = (
{
name = bottom;
position = "{876, 0}";
},
{
name = center;
position = "{876, 824}";
},
{
name = ogonek;
position = "{963, 0}";
},
{
name = top;
position = "{876, 1650}";
},
{
name = topleft;
position = "{-22, 1650}";
},
{
name = topright;
position = "{1772, 1650}";
}
);
hints = (
{
horizontal = 1;
place = "{-32, 362}";
type = Stem;
},
{
horizontal = 1;
place = "{1318, 362}";
type = Stem;
},
{
place = "{44, 405}";
type = Stem;
},
{
place = "{1303, 405}";
type = Stem;
}
);
layerId = "42521C20-2C1E-4F42-AF24-FEB99F0BB27F";
paths = (
{
closed = 1;
nodes = (
"1338 -32 OFFCURVE",
"1708 349 OFFCURVE",
"1708 824 CURVE SMOOTH",
"1708 1299 OFFCURVE",
"1338 1680 OFFCURVE",
"876 1680 CURVE SMOOTH",
"414 1680 OFFCURVE",
"44 1299 OFFCURVE",
"44 824 CURVE SMOOTH",
"44 349 OFFCURVE",
"414 -32 OFFCURVE",
"876 -32 CURVE SMOOTH"
);
},
{
closed = 1;
nodes = (
"623 330 OFFCURVE",
"449 532 OFFCURVE",
"449 824 CURVE SMOOTH",
"449 1116 OFFCURVE",
"623 1318 OFFCURVE",
"876 1318 CURVE SMOOTH",
"1129 1318 OFFCURVE",
"1303 1116 OFFCURVE",
"1303 824 CURVE SMOOTH",
"1303 532 OFFCURVE",
"1129 330 OFFCURVE",
"876 330 CURVE SMOOTH"
);
}
);
width = 1752;
},
{
anchors = (
{
name = bottom;
position = "{898, 0}";
},
{
name = center;
position = "{898, 824}";
},
{
name = ogonek;
position = "{959, 0}";
},
{
name = top;
position = "{898, 1650}";
},
{
name = topleft;
position = "{-25, 1650}";
},
{
name = topright;
position = "{1820, 1650}";
}
);
hints = (
{
horizontal = 1;
place = "{-32, 297}";
type = Stem;
},
{
horizontal = 1;
place = "{1383, 297}";
type = Stem;
},
{
place = "{66, 332}";
type = Stem;
},
{
place = "{1398, 332}";
type = Stem;
}
);
layerId = "EC0A9815-809D-40B1-AF02-15154ADC149F";
paths = (
{
closed = 1;
nodes = (
"1360 -32 OFFCURVE",
"1730 348 OFFCURVE",
"1730 824 CURVE SMOOTH",
"1730 1300 OFFCURVE",
"1360 1680 OFFCURVE",
"898 1680 CURVE SMOOTH",
"436 1680 OFFCURVE",
"66 1300 OFFCURVE",
"66 824 CURVE SMOOTH",
"66 348 OFFCURVE",
"436 -32 OFFCURVE",
"898 -32 CURVE SMOOTH"
);
},
{
closed = 1;
nodes = (
"608 265 OFFCURVE",
"398 500 OFFCURVE",
"398 824 CURVE SMOOTH",
"398 1148 OFFCURVE",
"608 1383 OFFCURVE",
"898 1383 CURVE SMOOTH",
"1188 1383 OFFCURVE",
"1398 1148 OFFCURVE",
"1398 824 CURVE SMOOTH",
"1398 500 OFFCURVE",
"1188 265 OFFCURVE",
"898 265 CURVE SMOOTH"
);
}
);
width = 1796;
},
{
anchors = (
{
name = bottom;
position = "{918, 0}";
},
{
name = center;
position = "{918, 824}";
},
{
name = ogonek;
position = "{956, 0}";
},
{
name = top;
position = "{918, 1650}";
},
{
name = topleft;
position = "{-26, 1650}";
},
{
name = topright;
position = "{1861, 1650}";
}
);
hints = (
{
horizontal = 1;
place = "{-32, 241}";
type = Stem;
},
{
horizontal = 1;
place = "{1439, 241}";
type = Stem;
},
{
place = "{86, 270}";
type = Stem;
},
{
place = "{1481, 269}";
type = Stem;
}
);
layerId = "078079F8-88FE-4B64-A845-190032768C39";
paths = (
{
closed = 1;
nodes = (
"1380 -32 OFFCURVE",
"1750 348 OFFCURVE",
"1750 824 CURVE SMOOTH",
"1750 1300 OFFCURVE",
"1380 1680 OFFCURVE",
"918 1680 CURVE SMOOTH",
"456 1680 OFFCURVE",
"86 1300 OFFCURVE",
"86 824 CURVE SMOOTH",
"86 348 OFFCURVE",
"456 -32 OFFCURVE",
"918 -32 CURVE SMOOTH"
);
},
{
closed = 1;
nodes = (
"596 209 OFFCURVE",
"356 473 OFFCURVE",
"356 824 CURVE SMOOTH",
"356 1175 OFFCURVE",
"596 1439 OFFCURVE",
"918 1439 CURVE SMOOTH",
"1240 1439 OFFCURVE",
"1481 1175 OFFCURVE",
"1481 824 CURVE SMOOTH",
"1481 473 OFFCURVE",
"1240 209 OFFCURVE",
"918 209 CURVE SMOOTH"
);
}
);
width = 1836;
},
{
anchors = (
{
name = bottom;
position = "{934, 0}";
},
{
name = center;
position = "{934, 824}";
},
{
name = ogonek;
position = "{954, 0}";
},
{
name = top;
position = "{934, 1650}";
},
{
name = topleft;
position = "{-27, 1650}";
},
{
name = topright;
position = "{1894, 1650}";
}
);
hints = (
{
horizontal = 1;
place = "{-32, 197}";
type = Stem;
},
{
horizontal = 1;
place = "{1483, 197}";
type = Stem;
},
{
place = "{102, 220}";
type = Stem;
},
{
place = "{1546, 220}";
type = Stem;
}
);
layerId = "BD6EF84D-666D-4BF5-8AC4-0B98CD7A9734";
paths = (
{
closed = 1;
nodes = (
"1396 -32 OFFCURVE",
"1766 348 OFFCURVE",
"1766 824 CURVE SMOOTH",
"1766 1300 OFFCURVE",
"1396 1680 OFFCURVE",
"934 1680 CURVE SMOOTH",
"472 1680 OFFCURVE",
"102 1300 OFFCURVE",
"102 824 CURVE SMOOTH",
"102 348 OFFCURVE",
"472 -32 OFFCURVE",
"934 -32 CURVE SMOOTH"
);
},
{
closed = 1;
nodes = (
"587 165 OFFCURVE",
"322 451 OFFCURVE",
"322 824 CURVE SMOOTH",
"322 1197 OFFCURVE",
"587 1483 OFFCURVE",
"934 1483 CURVE SMOOTH",
"1281 1483 OFFCURVE",
"1546 1197 OFFCURVE",
"1546 824 CURVE SMOOTH",
"1546 451 OFFCURVE",
"1281 165 OFFCURVE",
"934 165 CURVE SMOOTH"
);
}
);
width = 1868;
},
{
anchors = (
{
name = bottom;
position = "{945, 0}";
},
{
name = center;
position = "{945, 824}";
},
{
name = ogonek;
position = "{970, 0}";
},
{
name = top;
position = "{945, 1650}";
},
{
name = topleft;
position = "{-37, 1650}";
},
{
name = topright;
position = "{1927, 1650}";
}
);
hints = (
{
horizontal = 1;
place = "{-32, 141}";
type = Stem;
},
{
horizontal = 1;
place = "{1539, 141}";
type = Stem;
},
{
place = "{113, 158}";
type = Stem;
},
{
place = "{1620, 157}";
type = Stem;
}
);
layerId = "E2387CF4-B2A9-41B6-8C2D-75095F558AA2";
paths = (
{
closed = 1;
nodes = (
"1407 -32 OFFCURVE",
"1777 348 OFFCURVE",
"1777 824 CURVE SMOOTH",
"1777 1300 OFFCURVE",
"1407 1680 OFFCURVE",
"945 1680 CURVE SMOOTH",
"483 1680 OFFCURVE",
"113 1300 OFFCURVE",
"113 824 CURVE SMOOTH",
"113 348 OFFCURVE",
"483 -32 OFFCURVE",
"945 -32 CURVE SMOOTH"
);
},
{
closed = 1;
nodes = (
"566 109 OFFCURVE",
"271 423 OFFCURVE",
"271 824 CURVE SMOOTH",
"271 1225 OFFCURVE",
"566 1539 OFFCURVE",
"945 1539 CURVE SMOOTH",
"1324 1539 OFFCURVE",
"1620 1225 OFFCURVE",
"1620 824 CURVE SMOOTH",
"1620 423 OFFCURVE",
"1324 109 OFFCURVE",
"945 109 CURVE SMOOTH"
);
}
);
width = 1890;
},
{
anchors = (
{
name = bottom;
position = "{960, 0}";
},
{
name = center;
position = "{960, 824}";
},
{
name = ogonek;
position = "{988, 0}";
},
{
name = top;
position = "{960, 1650}";
},
{
name = topleft;
position = "{-38, 1650}";
},
{
name = topright;
position = "{1956, 1650}";
}
);
hints = (
{
horizontal = 1;
place = "{-32, 102}";
type = Stem;
},
{
horizontal = 1;
place = "{1578, 102}";
type = Stem;
},
{
place = "{128, 114}";
type = Stem;
},
{
place = "{1678, 114}";
type = Stem;
}
);
layerId = "409FFF8B-6B5D-4160-8B77-EB84ED6DCA06";
paths = (
{
closed = 1;
nodes = (
"1422 -32 OFFCURVE",
"1792 348 OFFCURVE",
"1792 824 CURVE SMOOTH",
"1792 1300 OFFCURVE",
"1422 1680 OFFCURVE",
"960 1680 CURVE SMOOTH",
"498 1680 OFFCURVE",
"128 1300 OFFCURVE",
"128 824 CURVE SMOOTH",
"128 348 OFFCURVE",
"498 -32 OFFCURVE",
"960 -32 CURVE SMOOTH"
);
},
{
closed = 1;
nodes = (
"559 70 OFFCURVE",
"242 404 OFFCURVE",
"242 824 CURVE SMOOTH",
"242 1244 OFFCURVE",
"559 1578 OFFCURVE",
"960 1578 CURVE SMOOTH",
"1361 1578 OFFCURVE",
"1678 1244 OFFCURVE",
"1678 824 CURVE SMOOTH",
"1678 404 OFFCURVE",
"1361 70 OFFCURVE",
"960 70 CURVE SMOOTH"
);
}
);
width = 1920;
},
{
anchors = (
{
name = bottom;
position = "{968, 0}";
},
{
name = center;
position = "{968, 825}";
},
{
name = ogonek;
position = "{998, 0}";
},
{
name = top;
position = "{968, 1650}";
},
{
name = topleft;
position = "{-40, 1650}";
},
{
name = topright;
position = "{1975, 1650}";
}
);
hints = (
{
horizontal = 1;
place = "{-32, 73}";
type = Stem;
},
{
horizontal = 1;
place = "{1607, 73}";
type = Stem;
},
{
place = "{136, 81}";
type = Stem;
},
{
place = "{1718, 82}";
type = Stem;
}
);
layerId = "429DE6A8-FC85-4834-8ADF-6599F7754E15";
paths = (
{
closed = 1;
nodes = (
"1430 -32 OFFCURVE",
"1800 348 OFFCURVE",
"1800 824 CURVE SMOOTH",
"1800 1300 OFFCURVE",
"1430 1680 OFFCURVE",
"968 1680 CURVE SMOOTH",
"506 1680 OFFCURVE",
"136 1300 OFFCURVE",
"136 824 CURVE SMOOTH",
"136 348 OFFCURVE",
"506 -32 OFFCURVE",
"968 -32 CURVE SMOOTH"
);
},
{
closed = 1;
nodes = (
"551 41 OFFCURVE",
"217 390 OFFCURVE",
"217 824 CURVE SMOOTH",
"217 1258 OFFCURVE",
"551 1607 OFFCURVE",
"968 1607 CURVE SMOOTH",
"1385 1607 OFFCURVE",
"1718 1258 OFFCURVE",
"1718 824 CURVE SMOOTH",
"1718 390 OFFCURVE",
"1385 41 OFFCURVE",
"968 41 CURVE SMOOTH"
);
}
);
width = 1936;
},
{
anchors = (
{
name = bottom;
position = "{979, 0}";
},
{
name = center;
position = "{979, 825}";
},
{
name = ogonek;
position = "{1011, 0}";
},
{
name = top;
position = "{979, 1650}";
},
{
name = topleft;
position = "{-36, 1650}";
},
{
name = topright;
position = "{1994, 1650}";
}
);
hints = (
{
horizontal = 1;
place = "{-32, 54}";
type = Stem;
},
{
horizontal = 1;
place = "{1626, 54}";
type = Stem;
},
{
place = "{147, 60}";
type = Stem;
},
{
place = "{1751, 60}";
type = Stem;
}
);
layerId = "F04A0BE8-B495-4823-90DC-0CCFE7794FD1";
paths = (
{
closed = 1;
nodes = (
"1441 -32 OFFCURVE",
"1811 348 OFFCURVE",
"1811 824 CURVE SMOOTH",
"1811 1300 OFFCURVE",
"1441 1680 OFFCURVE",
"979 1680 CURVE SMOOTH",
"517 1680 OFFCURVE",
"147 1300 OFFCURVE",
"147 824 CURVE SMOOTH",
"147 348 OFFCURVE",
"517 -32 OFFCURVE",
"979 -32 CURVE SMOOTH"
);
},
{
closed = 1;
nodes = (
"551 22 OFFCURVE",
"207 380 OFFCURVE",
"207 824 CURVE SMOOTH",
"207 1268 OFFCURVE",
"551 1626 OFFCURVE",
"979 1626 CURVE SMOOTH",
"1407 1626 OFFCURVE",
"1751 1268 OFFCURVE",
"1751 824 CURVE SMOOTH",
"1751 380 OFFCURVE",
"1407 22 OFFCURVE",
"979 22 CURVE SMOOTH"
);
}
);
width = 1958;
}
);
leftKerningGroup = _O;
rightKerningGroup = _O;
unicode = 004F;
},
{
color = 4;
glyphname = Oslash;
leftMetricsKey = O;
rightMetricsKey = O;
layers = (
{
anchors = (
{
name = bottom;
position = "{924, 0}";
},
{
name = center;
position = "{894, 825}";
},
{
name = ogonek;
position = "{1006, 10}";
},
{
name = top;
position = "{894, 1680}";
},
{
name = topleft;
position = "{20, 1650}";
},
{
name = topright;
position = "{1768, 1650}";
}
);
components = (
{
name = O;
alignment = -1;
}
);
layerId = "2DB08DF0-02C3-44C2-9E0E-FF1701E70813";
paths = (
{
closed = 1;
nodes = (
"1658 1518 LINE",
"1398 1718 LINE",
"144 155 LINE",
"404 -35 LINE"
);
}
);
width = 1712;
},
{
anchors = (
{
name = bottom;
position = "{890, 0}";
},
{
name = center;
position = "{865, 825}";
},
{
name = ogonek;
position = "{964, 9}";
},
{
name = top;
position = "{865, 1675}";
},
{
name = topleft;
position = "{-33, 1650}";
},
{
name = topright;
position = "{1762, 1650}";
}
);
components = (
{
name = O;
alignment = -1;
}
);
layerId = "42521C20-2C1E-4F42-AF24-FEB99F0BB27F";
paths = (
{
closed = 1;
nodes = (
"1663 1534 LINE",
"1438 1706 LINE",
"186 136 LINE",
"410 -28 LINE"
);
}
);
width = 1752;
},
{
anchors = (
{
name = bottom;
position = "{853, 0}";
},
{
name = center;
position = "{834, 825}";
},
{
name = ogonek;
position = "{918, 7}";
},
{
name = top;
position = "{834, 1670}";
},
{
name = topleft;
position = "{-89, 1650}";
},
{
name = topright;
position = "{1756, 1650}";
}
);
components = (
{
name = O;
alignment = -1;
}
);
layerId = "EC0A9815-809D-40B1-AF02-15154ADC149F";
paths = (
{
closed = 1;
nodes = (
"1667 1550 LINE",
"1480 1693 LINE",
"229 116 LINE",
"415 -20 LINE"
);
}
);
width = 1796;
},
{
anchors = (
{
name = bottom;
position = "{823, 0}";
},
{
name = center;
position = "{808, 825}";
},
{
name = ogonek;
position = "{880, 5}";
},
{
name = top;
position = "{808, 1665}";
},
{
name = topleft;
position = "{-136, 1650}";
},
{
name = topright;
position = "{1751, 1650}";
}
);
components = (
{
name = O;
alignment = -1;
}
);
layerId = "078079F8-88FE-4B64-A845-190032768C39";
paths = (
{
closed = 1;
nodes = (
"1671 1564 LINE",
"1517 1682 LINE",
"267 99 LINE",
"420 -14 LINE"
);
}
);
width = 1836;
},
{
components = (
{
name = O;
alignment = -1;
}
);
layerId = "BD6EF84D-666D-4BF5-8AC4-0B98CD7A9734";
paths = (
{
closed = 1;
nodes = (
"1690 1575 LINE",
"1562 1673 LINE",
"313 86 LINE",
"440 -9 LINE"
);
}
);
width = 1868;
},
{
anchors = (
{
name = bottom;
position = "{919, 0}";
},
{
name = center;
position = "{912, 825}";
},
{
name = ogonek;
position = "{962, 3}";
},
{
name = top;
position = "{912, 1657}";
},
{
name = topleft;
position = "{-71, 1650}";
},
{
name = topright;
position = "{1893, 1650}";
}
);
components = (
{
name = O;
alignment = -1;
}
);
layerId = "E2387CF4-B2A9-41B6-8C2D-75095F558AA2";
paths = (
{
closed = 1;
nodes = (
"1664 1589 LINE",
"1567 1662 LINE",
"320 69 LINE",
"414 -2 LINE"
);
}
);
width = 1890;
},
{
anchors = (
{
name = bottom;
position = "{993, 0}";
},
{
name = center;
position = "{989, 825}";
},
{
name = ogonek;
position = "{1031, 2}";
},
{
name = top;
position = "{989, 1654}";
},
{
name = topleft;
position = "{-8, 1650}";
},
{
name = topright;
position = "{1985, 1650}";
}
);
components = (
{
name = O;
alignment = -1;
}
);
layerId = "409FFF8B-6B5D-4160-8B77-EB84ED6DCA06";
paths = (
{
closed = 1;
nodes = (
"1682 1598 LINE",
"1607 1654 LINE",
"361 57 LINE",
"433 2 LINE"
);
}
);
width = 1920;
},
{
anchors = (
{
name = bottom;
position = "{1018, 0}";
},
{
name = center;
position = "{1017, 825}";
},
{
name = ogonek;
position = "{1053, 1}";
},
{
name = top;
position = "{1017, 1652}";
},
{
name = topleft;
position = "{9, 1650}";
},
{
name = topright;
position = "{2024, 1650}";
}
);
components = (
{
name = O;
alignment = -1;
}
);
layerId = "429DE6A8-FC85-4834-8ADF-6599F7754E15";
paths = (
{
closed = 1;
nodes = (
"1673 1605 LINE",
"1615 1648 LINE",
"369 48 LINE",
"424 6 LINE"
);
}
);
width = 1936;
},
{
anchors = (
{
name = bottom;
position = "{1035, 0}";
},
{
name = center;
position = "{1035, 825}";
},
{
name = ogonek;
position = "{1067, 0}";
},
{
name = top;
position = "{1035, 1650}";
},
{
name = topleft;
position = "{20, 1650}";
},
{
name = topright;
position = "{2050, 1650}";
}
);
components = (
{
name = O;
alignment = -1;
}
);
layerId = "F04A0BE8-B495-4823-90DC-0CCFE7794FD1";
paths = (
{
closed = 1;
nodes = (
"1685 1610 LINE",
"1639 1644 LINE",
"393 42 LINE",
"437 8 LINE"
);
}
);
width = 1958;
}
);
leftKerningGroup = _O;
rightKerningGroup = _O;
unicode = 00D8;
},
{
color = 4;
glyphname = OE;
leftMetricsKey = O;
rightMetricsKey = E;
layers = (
{
anchors = (
{
name = bottom;
position = "{1044, 0}";
},
{
name = top;
position = "{1044, 1650}";
}
);
hints = (
{
horizontal = 1;
place = "{1258, 392}";
type = Stem;
},
{
horizontal = 1;
place = "{0, 392}";
type = Stem;
},
{
horizontal = 1;
place = "{634, 386}";
type = Stem;
},
{
place = "{980, 440}";
type = Stem;
},
{
place = "{24, 474}";
type = Stem;
}
);
layerId = "2DB08DF0-02C3-44C2-9E0E-FF1701E70813";
paths = (
{
closed = 1;
nodes = (
"1956 0 LINE",
"1956 386 LINE",
"1420 386 LINE",
"1420 634 LINE",
"1932 634 LINE",
"1932 1020 LINE",
"1420 1020 LINE",
"1420 1264 LINE",
"1956 1264 LINE",
"1956 1650 LINE",
"1066 1650 LINE SMOOTH",
"363 1650 OFFCURVE",
"24 1312 OFFCURVE",
"24 825 CURVE SMOOTH",
"24 338 OFFCURVE",
"363 0 OFFCURVE",
"1066 0 CURVE SMOOTH"
);
},
{
closed = 1;
nodes = (
"980 392 LINE",
"677 392 OFFCURVE",
"498 550 OFFCURVE",
"498 825 CURVE SMOOTH",
"498 1100 OFFCURVE",
"677 1258 OFFCURVE",
"980 1258 CURVE"
);
}
);
width = 2040;
},
{
anchors = (
{
name = bottom;
position = "{1026, 0}";
},
{
name = top;
position = "{1026, 1650}";
}
);
hints = (
{
horizontal = 1;
place = "{1314, 336}";
type = Stem;
},
{
horizontal = 1;
place = "{0, 336}";
type = Stem;
},
{
horizontal = 1;
place = "{662, 330}";
type = Stem;
},
{
place = "{978, 376}";
type = Stem;
},
{
place = "{44, 405}";
type = Stem;
}
);
layerId = "42521C20-2C1E-4F42-AF24-FEB99F0BB27F";
paths = (
{
closed = 1;
nodes = (
"1922 0 LINE",
"1922 330 LINE",
"1354 330 LINE",
"1354 662 LINE",
"1898 662 LINE",
"1898 992 LINE",
"1354 992 LINE",
"1354 1320 LINE",
"1922 1320 LINE",
"1922 1650 LINE",
"1050 1650 LINE SMOOTH",
"387 1650 OFFCURVE",
"44 1308 OFFCURVE",
"44 825 CURVE SMOOTH",
"44 341 OFFCURVE",
"387 0 OFFCURVE",
"1050 0 CURVE SMOOTH"
);
},
{
closed = 1;
nodes = (
"978 336 LINE",
"652 336 OFFCURVE",
"449 523 OFFCURVE",
"449 825 CURVE SMOOTH",
"449 1127 OFFCURVE",
"655 1314 OFFCURVE",
"978 1314 CURVE"
);
}
);
width = 2017;
},
{
anchors = (
{
name = bottom;
position = "{1007, 0}";
},
{
name = top;
position = "{1007, 1650}";
}
);
hints = (
{
horizontal = 1;
place = "{1375, 275}";
type = Stem;
},
{
horizontal = 1;
place = "{0, 276}";
type = Stem;
},
{
horizontal = 1;
place = "{692, 271}";
type = Stem;
},
{
place = "{977, 308}";
type = Stem;
},
{
place = "{66, 332}";
type = Stem;
}
);
layerId = "EC0A9815-809D-40B1-AF02-15154ADC149F";
paths = (
{
closed = 1;
nodes = (
"1887 0 LINE",
"1887 271 LINE",
"1285 271 LINE",
"1285 692 LINE",
"1863 692 LINE",
"1863 963 LINE",
"1285 963 LINE",
"1285 1380 LINE",
"1887 1380 LINE",
"1887 1650 LINE",
"1034 1650 LINE SMOOTH",
"414 1650 OFFCURVE",
"66 1305 OFFCURVE",
"66 825 CURVE SMOOTH",
"66 345 OFFCURVE",
"414 0 OFFCURVE",
"1034 0 CURVE SMOOTH"
);
},
{
closed = 1;
nodes = (
"977 276 LINE",
"626 276 OFFCURVE",
"398 495 OFFCURVE",
"398 825 CURVE SMOOTH",
"398 1156 OFFCURVE",
"632 1375 OFFCURVE",
"977 1375 CURVE"
);
}
);
width = 1982;
},
{
anchors = (
{
name = bottom;
position = "{993, 0}";
},
{
name = top;
position = "{993, 1650}";
}
);
hints = (
{
horizontal = 1;
place = "{1427, 223}";
type = Stem;
},
{
horizontal = 1;
place = "{0, 224}";
type = Stem;
},
{
horizontal = 1;
place = "{717, 220}";
type = Stem;
},
{
place = "{978, 250}";
type = Stem;
},
{
place = "{86, 270}";
type = Stem;
}
);
layerId = "078079F8-88FE-4B64-A845-190032768C39";
paths = (
{
closed = 1;
nodes = (
"1859 0 LINE",
"1859 220 LINE",
"1228 220 LINE",
"1228 717 LINE",
"1835 717 LINE",
"1835 937 LINE",
"1228 937 LINE",
"1228 1431 LINE",
"1859 1431 LINE",
"1859 1650 LINE",
"1022 1650 LINE SMOOTH",
"438 1650 OFFCURVE",
"86 1302 OFFCURVE",
"86 825 CURVE SMOOTH",
"86 348 OFFCURVE",
"438 0 OFFCURVE",
"1022 0 CURVE SMOOTH"
);
},
{
closed = 1;
nodes = (
"978 224 LINE",
"606 224 OFFCURVE",
"356 470 OFFCURVE",
"356 825 CURVE SMOOTH",
"356 1180 OFFCURVE",
"614 1427 OFFCURVE",
"978 1427 CURVE"
);
}
);
width = 1965;
},
{
hints = (
{
horizontal = 1;
place = "{1467, 183}";
type = Stem;
},
{
horizontal = 1;
place = "{0, 183}";
type = Stem;
},
{
horizontal = 1;
place = "{737, 180}";
type = Stem;
},
{
place = "{978, 204}";
type = Stem;
},
{
place = "{102, 220}";
type = Stem;
}
);
layerId = "BD6EF84D-666D-4BF5-8AC4-0B98CD7A9734";
paths = (
{
closed = 1;
nodes = (
"1836 0 LINE",
"1836 180 LINE",
"1182 180 LINE",
"1182 737 LINE",
"1812 737 LINE",
"1812 917 LINE",
"1182 917 LINE",
"1182 1471 LINE",
"1836 1471 LINE",
"1836 1650 LINE",
"1012 1650 LINE SMOOTH",
"457 1650 OFFCURVE",
"102 1299 OFFCURVE",
"102 825 CURVE SMOOTH",
"102 351 OFFCURVE",
"457 0 OFFCURVE",
"1012 0 CURVE SMOOTH"
);
},
{
closed = 1;
nodes = (
"978 183 LINE",
"589 183 OFFCURVE",
"322 451 OFFCURVE",
"322 825 CURVE SMOOTH",
"322 1199 OFFCURVE",
"599 1467 OFFCURVE",
"978 1467 CURVE"
);
}
);
width = 1958;
},
{
anchors = (
{
name = bottom;
position = "{958, 0}";
},
{
name = top;
position = "{958, 1650}";
}
);
hints = (
{
horizontal = 1;
place = "{1519, 131}";
type = Stem;
},
{
horizontal = 1;
place = "{0, 131}";
type = Stem;
},
{
horizontal = 1;
place = "{762, 129}";
type = Stem;
},
{
place = "{969, 146}";
type = Stem;
},
{
place = "{113, 157}";
type = Stem;
}
);
layerId = "E2387CF4-B2A9-41B6-8C2D-75095F558AA2";
paths = (
{
closed = 1;
nodes = (
"1798 0 LINE",
"1798 129 LINE",
"1115 129 LINE",
"1115 762 LINE",
"1774 762 LINE",
"1774 891 LINE",
"1115 891 LINE",
"1115 1522 LINE",
"1798 1522 LINE",
"1798 1650 LINE",
"990 1650 LINE SMOOTH",
"467 1650 OFFCURVE",
"113 1296 OFFCURVE",
"113 825 CURVE SMOOTH",
"113 354 OFFCURVE",
"467 0 OFFCURVE",
"990 0 CURVE SMOOTH"
);
},
{
closed = 1;
nodes = (
"969 131 LINE",
"561 131 OFFCURVE",
"270 426 OFFCURVE",
"270 825 CURVE SMOOTH",
"270 1224 OFFCURVE",
"567 1519 OFFCURVE",
"969 1519 CURVE"
);
}
);
width = 1918;
},
{
anchors = (
{
name = bottom;
position = "{950, 0}";
},
{
name = top;
position = "{950, 1650}";
}
);
hints = (
{
horizontal = 1;
place = "{1555, 95}";
type = Stem;
},
{
horizontal = 1;
place = "{0, 96}";
type = Stem;
},
{
horizontal = 1;
place = "{780, 94}";
type = Stem;
},
{
place = "{970, 106}";
type = Stem;
},
{
place = "{128, 114}";
type = Stem;
}
);
layerId = "409FFF8B-6B5D-4160-8B77-EB84ED6DCA06";
paths = (
{
closed = 1;
nodes = (
"1779 0 LINE",
"1779 94 LINE",
"1076 94 LINE",
"1076 780 LINE",
"1755 780 LINE",
"1755 874 LINE",
"1076 874 LINE",
"1076 1557 LINE",
"1779 1557 LINE",
"1779 1650 LINE",
"982 1650 LINE SMOOTH",
"482 1650 OFFCURVE",
"128 1294 OFFCURVE",
"128 825 CURVE SMOOTH",
"128 356 OFFCURVE",
"482 0 OFFCURVE",
"982 0 CURVE SMOOTH"
);
},
{
closed = 1;
nodes = (
"970 96 LINE",
"550 96 OFFCURVE",
"242 410 OFFCURVE",
"242 825 CURVE SMOOTH",
"242 1241 OFFCURVE",
"553 1555 OFFCURVE",
"970 1555 CURVE"
);
}
);
width = 1915;
},
{
anchors = (
{
name = bottom;
position = "{940, 0}";
},
{
name = top;
position = "{940, 1650}";
}
);
hints = (
{
horizontal = 1;
place = "{1581, 69}";
type = Stem;
},
{
horizontal = 1;
place = "{0, 70}";
type = Stem;
},
{
horizontal = 1;
place = "{793, 68}";
type = Stem;
},
{
place = "{968, 76}";
type = Stem;
},
{
place = "{136, 82}";
type = Stem;
}
);
layerId = "429DE6A8-FC85-4834-8ADF-6599F7754E15";
paths = (
{
closed = 1;
nodes = (
"1762 0 LINE",
"1762 68 LINE",
"1044 68 LINE",
"1044 793 LINE",
"1738 793 LINE",
"1738 861 LINE",
"1044 861 LINE",
"1044 1583 LINE",
"1762 1583 LINE",
"1762 1650 LINE",
"973 1650 LINE SMOOTH",
"490 1650 OFFCURVE",
"136 1292 OFFCURVE",
"136 825 CURVE SMOOTH",
"136 358 OFFCURVE",
"490 0 OFFCURVE",
"973 0 CURVE SMOOTH"
);
},
{
closed = 1;
nodes = (
"968 70 LINE",
"538 70 OFFCURVE",
"218 397 OFFCURVE",
"218 825 CURVE SMOOTH",
"218 1254 OFFCURVE",
"539 1581 OFFCURVE",
"968 1581 CURVE"
);
}
);
width = 1898;
},
{
anchors = (
{
name = bottom;
position = "{940, 0}";
},
{
name = top;
position = "{940, 1650}";
}
);
hints = (
{
horizontal = 1;
place = "{1598, 52}";
type = Stem;
},
{
horizontal = 1;
place = "{0, 52}";
type = Stem;
},
{
horizontal = 1;
place = "{802, 50}";
type = Stem;
},
{
place = "{973, 56}";
type = Stem;
},
{
place = "{147, 60}";
type = Stem;
}
);
layerId = "F04A0BE8-B495-4823-90DC-0CCFE7794FD1";
paths = (
{
closed = 1;
nodes = (
"1757 0 LINE",
"1757 50 LINE",
"1029 50 LINE",
"1029 802 LINE",
"1733 802 LINE",
"1733 852 LINE",
"1029 852 LINE",
"1029 1600 LINE",
"1757 1600 LINE",
"1757 1650 LINE",
"973 1650 LINE SMOOTH",
"501 1650 OFFCURVE",
"147 1291 OFFCURVE",
"147 825 CURVE SMOOTH",
"147 359 OFFCURVE",
"501 0 OFFCURVE",
"973 0 CURVE SMOOTH"
);
},
{
closed = 1;
nodes = (
"973 52 LINE",
"536 52 OFFCURVE",
"207 388 OFFCURVE",
"207 825 CURVE SMOOTH",
"207 1262 OFFCURVE",
"536 1598 OFFCURVE",
"973 1598 CURVE"
);
}
);
width = 1904;
}
);
rightKerningGroup = _A1;
unicode = 0152;
},
{
color = 5;
glyphname = P;
leftMetricsKey = H;
layers = (
{
hints = (
{
horizontal = 1;
place = "{588, 350}";
type = Stem;
},
{
horizontal = 1;
place = "{1300, 350}";
type = Stem;
},
{
place = "{859, 464}";
type = Stem;
},
{
horizontal = 1;
place = "{0, 21}";
target = up;
type = BottomGhost;
},
{
place = "{97, 440}";
type = Stem;
}
);
layerId = "2DB08DF0-02C3-44C2-9E0E-FF1701E70813";
paths = (
{
closed = 1;
nodes = (
"537 0 LINE",
"537 588 LINE",
"749 588 LINE SMOOTH",
"1069 588 OFFCURVE",
"1323 764 OFFCURVE",
"1323 1119 CURVE SMOOTH",
"1323 1474 OFFCURVE",
"1069 1650 OFFCURVE",
"749 1650 CURVE SMOOTH",
"97 1650 LINE",
"97 0 LINE"
);
},
{
closed = 1;
nodes = (
"537 1300 LINE",
"605 1300 LINE SMOOTH",
"723 1300 OFFCURVE",
"859 1275 OFFCURVE",
"859 1119 CURVE SMOOTH",
"859 965 OFFCURVE",
"723 938 OFFCURVE",
"605 938 CURVE SMOOTH",
"537 938 LINE"
);
}
);
width = 1349;
},
{
anchors = (
{
name = bottom;
position = "{623, 0}";
},
{
name = top;
position = "{623, 1650}";
}
);
hints = (
{
horizontal = 1;
place = "{612, 300}";
type = Stem;
},
{
horizontal = 1;
place = "{1350, 300}";
type = Stem;
},
{
place = "{889, 395}";
type = Stem;
},
{
horizontal = 1;
place = "{0, 21}";
target = up;
type = BottomGhost;
},
{
place = "{119, 376}";
type = Stem;
}
);
layerId = "42521C20-2C1E-4F42-AF24-FEB99F0BB27F";
paths = (
{
closed = 1;
nodes = (
"495 0 LINE",
"495 612 LINE",
"721 612 LINE SMOOTH",
"1042 612 OFFCURVE",
"1284 790 OFFCURVE",
"1284 1131 CURVE SMOOTH",
"1284 1472 OFFCURVE",
"1042 1650 OFFCURVE",
"721 1650 CURVE SMOOTH",
"119 1650 LINE",
"119 0 LINE"
);
},
{
closed = 1;
nodes = (
"495 1350 LINE",
"601 1350 LINE SMOOTH",
"748 1350 OFFCURVE",
"889 1300 OFFCURVE",
"889 1131 CURVE SMOOTH",
"889 963 OFFCURVE",
"748 912 OFFCURVE",
"601 912 CURVE SMOOTH",
"495 912 LINE"
);
}
);
width = 1328;
},
{
anchors = (
{
name = bottom;
position = "{622, 0}";
},
{
name = top;
position = "{622, 1650}";
}
);
hints = (
{
horizontal = 1;
place = "{638, 246}";
type = Stem;
},
{
horizontal = 1;
place = "{1404, 246}";
type = Stem;
},
{
place = "{922, 322}";
type = Stem;
},
{
horizontal = 1;
place = "{0, 21}";
target = up;
type = BottomGhost;
},
{
place = "{143, 308}";
type = Stem;
}
);
layerId = "EC0A9815-809D-40B1-AF02-15154ADC149F";
paths = (
{
closed = 1;
nodes = (
"451 0 LINE",
"451 638 LINE",
"692 638 LINE SMOOTH",
"1014 638 OFFCURVE",
"1244 818 OFFCURVE",
"1244 1144 CURVE SMOOTH",
"1244 1470 OFFCURVE",
"1014 1650 OFFCURVE",
"692 1650 CURVE SMOOTH",
"143 1650 LINE",
"143 0 LINE"
);
},
{
closed = 1;
nodes = (
"451 1404 LINE",
"598 1404 LINE SMOOTH",
"775 1404 OFFCURVE",
"922 1328 OFFCURVE",
"922 1144 CURVE SMOOTH",
"922 960 OFFCURVE",
"775 884 OFFCURVE",
"598 884 CURVE SMOOTH",
"451 884 LINE"
);
}
);
width = 1276;
},
{
anchors = (
{
name = bottom;
position = "{618, 0}";
},
{
name = top;
position = "{618, 1650}";
}
);
hints = (
{
horizontal = 1;
place = "{660, 200}";
type = Stem;
},
{
horizontal = 1;
place = "{1450, 200}";
type = Stem;
},
{
place = "{949, 260}";
type = Stem;
},
{
horizontal = 1;
place = "{0, 21}";
target = up;
type = BottomGhost;
},
{
place = "{163, 250}";
type = Stem;
}
);
layerId = "078079F8-88FE-4B64-A845-190032768C39";
paths = (
{
closed = 1;
nodes = (
"413 0 LINE",
"413 660 LINE",
"667 660 LINE SMOOTH",
"989 660 OFFCURVE",
"1209 842 OFFCURVE",
"1209 1155 CURVE SMOOTH",
"1209 1468 OFFCURVE",
"989 1650 OFFCURVE",
"667 1650 CURVE SMOOTH",
"163 1650 LINE",
"163 0 LINE"
);
},
{
closed = 1;
nodes = (
"413 1450 LINE",
"594 1450 LINE SMOOTH",
"798 1450 OFFCURVE",
"949 1352 OFFCURVE",
"949 1155 CURVE SMOOTH",
"949 958 OFFCURVE",
"798 860 OFFCURVE",
"594 860 CURVE SMOOTH",
"413 860 LINE"
);
}
);
width = 1295;
},
{
anchors = (
{
name = bottom;
position = "{615, 0}";
},
{
name = top;
position = "{615, 1650}";
}
);
hints = (
{
horizontal = 1;
place = "{678, 164}";
type = Stem;
},
{
horizontal = 1;
place = "{1486, 164}";
type = Stem;
},
{
place = "{971, 211}";
type = Stem;
},
{
horizontal = 1;
place = "{0, 21}";
target = up;
type = BottomGhost;
},
{
place = "{179, 204}";
type = Stem;
}
);
layerId = "BD6EF84D-666D-4BF5-8AC4-0B98CD7A9734";
paths = (
{
closed = 1;
nodes = (
"383 0 LINE",
"383 678 LINE",
"647 678 LINE SMOOTH",
"970 678 OFFCURVE",
"1182 862 OFFCURVE",
"1182 1164 CURVE SMOOTH",
"1182 1466 OFFCURVE",
"970 1650 OFFCURVE",
"647 1650 CURVE SMOOTH",
"179 1650 LINE",
"179 0 LINE"
);
},
{
closed = 1;
nodes = (
"383 1486 LINE",
"592 1486 LINE SMOOTH",
"816 1486 OFFCURVE",
"971 1371 OFFCURVE",
"971 1164 CURVE SMOOTH",
"971 957 OFFCURVE",
"816 842 OFFCURVE",
"592 842 CURVE SMOOTH",
"383 842 LINE"
);
}
);
width = 1284;
},
{
anchors = (
{
name = bottom;
position = "{607, 0}";
},
{
name = top;
position = "{607, 1650}";
}
);
hints = (
{
horizontal = 1;
place = "{700, 119}";
type = Stem;
},
{
horizontal = 1;
place = "{1531, 119}";
type = Stem;
},
{
place = "{993, 148}";
type = Stem;
},
{
horizontal = 1;
place = "{0, 21}";
target = up;
type = BottomGhost;
},
{
place = "{194, 146}";
type = Stem;
}
);
layerId = "E2387CF4-B2A9-41B6-8C2D-75095F558AA2";
paths = (
{
closed = 1;
nodes = (
"340 0 LINE",
"340 700 LINE",
"617 700 LINE SMOOTH",
"940 700 OFFCURVE",
"1141 885 OFFCURVE",
"1141 1175 CURVE SMOOTH",
"1141 1465 OFFCURVE",
"940 1650 OFFCURVE",
"617 1650 CURVE SMOOTH",
"194 1650 LINE",
"194 0 LINE"
);
},
{
closed = 1;
nodes = (
"340 1531 LINE",
"584 1531 LINE SMOOTH",
"833 1531 OFFCURVE",
"993 1395 OFFCURVE",
"993 1175 CURVE SMOOTH",
"993 955 OFFCURVE",
"833 819 OFFCURVE",
"584 819 CURVE SMOOTH",
"340 819 LINE"
);
}
);
width = 1253;
},
{
anchors = (
{
name = bottom;
position = "{606, 0}";
},
{
name = top;
position = "{606, 1650}";
}
);
hints = (
{
horizontal = 1;
place = "{716, 88}";
type = Stem;
},
{
horizontal = 1;
place = "{1562, 88}";
type = Stem;
},
{
place = "{1014, 105}";
type = Stem;
},
{
horizontal = 1;
place = "{0, 21}";
target = up;
type = BottomGhost;
},
{
place = "{209, 106}";
type = Stem;
}
);
layerId = "409FFF8B-6B5D-4160-8B77-EB84ED6DCA06";
paths = (
{
closed = 1;
nodes = (
"315 0 LINE",
"315 716 LINE",
"601 716 LINE SMOOTH",
"925 716 OFFCURVE",
"1119 902 OFFCURVE",
"1119 1183 CURVE SMOOTH",
"1119 1464 OFFCURVE",
"925 1650 OFFCURVE",
"601 1650 CURVE SMOOTH",
"209 1650 LINE",
"209 0 LINE"
);
},
{
closed = 1;
nodes = (
"315 1562 LINE",
"583 1562 LINE SMOOTH",
"851 1562 OFFCURVE",
"1014 1412 OFFCURVE",
"1014 1183 CURVE SMOOTH",
"1014 954 OFFCURVE",
"851 804 OFFCURVE",
"583 804 CURVE SMOOTH",
"315 804 LINE"
);
}
);
width = 1247;
},
{
anchors = (
{
name = bottom;
position = "{607, 0}";
},
{
name = top;
position = "{607, 1650}";
}
);
hints = (
{
horizontal = 1;
place = "{728, 65}";
type = Stem;
},
{
horizontal = 1;
place = "{1585, 65}";
type = Stem;
},
{
place = "{1029, 73}";
type = Stem;
},
{
horizontal = 1;
place = "{0, 21}";
target = up;
type = BottomGhost;
},
{
place = "{220, 76}";
type = Stem;
}
);
layerId = "429DE6A8-FC85-4834-8ADF-6599F7754E15";
paths = (
{
closed = 1;
nodes = (
"296 0 LINE",
"296 728 LINE",
"589 728 LINE SMOOTH",
"913 728 OFFCURVE",
"1102 915 OFFCURVE",
"1102 1189 CURVE SMOOTH",
"1102 1463 OFFCURVE",
"913 1650 OFFCURVE",
"589 1650 CURVE SMOOTH",
"220 1650 LINE",
"220 0 LINE"
);
},
{
closed = 1;
nodes = (
"296 1585 LINE",
"582 1585 LINE SMOOTH",
"863 1585 OFFCURVE",
"1029 1424 OFFCURVE",
"1029 1189 CURVE SMOOTH",
"1029 954 OFFCURVE",
"863 793 OFFCURVE",
"582 793 CURVE SMOOTH",
"296 793 LINE"
);
}
);
width = 1236;
},
{
anchors = (
{
name = bottom;
position = "{610, 0}";
},
{
name = top;
position = "{610, 1650}";
}
);
hints = (
{
horizontal = 1;
place = "{736, 50}";
type = Stem;
},
{
horizontal = 1;
place = "{1600, 50}";
type = Stem;
},
{
place = "{1043, 52}";
type = Stem;
},
{
horizontal = 1;
place = "{0, 21}";
target = up;
type = BottomGhost;
},
{
place = "{231, 56}";
type = Stem;
}
);
layerId = "F04A0BE8-B495-4823-90DC-0CCFE7794FD1";
paths = (
{
closed = 1;
nodes = (
"287 0 LINE",
"287 736 LINE",
"585 736 LINE SMOOTH",
"909 736 OFFCURVE",
"1095 924 OFFCURVE",
"1095 1193 CURVE SMOOTH",
"1095 1462 OFFCURVE",
"909 1650 OFFCURVE",
"585 1650 CURVE SMOOTH",
"231 1650 LINE",
"231 0 LINE"
);
},
{
closed = 1;
nodes = (
"287 1600 LINE",
"585 1600 LINE SMOOTH",
"875 1600 OFFCURVE",
"1043 1432 OFFCURVE",
"1043 1193 CURVE SMOOTH",
"1043 954 OFFCURVE",
"875 786 OFFCURVE",
"585 786 CURVE SMOOTH",
"287 786 LINE"
);
}
);
width = 1240;
}
);
rightKerningGroup = _A1;
unicode = 0050;
},
{
color = 4;
glyphname = Thorn;
leftMetricsKey = H;
rightMetricsKey = P;
layers = (
{
anchors = (
{
name = bottom;
position = "{625, 0}";
},
{
name = top;
position = "{625, 1650}";
}
);
hints = (
{
horizontal = 1;
place = "{296, 350}";
type = Stem;
},
{
horizontal = 1;
place = "{1008, 350}";
type = Stem;
},
{
horizontal = 1;
place = "{1650, -20}";
target = down;
type = TopGhost;
},
{
place = "{97, 440}";
type = Stem;
},
{
place = "{859, 464}";
type = Stem;
}
);
layerId = "2DB08DF0-02C3-44C2-9E0E-FF1701E70813";
paths = (
{
closed = 1;
nodes = (
"537 0 LINE",
"537 296 LINE",
"749 296 LINE SMOOTH",
"1069 296 OFFCURVE",
"1323 472 OFFCURVE",
"1323 827 CURVE SMOOTH",
"1323 1182 OFFCURVE",
"1069 1358 OFFCURVE",
"749 1358 CURVE SMOOTH",
"537 1358 LINE",
"537 1650 LINE",
"97 1650 LINE",
"97 0 LINE"
);
},
{
closed = 1;
nodes = (
"537 1008 LINE",
"605 1008 LINE SMOOTH",
"723 1008 OFFCURVE",
"859 983 OFFCURVE",
"859 827 CURVE SMOOTH",
"859 673 OFFCURVE",
"723 646 OFFCURVE",
"605 646 CURVE SMOOTH",
"537 646 LINE"
);
}
);
width = 1349;
},
{
anchors = (
{
name = bottom;
position = "{622, 0}";
},
{
name = top;
position = "{622, 1650}";
}
);
hints = (
{
horizontal = 1;
place = "{306, 300}";
type = Stem;
},
{
horizontal = 1;
place = "{1044, 300}";
type = Stem;
},
{
horizontal = 1;
place = "{1651, -20}";
target = down;
type = TopGhost;
},
{
place = "{119, 376}";
type = Stem;
},
{
place = "{889, 395}";
type = Stem;
}
);
layerId = "42521C20-2C1E-4F42-AF24-FEB99F0BB27F";
paths = (
{
closed = 1;
nodes = (
"495 0 LINE",
"495 306 LINE",
"721 306 LINE SMOOTH",
"1042 306 OFFCURVE",
"1284 484 OFFCURVE",
"1284 825 CURVE SMOOTH",
"1284 1166 OFFCURVE",
"1042 1344 OFFCURVE",
"721 1344 CURVE SMOOTH",
"495 1344 LINE",
"495 1651 LINE",
"119 1651 LINE",
"119 0 LINE"
);
},
{
closed = 1;
nodes = (
"495 1044 LINE",
"601 1044 LINE SMOOTH",
"748 1044 OFFCURVE",
"889 995 OFFCURVE",
"889 825 CURVE SMOOTH",
"889 657 OFFCURVE",
"748 606 OFFCURVE",
"601 606 CURVE SMOOTH",
"495 606 LINE"
);
}
);
width = 1328;
},
{
anchors = (
{
name = bottom;
position = "{620, 0}";
},
{
name = top;
position = "{620, 1650}";
}
);
hints = (
{
horizontal = 1;
place = "{317, 246}";
type = Stem;
},
{
horizontal = 1;
place = "{1082, 246}";
type = Stem;
},
{
horizontal = 1;
place = "{1650, -20}";
target = down;
type = TopGhost;
},
{
place = "{143, 308}";
type = Stem;
},
{
place = "{922, 322}";
type = Stem;
}
);
layerId = "EC0A9815-809D-40B1-AF02-15154ADC149F";
paths = (
{
closed = 1;
nodes = (
"451 0 LINE",
"451 317 LINE",
"692 317 LINE SMOOTH",
"1014 317 OFFCURVE",
"1244 497 OFFCURVE",
"1244 823 CURVE SMOOTH",
"1244 1148 OFFCURVE",
"1014 1328 OFFCURVE",
"692 1328 CURVE SMOOTH",
"451 1328 LINE",
"451 1650 LINE",
"143 1650 LINE",
"143 0 LINE"
);
},
{
closed = 1;
nodes = (
"451 1082 LINE",
"598 1082 LINE SMOOTH",
"775 1082 OFFCURVE",
"922 1007 OFFCURVE",
"922 823 CURVE SMOOTH",
"922 639 OFFCURVE",
"775 563 OFFCURVE",
"598 563 CURVE SMOOTH",
"451 563 LINE"
);
}
);
width = 1276;
},
{
anchors = (
{
name = bottom;
position = "{617, 0}";
},
{
name = top;
position = "{617, 1650}";
}
);
hints = (
{
horizontal = 1;
place = "{326, 200}";
type = Stem;
},
{
horizontal = 1;
place = "{1115, 200}";
type = Stem;
},
{
horizontal = 1;
place = "{1650, -20}";
target = down;
type = TopGhost;
},
{
place = "{163, 250}";
type = Stem;
},
{
place = "{949, 260}";
type = Stem;
}
);
layerId = "078079F8-88FE-4B64-A845-190032768C39";
paths = (
{
closed = 1;
nodes = (
"413 0 LINE",
"413 326 LINE",
"667 326 LINE SMOOTH",
"989 326 OFFCURVE",
"1209 508 OFFCURVE",
"1209 821 CURVE SMOOTH",
"1209 1133 OFFCURVE",
"989 1315 OFFCURVE",
"667 1315 CURVE SMOOTH",
"413 1315 LINE",
"413 1650 LINE",
"163 1650 LINE",
"163 0 LINE"
);
},
{
closed = 1;
nodes = (
"413 1115 LINE",
"594 1115 LINE SMOOTH",
"798 1115 OFFCURVE",
"949 1018 OFFCURVE",
"949 821 CURVE SMOOTH",
"949 624 OFFCURVE",
"798 526 OFFCURVE",
"594 526 CURVE SMOOTH",
"413 526 LINE"
);
}
);
width = 1295;
},
{
anchors = (
{
name = bottom;
position = "{615, 0}";
},
{
name = top;
position = "{615, 1650}";
}
);
hints = (
{
horizontal = 1;
place = "{333, 164}";
type = Stem;
},
{
horizontal = 1;
place = "{1141, 164}";
type = Stem;
},
{
horizontal = 1;
place = "{1650, -20}";
target = down;
type = TopGhost;
},
{
place = "{179, 204}";
type = Stem;
},
{
place = "{971, 211}";
type = Stem;
}
);
layerId = "BD6EF84D-666D-4BF5-8AC4-0B98CD7A9734";
paths = (
{
closed = 1;
nodes = (
"383 0 LINE",
"383 333 LINE",
"647 333 LINE SMOOTH",
"970 333 OFFCURVE",
"1182 517 OFFCURVE",
"1182 819 CURVE SMOOTH",
"1182 1121 OFFCURVE",
"970 1305 OFFCURVE",
"647 1305 CURVE SMOOTH",
"383 1305 LINE",
"383 1650 LINE",
"179 1650 LINE",
"179 0 LINE"
);
},
{
closed = 1;
nodes = (
"383 1141 LINE",
"592 1141 LINE SMOOTH",
"816 1141 OFFCURVE",
"971 1026 OFFCURVE",
"971 819 CURVE SMOOTH",
"971 612 OFFCURVE",
"816 497 OFFCURVE",
"592 497 CURVE SMOOTH",
"383 497 LINE"
);
}
);
width = 1284;
},
{
anchors = (
{
name = bottom;
position = "{607, 0}";
},
{
name = top;
position = "{607, 1650}";
}
);
hints = (
{
horizontal = 1;
place = "{343, 119}";
type = Stem;
},
{
horizontal = 1;
place = "{1173, 119}";
type = Stem;
},
{
horizontal = 1;
place = "{1650, -20}";
target = down;
type = TopGhost;
},
{
place = "{194, 146}";
type = Stem;
},
{
place = "{993, 148}";
type = Stem;
}
);
layerId = "E2387CF4-B2A9-41B6-8C2D-75095F558AA2";
paths = (
{
closed = 1;
nodes = (
"340 0 LINE",
"340 343 LINE",
"617 343 LINE SMOOTH",
"940 343 OFFCURVE",
"1141 528 OFFCURVE",
"1141 818 CURVE SMOOTH",
"1141 1107 OFFCURVE",
"940 1292 OFFCURVE",
"617 1292 CURVE SMOOTH",
"340 1292 LINE",
"340 1650 LINE",
"194 1650 LINE",
"194 0 LINE"
);
},
{
closed = 1;
nodes = (
"340 1173 LINE",
"584 1173 LINE SMOOTH",
"833 1173 OFFCURVE",
"993 1037 OFFCURVE",
"993 818 CURVE SMOOTH",
"993 598 OFFCURVE",
"833 462 OFFCURVE",
"584 462 CURVE SMOOTH",
"340 462 LINE"
);
}
);
width = 1253;
},
{
anchors = (
{
name = bottom;
position = "{606, 0}";
},
{
name = top;
position = "{606, 1650}";
}
);
hints = (
{
horizontal = 1;
place = "{350, 88}";
type = Stem;
},
{
horizontal = 1;
place = "{1195, 88}";
type = Stem;
},
{
horizontal = 1;
place = "{1650, -20}";
target = down;
type = TopGhost;
},
{
place = "{209, 106}";
type = Stem;
},
{
place = "{1014, 105}";
type = Stem;
}
);
layerId = "409FFF8B-6B5D-4160-8B77-EB84ED6DCA06";
paths = (
{
closed = 1;
nodes = (
"315 0 LINE",
"315 350 LINE",
"601 350 LINE SMOOTH",
"925 350 OFFCURVE",
"1119 536 OFFCURVE",
"1119 817 CURVE SMOOTH",
"1119 1097 OFFCURVE",
"925 1283 OFFCURVE",
"601 1283 CURVE SMOOTH",
"315 1283 LINE",
"315 1650 LINE",
"209 1650 LINE",
"209 0 LINE"
);
},
{
closed = 1;
nodes = (
"315 1195 LINE",
"583 1195 LINE SMOOTH",
"851 1195 OFFCURVE",
"1014 1045 OFFCURVE",
"1014 817 CURVE SMOOTH",
"1014 588 OFFCURVE",
"851 438 OFFCURVE",
"583 438 CURVE SMOOTH",
"315 438 LINE"
);
}
);
width = 1247;
},
{
anchors = (
{
name = bottom;
position = "{607, 0}";
},
{
name = top;
position = "{607, 1650}";
}
);
hints = (
{
horizontal = 1;
place = "{355, 65}";
type = Stem;
},
{
horizontal = 1;
place = "{1211, 65}";
type = Stem;
},
{
horizontal = 1;
place = "{1650, -20}";
target = down;
type = TopGhost;
},
{
place = "{220, 76}";
type = Stem;
},
{
place = "{1029, 73}";
type = Stem;
}
);
layerId = "429DE6A8-FC85-4834-8ADF-6599F7754E15";
paths = (
{
closed = 1;
nodes = (
"296 0 LINE",
"296 355 LINE",
"589 355 LINE SMOOTH",
"913 355 OFFCURVE",
"1102 542 OFFCURVE",
"1102 816 CURVE SMOOTH",
"1102 1089 OFFCURVE",
"913 1276 OFFCURVE",
"589 1276 CURVE SMOOTH",
"296 1276 LINE",
"296 1650 LINE",
"220 1650 LINE",
"220 0 LINE"
);
},
{
closed = 1;
nodes = (
"296 1211 LINE",
"582 1211 LINE SMOOTH",
"863 1211 OFFCURVE",
"1029 1050 OFFCURVE",
"1029 816 CURVE SMOOTH",
"1029 581 OFFCURVE",
"863 420 OFFCURVE",
"582 420 CURVE SMOOTH",
"296 420 LINE"
);
}
);
width = 1236;
},
{
anchors = (
{
name = bottom;
position = "{610, 0}";
},
{
name = top;
position = "{610, 1650}";
}
);
hints = (
{
horizontal = 1;
place = "{358, 50}";
type = Stem;
},
{
horizontal = 1;
place = "{1222, 50}";
type = Stem;
},
{
horizontal = 1;
place = "{1650, -20}";
target = down;
type = TopGhost;
},
{
place = "{231, 56}";
type = Stem;
},
{
place = "{1043, 52}";
type = Stem;
}
);
layerId = "F04A0BE8-B495-4823-90DC-0CCFE7794FD1";
paths = (
{
closed = 1;
nodes = (
"287 0 LINE",
"287 358 LINE",
"585 358 LINE SMOOTH",
"909 358 OFFCURVE",
"1095 546 OFFCURVE",
"1095 815 CURVE SMOOTH",
"1095 1084 OFFCURVE",
"909 1272 OFFCURVE",
"585 1272 CURVE SMOOTH",
"287 1272 LINE",
"287 1650 LINE",
"231 1650 LINE",
"231 0 LINE"
);
},
{
closed = 1;
nodes = (
"287 1222 LINE",
"585 1222 LINE SMOOTH",
"875 1222 OFFCURVE",
"1043 1054 OFFCURVE",
"1043 815 CURVE SMOOTH",
"1043 576 OFFCURVE",
"875 408 OFFCURVE",
"585 408 CURVE SMOOTH",
"287 408 LINE"
);
}
);
width = 1240;
}
);
rightKerningGroup = _A1;
unicode = 00DE;
},
{
color = 5;
glyphname = Q;
leftMetricsKey = O;
rightMetricsKey = O;
layers = (
{
components = (
{
name = O;
alignment = -1;
}
);
hints = (
{
place = "{636, 440}";
type = Stem;
}
);
layerId = "2DB08DF0-02C3-44C2-9E0E-FF1701E70813";
paths = (
{
closed = 1;
nodes = (
"636 194 LINE",
"636 -344 LINE",
"1076 -344 LINE",
"1076 194 LINE"
);
}
);
width = 1712;
},
{
components = (
{
name = O;
alignment = -1;
}
);
hints = (
{
place = "{688, 376}";
type = Stem;
}
);
layerId = "42521C20-2C1E-4F42-AF24-FEB99F0BB27F";
paths = (
{
closed = 1;
nodes = (
"688 162 LINE",
"688 -344 LINE",
"1064 -344 LINE",
"1064 162 LINE"
);
}
);
width = 1752;
},
{
components = (
{
name = O;
alignment = -1;
}
);
hints = (
{
place = "{744, 308}";
type = Stem;
}
);
layerId = "EC0A9815-809D-40B1-AF02-15154ADC149F";
paths = (
{
closed = 1;
nodes = (
"744 128 LINE",
"744 -344 LINE",
"1052 -344 LINE",
"1052 128 LINE"
);
}
);
width = 1796;
},
{
components = (
{
name = O;
transform = "{1, 0, 0, 1, 0, -1}";
alignment = -1;
}
);
hints = (
{
place = "{793, 250}";
type = Stem;
}
);
layerId = "078079F8-88FE-4B64-A845-190032768C39";
paths = (
{
closed = 1;
nodes = (
"793 99 LINE",
"793 -344 LINE",
"1043 -344 LINE",
"1043 99 LINE"
);
}
);
width = 1836;
},
{
components = (
{
name = O;
transform = "{1, 0, 0, 1, 0, -1}";
alignment = -1;
}
);
hints = (
{
place = "{832, 204}";
type = Stem;
}
);
layerId = "BD6EF84D-666D-4BF5-8AC4-0B98CD7A9734";
paths = (
{
closed = 1;
nodes = (
"832 76 LINE",
"832 -344 LINE",
"1036 -344 LINE",
"1036 76 LINE"
);
}
);
width = 1868;
},
{
components = (
{
name = O;
transform = "{1, 0, 0, 1, 0, -1}";
alignment = -1;
}
);
hints = (
{
place = "{872, 146}";
type = Stem;
}
);
layerId = "E2387CF4-B2A9-41B6-8C2D-75095F558AA2";
paths = (
{
closed = 1;
nodes = (
"872 46 LINE",
"872 -344 LINE",
"1018 -344 LINE",
"1018 46 LINE"
);
}
);
width = 1890;
},
{
components = (
{
name = O;
transform = "{1, 0, 0, 1, 0, -1}";
alignment = -1;
}
);
hints = (
{
place = "{907, 106}";
type = Stem;
}
);
layerId = "409FFF8B-6B5D-4160-8B77-EB84ED6DCA06";
paths = (
{
closed = 1;
nodes = (
"907 25 LINE",
"907 -344 LINE",
"1013 -344 LINE",
"1013 25 LINE"
);
}
);
width = 1920;
},
{
components = (
{
name = O;
transform = "{1, 0, 0, 1, 0, -1}";
alignment = -1;
}
);
hints = (
{
place = "{930, 76}";
type = Stem;
}
);
layerId = "429DE6A8-FC85-4834-8ADF-6599F7754E15";
paths = (
{
closed = 1;
nodes = (
"930 9 LINE",
"930 -344 LINE",
"1006 -344 LINE",
"1006 9 LINE"
);
}
);
width = 1936;
},
{
components = (
{
name = O;
transform = "{1, 0, 0, 1, 0, -1}";
alignment = -1;
}
);
hints = (
{
place = "{951, 56}";
type = Stem;
}
);
layerId = "F04A0BE8-B495-4823-90DC-0CCFE7794FD1";
paths = (
{
closed = 1;
nodes = (
"951 -1 LINE",
"951 -344 LINE",
"1007 -344 LINE",
"1007 -1 LINE"
);
}
);
width = 1958;
}
);
rightKerningGroup = _A1;
unicode = 0051;
},
{
color = 5;
glyphname = R;
leftMetricsKey = H;
layers = (
{
anchors = (
{
name = bottom;
position = "{693, 0}";
},
{
name = top;
position = "{693, 1650}";
}
);
hints = (
{
horizontal = 1;
place = "{1300, 350}";
type = Stem;
},
{
horizontal = 1;
place = "{572, 385}";
type = Stem;
},
{
place = "{97, 440}";
type = Stem;
},
{
horizontal = 1;
place = "{0, 21}";
target = up;
type = BottomGhost;
},
{
place = "{859, 464}";
type = Stem;
}
);
layerId = "2DB08DF0-02C3-44C2-9E0E-FF1701E70813";
paths = (
{
closed = 1;
nodes = (
"537 1300 LINE",
"605 1300 LINE SMOOTH",
"723 1300 OFFCURVE",
"859 1282 OFFCURVE",
"859 1129 CURVE SMOOTH",
"859 978 OFFCURVE",
"723 957 OFFCURVE",
"605 957 CURVE SMOOTH",
"537 957 LINE"
);
},
{
closed = 1;
nodes = (
"537 0 LINE",
"537 572 LINE",
"538 572 LINE",
"981 0 LINE",
"1539 0 LINE",
"989 645 LINE",
"1187 713 OFFCURVE",
"1323 874 OFFCURVE",
"1323 1129 CURVE SMOOTH",
"1323 1477 OFFCURVE",
"1069 1650 OFFCURVE",
"749 1650 CURVE SMOOTH",
"97 1650 LINE",
"97 0 LINE"
);
}
);
width = 1497;
},
{
anchors = (
{
name = bottom;
position = "{678, 0}";
},
{
name = top;
position = "{678, 1650}";
}
);
hints = (
{
horizontal = 1;
place = "{1350, 300}";
type = Stem;
},
{
horizontal = 1;
place = "{599, 328}";
type = Stem;
},
{
place = "{119, 376}";
type = Stem;
},
{
horizontal = 1;
place = "{0, 21}";
target = up;
type = BottomGhost;
},
{
place = "{889, 396}";
type = Stem;
}
);
layerId = "42521C20-2C1E-4F42-AF24-FEB99F0BB27F";
paths = (
{
closed = 1;
nodes = (
"495 1350 LINE",
"602 1350 LINE SMOOTH",
"752 1350 OFFCURVE",
"889 1305 OFFCURVE",
"889 1139 CURVE SMOOTH",
"889 975 OFFCURVE",
"752 927 OFFCURVE",
"602 927 CURVE SMOOTH",
"495 927 LINE"
);
},
{
closed = 1;
nodes = (
"495 0 LINE",
"495 599 LINE",
"538 599 LINE",
"999 0 LINE",
"1476 0 LINE",
"928 658 LINE",
"1143 718 OFFCURVE",
"1285 882 OFFCURVE",
"1285 1139 CURVE SMOOTH",
"1285 1474 OFFCURVE",
"1043 1650 OFFCURVE",
"722 1650 CURVE SMOOTH",
"119 1650 LINE",
"119 0 LINE"
);
}
);
width = 1430;
},
{
anchors = (
{
name = bottom;
position = "{663, 0}";
},
{
name = top;
position = "{663, 1650}";
}
);
hints = (
{
horizontal = 1;
place = "{1404, 246}";
type = Stem;
},
{
horizontal = 1;
place = "{628, 267}";
type = Stem;
},
{
place = "{143, 308}";
type = Stem;
},
{
horizontal = 1;
place = "{0, 21}";
target = up;
type = BottomGhost;
},
{
place = "{922, 323}";
type = Stem;
}
);
layerId = "EC0A9815-809D-40B1-AF02-15154ADC149F";
paths = (
{
closed = 1;
nodes = (
"451 1404 LINE",
"599 1404 LINE SMOOTH",
"783 1404 OFFCURVE",
"922 1329 OFFCURVE",
"922 1150 CURVE SMOOTH",
"922 972 OFFCURVE",
"783 895 OFFCURVE",
"599 895 CURVE SMOOTH",
"451 895 LINE"
);
},
{
closed = 1;
nodes = (
"451 0 LINE",
"451 628 LINE",
"538 628 LINE",
"1019 0 LINE",
"1410 0 LINE",
"863 671 LINE",
"1096 723 OFFCURVE",
"1245 891 OFFCURVE",
"1245 1150 CURVE SMOOTH",
"1245 1470 OFFCURVE",
"1017 1650 OFFCURVE",
"693 1650 CURVE SMOOTH",
"143 1650 LINE",
"143 0 LINE"
);
}
);
width = 1361;
},
{
anchors = (
{
name = bottom;
position = "{649, 0}";
},
{
name = top;
position = "{649, 1650}";
}
);
hints = (
{
horizontal = 1;
place = "{1450, 200}";
type = Stem;
},
{
horizontal = 1;
place = "{653, 215}";
type = Stem;
},
{
place = "{163, 250}";
type = Stem;
},
{
horizontal = 1;
place = "{0, 21}";
target = up;
type = BottomGhost;
},
{
place = "{949, 261}";
type = Stem;
}
);
layerId = "078079F8-88FE-4B64-A845-190032768C39";
paths = (
{
closed = 1;
nodes = (
"413 1450 LINE",
"595 1450 LINE SMOOTH",
"809 1450 OFFCURVE",
"949 1349 OFFCURVE",
"949 1159 CURVE SMOOTH",
"949 969 OFFCURVE",
"809 868 OFFCURVE",
"595 868 CURVE SMOOTH",
"413 868 LINE"
);
},
{
closed = 1;
nodes = (
"413 0 LINE",
"413 653 LINE",
"537 653 LINE",
"1035 0 LINE",
"1353 0 LINE",
"807 682 LINE",
"1055 727 OFFCURVE",
"1210 898 OFFCURVE",
"1210 1159 CURVE SMOOTH",
"1210 1467 OFFCURVE",
"994 1650 OFFCURVE",
"667 1650 CURVE SMOOTH",
"163 1650 LINE",
"163 0 LINE"
);
}
);
width = 1355;
},
{
anchors = (
{
name = bottom;
position = "{639, 0}";
},
{
name = top;
position = "{639, 1650}";
}
);
hints = (
{
horizontal = 1;
place = "{1486, 164}";
type = Stem;
},
{
horizontal = 1;
place = "{673, 173}";
type = Stem;
},
{
place = "{179, 204}";
type = Stem;
},
{
horizontal = 1;
place = "{0, 21}";
target = up;
type = BottomGhost;
},
{
place = "{971, 211}";
type = Stem;
}
);
layerId = "BD6EF84D-666D-4BF5-8AC4-0B98CD7A9734";
paths = (
{
closed = 1;
nodes = (
"383 1486 LINE",
"592 1486 LINE SMOOTH",
"830 1486 OFFCURVE",
"971 1365 OFFCURVE",
"971 1166 CURVE SMOOTH",
"971 967 OFFCURVE",
"830 846 OFFCURVE",
"592 846 CURVE SMOOTH",
"383 846 LINE"
);
},
{
closed = 1;
nodes = (
"383 0 LINE",
"383 673 LINE",
"537 673 LINE",
"1048 0 LINE",
"1307 0 LINE",
"763 691 LINE",
"1023 730 OFFCURVE",
"1182 904 OFFCURVE",
"1182 1166 CURVE SMOOTH",
"1182 1465 OFFCURVE",
"975 1650 OFFCURVE",
"647 1650 CURVE SMOOTH",
"179 1650 LINE",
"179 0 LINE"
);
}
);
width = 1325;
},
{
anchors = (
{
name = bottom;
position = "{619, 0}";
},
{
name = top;
position = "{619, 1650}";
}
);
hints = (
{
horizontal = 1;
place = "{1531, 119}";
type = Stem;
},
{
horizontal = 1;
place = "{703, 125}";
type = Stem;
},
{
place = "{194, 146}";
type = Stem;
},
{
horizontal = 1;
place = "{0, 21}";
target = up;
type = BottomGhost;
},
{
place = "{993, 149}";
type = Stem;
}
);
layerId = "E2387CF4-B2A9-41B6-8C2D-75095F558AA2";
paths = (
{
closed = 1;
nodes = (
"340 1531 LINE",
"583 1531 LINE SMOOTH",
"842 1531 OFFCURVE",
"993 1393 OFFCURVE",
"993 1180 CURVE SMOOTH",
"993 966 OFFCURVE",
"842 828 OFFCURVE",
"583 828 CURVE SMOOTH",
"340 828 LINE"
);
},
{
closed = 1;
nodes = (
"340 0 LINE",
"340 703 LINE",
"527 703 LINE",
"1059 0 LINE",
"1244 0 LINE",
"693 715 LINE",
"958 738 OFFCURVE",
"1142 906 OFFCURVE",
"1142 1180 CURVE SMOOTH",
"1142 1465 OFFCURVE",
"943 1650 OFFCURVE",
"617 1650 CURVE SMOOTH",
"194 1650 LINE",
"194 0 LINE"
);
}
);
width = 1279;
},
{
anchors = (
{
name = bottom;
position = "{612, 0}";
},
{
name = top;
position = "{612, 1650}";
}
);
hints = (
{
horizontal = 1;
place = "{1562, 88}";
type = Stem;
},
{
horizontal = 1;
place = "{724, 92}";
type = Stem;
},
{
place = "{209, 106}";
type = Stem;
},
{
horizontal = 1;
place = "{0, 21}";
target = up;
type = BottomGhost;
},
{
place = "{1014, 106}";
type = Stem;
}
);
layerId = "409FFF8B-6B5D-4160-8B77-EB84ED6DCA06";
paths = (
{
closed = 1;
nodes = (
"315 1562 LINE",
"582 1562 LINE SMOOTH",
"855 1562 OFFCURVE",
"1014 1412 OFFCURVE",
"1014 1189 CURVE SMOOTH",
"1014 966 OFFCURVE",
"855 816 OFFCURVE",
"582 816 CURVE SMOOTH",
"315 816 LINE"
);
},
{
closed = 1;
nodes = (
"315 0 LINE",
"315 724 LINE",
"525 724 LINE",
"1071 0 LINE",
"1206 0 LINE",
"649 731 LINE",
"919 744 OFFCURVE",
"1120 907 OFFCURVE",
"1120 1189 CURVE SMOOTH",
"1120 1465 OFFCURVE",
"926 1650 OFFCURVE",
"601 1650 CURVE SMOOTH",
"209 1650 LINE",
"209 0 LINE"
);
}
);
width = 1257;
},
{
anchors = (
{
name = bottom;
position = "{606, 0}";
},
{
name = top;
position = "{606, 1650}";
}
);
hints = (
{
horizontal = 1;
place = "{1585, 65}";
type = Stem;
},
{
horizontal = 1;
place = "{740, 67}";
type = Stem;
},
{
place = "{220, 76}";
type = Stem;
},
{
horizontal = 1;
place = "{0, 21}";
target = up;
type = BottomGhost;
},
{
place = "{1029, 74}";
type = Stem;
}
);
layerId = "429DE6A8-FC85-4834-8ADF-6599F7754E15";
paths = (
{
closed = 1;
nodes = (
"296 1585 LINE",
"582 1585 LINE SMOOTH",
"865 1585 OFFCURVE",
"1029 1426 OFFCURVE",
"1029 1196 CURVE SMOOTH",
"1029 966 OFFCURVE",
"865 807 OFFCURVE",
"582 807 CURVE SMOOTH",
"296 807 LINE"
);
},
{
closed = 1;
nodes = (
"296 0 LINE",
"296 740 LINE",
"524 740 LINE",
"1081 0 LINE",
"1178 0 LINE",
"616 743 LINE",
"889 748 OFFCURVE",
"1103 908 OFFCURVE",
"1103 1196 CURVE SMOOTH",
"1103 1465 OFFCURVE",
"914 1650 OFFCURVE",
"589 1650 CURVE SMOOTH",
"220 1650 LINE",
"220 0 LINE"
);
}
);
width = 1242;
},
{
anchors = (
{
name = bottom;
position = "{606, 0}";
},
{
name = top;
position = "{606, 1650}";
}
);
hints = (
{
horizontal = 1;
place = "{1600, 50}";
type = Stem;
},
{
horizontal = 1;
place = "{751, 50}";
type = Stem;
},
{
place = "{231, 56}";
type = Stem;
},
{
horizontal = 1;
place = "{0, 21}";
target = up;
type = BottomGhost;
},
{
place = "{1043, 52}";
type = Stem;
}
);
layerId = "F04A0BE8-B495-4823-90DC-0CCFE7794FD1";
paths = (
{
closed = 1;
nodes = (
"287 1600 LINE",
"585 1600 LINE SMOOTH",
"875 1600 OFFCURVE",
"1043 1436 OFFCURVE",
"1043 1201 CURVE SMOOTH",
"1043 966 OFFCURVE",
"875 801 OFFCURVE",
"585 801 CURVE SMOOTH",
"287 801 LINE"
);
},
{
closed = 1;
nodes = (
"287 0 LINE",
"287 751 LINE",
"526 751 LINE",
"1091 0 LINE",
"1163 0 LINE",
"598 751 LINE",
"873 751 OFFCURVE",
"1095 909 OFFCURVE",
"1095 1201 CURVE SMOOTH",
"1095 1465 OFFCURVE",
"909 1650 OFFCURVE",
"585 1650 CURVE SMOOTH",
"231 1650 LINE",
"231 0 LINE"
);
}
);
width = 1238;
}
);
rightKerningGroup = _R;
unicode = 0052;
},
{
color = 5;
glyphname = S;
layers = (
{
anchors = (
{
name = bottom;
position = "{667, 0}";
},
{
name = top;
position = "{747, 1680}";
},
{
name = cedilla;
position = "{699, 0}";
}
);
hints = (
{
horizontal = 1;
place = "{-32, 408}";
type = Stem;
},
{
horizontal = 1;
place = "{1280, 400}";
type = Stem;
},
{
place = "{819, 484}";
type = Stem;
},
{
place = "{119, 432}";
type = Stem;
}
);
layerId = "2DB08DF0-02C3-44C2-9E0E-FF1701E70813";
paths = (
{
closed = 1;
nodes = (
"1052 -32 OFFCURVE",
"1303 165 OFFCURVE",
"1303 498 CURVE SMOOTH",
"1303 775 OFFCURVE",
"1086 897 OFFCURVE",
"792 1016 CURVE SMOOTH",
"597 1095 OFFCURVE",
"551 1128 OFFCURVE",
"551 1179 CURVE SMOOTH",
"551 1237 OFFCURVE",
"610 1280 OFFCURVE",
"713 1280 CURVE SMOOTH",
"809 1280 OFFCURVE",
"936 1243 OFFCURVE",
"1041 1184 CURVE",
"1215 1538 LINE",
"1097 1624 OFFCURVE",
"892 1680 OFFCURVE",
"717 1680 CURVE SMOOTH",
"347 1680 OFFCURVE",
"119 1427 OFFCURVE",
"119 1167 CURVE SMOOTH",
"119 957 OFFCURVE",
"243 823 OFFCURVE",
"563 685 CURVE SMOOTH",
"765 598 OFFCURVE",
"819 557 OFFCURVE",
"819 489 CURVE SMOOTH",
"819 427 OFFCURVE",
"764 376 OFFCURVE",
"648 376 CURVE SMOOTH",
"530 376 OFFCURVE",
"384 429 OFFCURVE",
"233 532 CURVE",
"26 178 LINE",
"166 51 OFFCURVE",
"413 -32 OFFCURVE",
"665 -32 CURVE SMOOTH"
);
}
);
width = 1340;
},
{
anchors = (
{
name = bottom;
position = "{670, 0}";
},
{
name = cedilla;
position = "{702, 0}";
},
{
name = top;
position = "{731, 1676}";
}
);
hints = (
{
horizontal = 1;
place = "{-32, 348}";
type = Stem;
},
{
horizontal = 1;
place = "{1338, 342}";
type = Stem;
},
{
place = "{865, 412}";
type = Stem;
},
{
place = "{137, 368}";
type = Stem;
}
);
layerId = "42521C20-2C1E-4F42-AF24-FEB99F0BB27F";
paths = (
{
closed = 1;
nodes = (
"1030 -32 OFFCURVE",
"1277 158 OFFCURVE",
"1277 483 CURVE SMOOTH",
"1277 753 OFFCURVE",
"1073 877 OFFCURVE",
"769 996 CURVE SMOOTH",
"564 1076 OFFCURVE",
"505 1125 OFFCURVE",
"505 1195 CURVE SMOOTH",
"505 1274 OFFCURVE",
"576 1338 OFFCURVE",
"701 1338 CURVE SMOOTH",
"807 1338 OFFCURVE",
"930 1295 OFFCURVE",
"1026 1233 CURVE",
"1187 1522 LINE",
"1081 1612 OFFCURVE",
"888 1680 OFFCURVE",
"705 1680 CURVE SMOOTH",
"356 1680 OFFCURVE",
"137 1441 OFFCURVE",
"137 1186 CURVE SMOOTH",
"137 978 OFFCURVE",
"263 840 OFFCURVE",
"573 712 CURVE SMOOTH",
"799 619 OFFCURVE",
"865 566 OFFCURVE",
"865 475 CURVE SMOOTH",
"865 381 OFFCURVE",
"784 316 OFFCURVE",
"651 316 CURVE SMOOTH",
"520 316 OFFCURVE",
"371 378 OFFCURVE",
"232 488 CURVE",
"44 202 LINE",
"171 64 OFFCURVE",
"412 -32 OFFCURVE",
"665 -32 CURVE SMOOTH"
);
}
);
width = 1332;
},
{
anchors = (
{
name = bottom;
position = "{662, 0}";
},
{
name = cedilla;
position = "{694, 0}";
},
{
name = top;
position = "{701, 1672}";
}
);
hints = (
{
horizontal = 1;
place = "{-32, 285}";
type = Stem;
},
{
horizontal = 1;
place = "{1399, 281}";
type = Stem;
},
{
place = "{901, 335}";
type = Stem;
},
{
place = "{144, 301}";
type = Stem;
}
);
layerId = "EC0A9815-809D-40B1-AF02-15154ADC149F";
paths = (
{
closed = 1;
nodes = (
"993 -32 OFFCURVE",
"1236 152 OFFCURVE",
"1236 468 CURVE SMOOTH",
"1236 729 OFFCURVE",
"1047 855 OFFCURVE",
"732 975 CURVE SMOOTH",
"518 1056 OFFCURVE",
"445 1121 OFFCURVE",
"445 1212 CURVE SMOOTH",
"445 1312 OFFCURVE",
"529 1399 OFFCURVE",
"677 1399 CURVE SMOOTH",
"793 1399 OFFCURVE",
"911 1350 OFFCURVE",
"996 1284 CURVE",
"1145 1504 LINE",
"1051 1599 OFFCURVE",
"870 1680 OFFCURVE",
"681 1680 CURVE SMOOTH",
"355 1680 OFFCURVE",
"144 1456 OFFCURVE",
"144 1205 CURVE SMOOTH",
"144 1001 OFFCURVE",
"271 859 OFFCURVE",
"572 741 CURVE SMOOTH",
"822 642 OFFCURVE",
"901 577 OFFCURVE",
"901 461 CURVE SMOOTH",
"901 332 OFFCURVE",
"792 253 OFFCURVE",
"642 253 CURVE SMOOTH",
"498 253 OFFCURVE",
"345 325 OFFCURVE",
"219 442 CURVE",
"50 229 LINE",
"165 79 OFFCURVE",
"400 -32 OFFCURVE",
"654 -32 CURVE SMOOTH"
);
}
);
width = 1331;
},
{
anchors = (
{
name = bottom;
position = "{676, 0}";
},
{
name = cedilla;
position = "{708, 0}";
},
{
name = top;
position = "{699, 1670}";
}
);
hints = (
{
horizontal = 1;
place = "{-32, 231}";
type = Stem;
},
{
horizontal = 1;
place = "{1452, 228}";
type = Stem;
},
{
place = "{953, 270}";
type = Stem;
},
{
place = "{172, 243}";
type = Stem;
}
);
layerId = "078079F8-88FE-4B64-A845-190032768C39";
paths = (
{
closed = 1;
nodes = (
"983 -32 OFFCURVE",
"1223 146 OFFCURVE",
"1223 455 CURVE SMOOTH",
"1223 709 OFFCURVE",
"1046 837 OFFCURVE",
"722 957 CURVE SMOOTH",
"500 1039 OFFCURVE",
"415 1118 OFFCURVE",
"415 1227 CURVE SMOOTH",
"415 1346 OFFCURVE",
"510 1452 OFFCURVE",
"678 1452 CURVE SMOOTH",
"802 1452 OFFCURVE",
"916 1397 OFFCURVE",
"993 1329 CURVE",
"1130 1489 LINE",
"1047 1588 OFFCURVE",
"876 1680 OFFCURVE",
"681 1680 CURVE SMOOTH",
"375 1680 OFFCURVE",
"172 1469 OFFCURVE",
"172 1222 CURVE SMOOTH",
"172 1021 OFFCURVE",
"302 877 OFFCURVE",
"593 766 CURVE SMOOTH",
"864 663 OFFCURVE",
"953 586 OFFCURVE",
"953 449 CURVE SMOOTH",
"953 291 OFFCURVE",
"820 199 OFFCURVE",
"656 199 CURVE SMOOTH",
"500 199 OFFCURVE",
"344 279 OFFCURVE",
"230 402 CURVE",
"77 251 LINE",
"181 91 OFFCURVE",
"411 -32 OFFCURVE",
"666 -32 CURVE SMOOTH"
);
}
);
width = 1311;
},
{
anchors = (
{
name = bottom;
position = "{682, 0}";
},
{
name = top;
position = "{691, 1668}";
},
{
name = cedilla;
position = "{714, 0}";
}
);
hints = (
{
horizontal = 1;
place = "{-32, 188}";
type = Stem;
},
{
horizontal = 1;
place = "{1494, 186}";
type = Stem;
},
{
place = "{989, 218}";
type = Stem;
},
{
place = "{188, 197}";
type = Stem;
}
);
layerId = "BD6EF84D-666D-4BF5-8AC4-0B98CD7A9734";
paths = (
{
closed = 1;
nodes = (
"970 -32 OFFCURVE",
"1207 141 OFFCURVE",
"1207 445 CURVE SMOOTH",
"1207 693 OFFCURVE",
"1040 822 OFFCURVE",
"708 943 CURVE SMOOTH",
"479 1026 OFFCURVE",
"385 1116 OFFCURVE",
"385 1239 CURVE SMOOTH",
"385 1373 OFFCURVE",
"489 1494 OFFCURVE",
"673 1494 CURVE SMOOTH",
"804 1494 OFFCURVE",
"915 1434 OFFCURVE",
"985 1364 CURVE",
"1113 1477 LINE",
"1038 1579 OFFCURVE",
"875 1680 OFFCURVE",
"676 1680 CURVE SMOOTH",
"385 1680 OFFCURVE",
"188 1480 OFFCURVE",
"188 1236 CURVE SMOOTH",
"188 1037 OFFCURVE",
"319 892 OFFCURVE",
"604 786 CURVE SMOOTH",
"891 680 OFFCURVE",
"989 593 OFFCURVE",
"989 439 CURVE SMOOTH",
"989 258 OFFCURVE",
"837 156 OFFCURVE",
"661 156 CURVE SMOOTH",
"496 156 OFFCURVE",
"337 243 OFFCURVE",
"233 371 CURVE",
"92 269 LINE",
"188 100 OFFCURVE",
"414 -32 OFFCURVE",
"670 -32 CURVE SMOOTH"
);
}
);
width = 1311;
},
{
anchors = (
{
name = bottom;
position = "{669, 0}";
},
{
name = cedilla;
position = "{701, 0}";
},
{
name = top;
position = "{674, 1663}";
}
);
hints = (
{
horizontal = 1;
place = "{-32, 134}";
type = Stem;
},
{
horizontal = 1;
place = "{1547, 133}";
type = Stem;
},
{
place = "{1027, 153}";
type = Stem;
},
{
place = "{201, 140}";
type = Stem;
}
);
layerId = "E2387CF4-B2A9-41B6-8C2D-75095F558AA2";
paths = (
{
closed = 1;
nodes = (
"946 -32 OFFCURVE",
"1180 135 OFFCURVE",
"1180 432 CURVE SMOOTH",
"1180 673 OFFCURVE",
"1025 804 OFFCURVE",
"684 925 CURVE SMOOTH",
"446 1010 OFFCURVE",
"341 1113 OFFCURVE",
"341 1254 CURVE SMOOTH",
"341 1407 OFFCURVE",
"456 1547 OFFCURVE",
"660 1547 CURVE SMOOTH",
"814 1547 OFFCURVE",
"931 1467 OFFCURVE",
"989 1385 CURVE",
"1084 1462 LINE",
"1020 1568 OFFCURVE",
"867 1680 OFFCURVE",
"663 1680 CURVE SMOOTH",
"391 1680 OFFCURVE",
"201 1494 OFFCURVE",
"201 1253 CURVE SMOOTH",
"201 1057 OFFCURVE",
"334 911 OFFCURVE",
"611 812 CURVE SMOOTH",
"918 701 OFFCURVE",
"1027 602 OFFCURVE",
"1027 427 CURVE SMOOTH",
"1027 216 OFFCURVE",
"851 102 OFFCURVE",
"660 102 CURVE SMOOTH",
"472 102 OFFCURVE",
"298 211 OFFCURVE",
"208 361 CURVE",
"104 291 LINE",
"189 112 OFFCURVE",
"411 -32 OFFCURVE",
"667 -32 CURVE SMOOTH"
);
}
);
width = 1292;
},
{
anchors = (
{
name = bottom;
position = "{663, 0}";
},
{
name = cedilla;
position = "{695, 0}";
},
{
name = top;
position = "{664, 1662}";
}
);
hints = (
{
horizontal = 1;
place = "{-32, 97}";
type = Stem;
},
{
horizontal = 1;
place = "{1583, 97}";
type = Stem;
},
{
place = "{1055, 108}";
type = Stem;
},
{
place = "{212, 100}";
type = Stem;
}
);
layerId = "409FFF8B-6B5D-4160-8B77-EB84ED6DCA06";
paths = (
{
closed = 1;
nodes = (
"931 -32 OFFCURVE",
"1163 131 OFFCURVE",
"1163 423 CURVE SMOOTH",
"1163 659 OFFCURVE",
"1016 792 OFFCURVE",
"669 913 CURVE SMOOTH",
"425 999 OFFCURVE",
"312 1111 OFFCURVE",
"312 1264 CURVE SMOOTH",
"312 1430 OFFCURVE",
"434 1583 OFFCURVE",
"652 1583 CURVE SMOOTH",
"822 1583 OFFCURVE",
"943 1490 OFFCURVE",
"993 1399 CURVE",
"1066 1451 LINE",
"1009 1560 OFFCURVE",
"863 1680 OFFCURVE",
"655 1680 CURVE SMOOTH",
"396 1680 OFFCURVE",
"212 1503 OFFCURVE",
"212 1265 CURVE SMOOTH",
"212 1070 OFFCURVE",
"346 924 OFFCURVE",
"617 829 CURVE SMOOTH",
"939 716 OFFCURVE",
"1055 608 OFFCURVE",
"1055 418 CURVE SMOOTH",
"1055 188 OFFCURVE",
"863 65 OFFCURVE",
"661 65 CURVE SMOOTH",
"457 65 OFFCURVE",
"273 189 OFFCURVE",
"193 354 CURVE",
"114 307 LINE",
"192 121 OFFCURVE",
"410 -32 OFFCURVE",
"667 -32 CURVE SMOOTH"
);
}
);
width = 1283;
},
{
anchors = (
{
name = bottom;
position = "{656, 0}";
},
{
name = cedilla;
position = "{688, 0}";
},
{
name = top;
position = "{655, 1661}";
}
);
hints = (
{
horizontal = 1;
place = "{-32, 69}";
type = Stem;
},
{
horizontal = 1;
place = "{1610, 70}";
type = Stem;
},
{
place = "{1075, 74}";
type = Stem;
},
{
place = "{219, 70}";
type = Stem;
}
);
layerId = "429DE6A8-FC85-4834-8ADF-6599F7754E15";
paths = (
{
closed = 1;
nodes = (
"919 -32 OFFCURVE",
"1149 128 OFFCURVE",
"1149 416 CURVE SMOOTH",
"1149 648 OFFCURVE",
"1008 782 OFFCURVE",
"656 904 CURVE SMOOTH",
"408 990 OFFCURVE",
"289 1109 OFFCURVE",
"289 1272 CURVE SMOOTH",
"289 1447 OFFCURVE",
"417 1610 OFFCURVE",
"645 1610 CURVE SMOOTH",
"827 1610 OFFCURVE",
"951 1507 OFFCURVE",
"995 1409 CURVE",
"1052 1443 LINE",
"1000 1554 OFFCURVE",
"859 1680 OFFCURVE",
"648 1680 CURVE SMOOTH",
"399 1680 OFFCURVE",
"219 1510 OFFCURVE",
"219 1274 CURVE SMOOTH",
"219 1080 OFFCURVE",
"354 933 OFFCURVE",
"620 842 CURVE SMOOTH",
"954 727 OFFCURVE",
"1075 613 OFFCURVE",
"1075 412 CURVE SMOOTH",
"1075 167 OFFCURVE",
"870 37 OFFCURVE",
"661 37 CURVE SMOOTH",
"445 37 OFFCURVE",
"253 172 OFFCURVE",
"180 349 CURVE",
"121 319 LINE",
"193 127 OFFCURVE",
"408 -32 OFFCURVE",
"666 -32 CURVE SMOOTH"
);
}
);
width = 1272;
},
{
anchors = (
{
name = bottom;
position = "{658, 0}";
},
{
name = top;
position = "{655, 1660}";
},
{
name = cedilla;
position = "{690, 0}";
}
);
hints = (
{
horizontal = 1;
place = "{-32, 50}";
type = Stem;
},
{
horizontal = 1;
place = "{1628, 52}";
type = Stem;
},
{
place = "{1094, 52}";
type = Stem;
},
{
place = "{230, 50}";
type = Stem;
}
);
layerId = "F04A0BE8-B495-4823-90DC-0CCFE7794FD1";
paths = (
{
closed = 1;
nodes = (
"917 -32 OFFCURVE",
"1146 126 OFFCURVE",
"1146 411 CURVE SMOOTH",
"1146 641 OFFCURVE",
"1009 776 OFFCURVE",
"654 898 CURVE SMOOTH",
"403 984 OFFCURVE",
"280 1108 OFFCURVE",
"280 1277 CURVE SMOOTH",
"280 1458 OFFCURVE",
"412 1628 OFFCURVE",
"647 1628 CURVE SMOOTH",
"836 1628 OFFCURVE",
"962 1518 OFFCURVE",
"1002 1416 CURVE",
"1048 1438 LINE",
"1000 1550 OFFCURVE",
"862 1680 OFFCURVE",
"649 1680 CURVE SMOOTH",
"407 1680 OFFCURVE",
"230 1514 OFFCURVE",
"230 1280 CURVE SMOOTH",
"230 1087 OFFCURVE",
"366 939 OFFCURVE",
"628 850 CURVE SMOOTH",
"970 734 OFFCURVE",
"1094 616 OFFCURVE",
"1094 408 CURVE SMOOTH",
"1094 152 OFFCURVE",
"881 18 OFFCURVE",
"667 18 CURVE SMOOTH",
"443 18 OFFCURVE",
"246 161 OFFCURVE",
"178 345 CURVE",
"132 326 LINE",
"200 131 OFFCURVE",
"413 -32 OFFCURVE",
"671 -32 CURVE SMOOTH"
);
}
);
width = 1280;
}
);
leftKerningGroup = _S;
rightKerningGroup = _A1;
unicode = 0053;
},
{
color = 4;
glyphname = Germandbls;
leftMetricsKey = H;
rightMetricsKey = S;
layers = (
{
hints = (
{
horizontal = 1;
place = "{-23, 424}";
type = Stem;
},
{
place = "{1162, 428}";
type = Stem;
},
{
place = "{968, 444}";
type = Stem;
},
{
horizontal = 1;
place = "{1257, 424}";
type = Stem;
},
{
place = "{97, 442}";
type = Stem;
},
{
horizontal = 1;
place = "{1, 21}";
target = up;
type = BottomGhost;
}
);
layerId = "2DB08DF0-02C3-44C2-9E0E-FF1701E70813";
paths = (
{
closed = 1;
nodes = (
"1340 -23 OFFCURVE",
"1590 136 OFFCURVE",
"1590 432 CURVE SMOOTH",
"1590 766 OFFCURVE",
"1272 756 OFFCURVE",
"1272 838 CURVE SMOOTH",
"1272 893 OFFCURVE",
"1412 922 OFFCURVE",
"1412 1171 CURVE SMOOTH",
"1412 1503 OFFCURVE",
"1147 1681 OFFCURVE",
"801 1681 CURVE SMOOTH",
"360 1681 OFFCURVE",
"97 1402 OFFCURVE",
"97 888 CURVE SMOOTH",
"97 1 LINE",
"539 1 LINE",
"539 935 LINE SMOOTH",
"539 1153 OFFCURVE",
"614 1257 OFFCURVE",
"769 1257 CURVE SMOOTH",
"878 1257 OFFCURVE",
"968 1205 OFFCURVE",
"968 1082 CURVE SMOOTH",
"968 913 OFFCURVE",
"798 907 OFFCURVE",
"798 764 CURVE SMOOTH",
"798 555 OFFCURVE",
"1162 614 OFFCURVE",
"1162 474 CURVE SMOOTH",
"1162 426 OFFCURVE",
"1119 401 OFFCURVE",
"1035 401 CURVE SMOOTH",
"961 401 OFFCURVE",
"882 420 OFFCURVE",
"769 466 CURVE",
"647 59 LINE",
"789 9 OFFCURVE",
"952 -23 OFFCURVE",
"1065 -23 CURVE SMOOTH"
);
}
);
width = 1627;
},
{
hints = (
{
horizontal = 1;
place = "{-24, 362}";
type = Stem;
},
{
place = "{1164, 367}";
type = Stem;
},
{
place = "{968, 380}";
type = Stem;
},
{
horizontal = 1;
place = "{1318, 363}";
type = Stem;
},
{
place = "{119, 378}";
type = Stem;
},
{
horizontal = 1;
place = "{1, 21}";
target = up;
type = BottomGhost;
}
);
layerId = "42521C20-2C1E-4F42-AF24-FEB99F0BB27F";
paths = (
{
closed = 1;
nodes = (
"1293 -24 OFFCURVE",
"1531 137 OFFCURVE",
"1531 425 CURVE SMOOTH",
"1531 766 OFFCURVE",
"1194 762 OFFCURVE",
"1194 850 CURVE SMOOTH",
"1194 910 OFFCURVE",
"1348 944 OFFCURVE",
"1348 1196 CURVE SMOOTH",
"1348 1511 OFFCURVE",
"1101 1681 OFFCURVE",
"778 1681 CURVE SMOOTH",
"364 1681 OFFCURVE",
"119 1411 OFFCURVE",
"119 927 CURVE SMOOTH",
"119 1 LINE",
"497 1 LINE",
"497 965 LINE SMOOTH",
"497 1199 OFFCURVE",
"582 1318 OFFCURVE",
"750 1318 CURVE SMOOTH",
"871 1318 OFFCURVE",
"968 1257 OFFCURVE",
"968 1122 CURVE SMOOTH",
"968 940 OFFCURVE",
"790 936 OFFCURVE",
"790 790 CURVE SMOOTH",
"790 579 OFFCURVE",
"1164 635 OFFCURVE",
"1164 459 CURVE SMOOTH",
"1164 382 OFFCURVE",
"1101 338 OFFCURVE",
"998 338 CURVE SMOOTH",
"918 338 OFFCURVE",
"838 361 OFFCURVE",
"730 410 CURVE",
"614 69 LINE",
"753 10 OFFCURVE",
"907 -24 OFFCURVE",
"1022 -24 CURVE SMOOTH"
);
}
);
width = 1586;
},
{
hints = (
{
horizontal = 1;
place = "{-26, 296}";
type = Stem;
},
{
place = "{1167, 302}";
type = Stem;
},
{
place = "{969, 312}";
type = Stem;
},
{
horizontal = 1;
place = "{1382, 299}";
type = Stem;
},
{
place = "{143, 309}";
type = Stem;
},
{
horizontal = 1;
place = "{1, 21}";
target = up;
type = BottomGhost;
}
);
layerId = "EC0A9815-809D-40B1-AF02-15154ADC149F";
paths = (
{
closed = 1;
nodes = (
"1244 -26 OFFCURVE",
"1469 138 OFFCURVE",
"1469 416 CURVE SMOOTH",
"1469 766 OFFCURVE",
"1112 767 OFFCURVE",
"1112 862 CURVE SMOOTH",
"1112 927 OFFCURVE",
"1281 966 OFFCURVE",
"1281 1222 CURVE SMOOTH",
"1281 1520 OFFCURVE",
"1053 1681 OFFCURVE",
"753 1681 CURVE SMOOTH",
"368 1681 OFFCURVE",
"143 1419 OFFCURVE",
"143 968 CURVE SMOOTH",
"143 1 LINE",
"452 1 LINE",
"452 997 LINE SMOOTH",
"452 1247 OFFCURVE",
"547 1382 OFFCURVE",
"731 1382 CURVE SMOOTH",
"864 1382 OFFCURVE",
"969 1311 OFFCURVE",
"969 1163 CURVE SMOOTH",
"969 967 OFFCURVE",
"781 966 OFFCURVE",
"781 817 CURVE SMOOTH",
"781 604 OFFCURVE",
"1167 657 OFFCURVE",
"1167 442 CURVE SMOOTH",
"1167 335 OFFCURVE",
"1083 270 OFFCURVE",
"959 270 CURVE SMOOTH",
"874 270 OFFCURVE",
"792 297 OFFCURVE",
"689 350 CURVE",
"578 79 LINE",
"716 11 OFFCURVE",
"859 -26 OFFCURVE",
"978 -26 CURVE SMOOTH"
);
}
);
width = 1564;
},
{
hints = (
{
horizontal = 1;
place = "{-28, 240}";
type = Stem;
},
{
place = "{1169, 246}";
type = Stem;
},
{
place = "{969, 254}";
type = Stem;
},
{
horizontal = 1;
place = "{1437, 244}";
type = Stem;
},
{
place = "{163, 250}";
type = Stem;
},
{
horizontal = 1;
place = "{0, 21}";
target = up;
type = BottomGhost;
}
);
layerId = "078079F8-88FE-4B64-A845-190032768C39";
paths = (
{
closed = 1;
nodes = (
"1202 -28 OFFCURVE",
"1415 139 OFFCURVE",
"1415 408 CURVE SMOOTH",
"1415 766 OFFCURVE",
"1041 772 OFFCURVE",
"1041 872 CURVE SMOOTH",
"1041 942 OFFCURVE",
"1223 985 OFFCURVE",
"1223 1245 CURVE SMOOTH",
"1223 1527 OFFCURVE",
"1011 1681 OFFCURVE",
"732 1681 CURVE SMOOTH",
"371 1681 OFFCURVE",
"163 1427 OFFCURVE",
"163 1003 CURVE SMOOTH",
"163 0 LINE",
"413 0 LINE",
"413 1024 LINE SMOOTH",
"413 1288 OFFCURVE",
"517 1437 OFFCURVE",
"714 1437 CURVE SMOOTH",
"858 1437 OFFCURVE",
"969 1357 OFFCURVE",
"969 1199 CURVE SMOOTH",
"969 991 OFFCURVE",
"773 992 OFFCURVE",
"773 840 CURVE SMOOTH",
"773 625 OFFCURVE",
"1169 675 OFFCURVE",
"1169 428 CURVE SMOOTH",
"1169 294 OFFCURVE",
"1067 212 OFFCURVE",
"925 212 CURVE SMOOTH",
"835 212 OFFCURVE",
"752 242 OFFCURVE",
"653 298 CURVE",
"547 87 LINE",
"684 11 OFFCURVE",
"817 -28 OFFCURVE",
"939 -28 CURVE SMOOTH"
);
}
);
width = 1503;
},
{
hints = (
{
horizontal = 1;
place = "{-29, 196}";
type = Stem;
},
{
place = "{1170, 202}";
type = Stem;
},
{
place = "{969, 208}";
type = Stem;
},
{
horizontal = 1;
place = "{1481, 200}";
type = Stem;
},
{
place = "{179, 204}";
type = Stem;
},
{
horizontal = 1;
place = "{0, 21}";
target = up;
type = BottomGhost;
}
);
layerId = "BD6EF84D-666D-4BF5-8AC4-0B98CD7A9734";
paths = (
{
closed = 1;
nodes = (
"1168 -29 OFFCURVE",
"1372 140 OFFCURVE",
"1372 403 CURVE SMOOTH",
"1372 766 OFFCURVE",
"985 777 OFFCURVE",
"985 881 CURVE SMOOTH",
"985 955 OFFCURVE",
"1177 1001 OFFCURVE",
"1177 1264 CURVE SMOOTH",
"1177 1533 OFFCURVE",
"978 1681 OFFCURVE",
"715 1681 CURVE SMOOTH",
"374 1681 OFFCURVE",
"179 1433 OFFCURVE",
"179 1031 CURVE SMOOTH",
"179 0 LINE",
"383 0 LINE",
"383 1046 LINE SMOOTH",
"383 1321 OFFCURVE",
"494 1481 OFFCURVE",
"701 1481 CURVE SMOOTH",
"853 1481 OFFCURVE",
"969 1394 OFFCURVE",
"969 1228 CURVE SMOOTH",
"969 1010 OFFCURVE",
"767 1013 OFFCURVE",
"767 859 CURVE SMOOTH",
"767 643 OFFCURVE",
"1170 691 OFFCURVE",
"1170 417 CURVE SMOOTH",
"1170 263 OFFCURVE",
"1054 167 OFFCURVE",
"898 167 CURVE SMOOTH",
"804 167 OFFCURVE",
"721 200 OFFCURVE",
"625 258 CURVE",
"523 94 LINE",
"659 12 OFFCURVE",
"784 -29 OFFCURVE",
"908 -29 CURVE SMOOTH"
);
}
);
width = 1476;
},
{
hints = (
{
horizontal = 1;
place = "{-30, 140}";
type = Stem;
},
{
place = "{1167, 146}";
type = Stem;
},
{
place = "{964, 150}";
type = Stem;
},
{
horizontal = 1;
place = "{1536, 145}";
type = Stem;
},
{
place = "{194, 146}";
type = Stem;
},
{
horizontal = 1;
place = "{0, 21}";
target = up;
type = BottomGhost;
}
);
layerId = "E2387CF4-B2A9-41B6-8C2D-75095F558AA2";
paths = (
{
closed = 1;
nodes = (
"1121 -30 OFFCURVE",
"1313 141 OFFCURVE",
"1313 396 CURVE SMOOTH",
"1313 766 OFFCURVE",
"910 763 OFFCURVE",
"910 895 CURVE SMOOTH",
"910 990 OFFCURVE",
"1114 1020 OFFCURVE",
"1114 1287 CURVE SMOOTH",
"1114 1540 OFFCURVE",
"931 1681 OFFCURVE",
"689 1681 CURVE SMOOTH",
"372 1681 OFFCURVE",
"194 1441 OFFCURVE",
"194 1066 CURVE SMOOTH",
"194 0 LINE",
"340 0 LINE",
"340 1073 LINE SMOOTH",
"340 1363 OFFCURVE",
"460 1536 OFFCURVE",
"679 1536 CURVE SMOOTH",
"842 1536 OFFCURVE",
"964 1441 OFFCURVE",
"964 1265 CURVE SMOOTH",
"964 1034 OFFCURVE",
"754 1039 OFFCURVE",
"754 883 CURVE SMOOTH",
"754 665 OFFCURVE",
"1167 710 OFFCURVE",
"1167 403 CURVE SMOOTH",
"1167 223 OFFCURVE",
"1032 110 OFFCURVE",
"859 110 CURVE SMOOTH",
"754 110 OFFCURVE",
"664 151 OFFCURVE",
"562 222 CURVE",
"487 103 LINE",
"622 13 OFFCURVE",
"738 -30 OFFCURVE",
"863 -30 CURVE SMOOTH"
);
}
);
width = 1425;
},
{
hints = (
{
horizontal = 1;
place = "{-31, 102}";
type = Stem;
},
{
place = "{1170, 108}";
type = Stem;
},
{
place = "{966, 110}";
type = Stem;
},
{
horizontal = 1;
place = "{1574, 107}";
type = Stem;
},
{
place = "{209, 106}";
type = Stem;
},
{
horizontal = 1;
place = "{0, 21}";
target = up;
type = BottomGhost;
}
);
layerId = "409FFF8B-6B5D-4160-8B77-EB84ED6DCA06";
paths = (
{
closed = 1;
nodes = (
"1094 -31 OFFCURVE",
"1278 142 OFFCURVE",
"1278 392 CURVE SMOOTH",
"1278 766 OFFCURVE",
"863 754 OFFCURVE",
"863 905 CURVE SMOOTH",
"863 1014 OFFCURVE",
"1076 1034 OFFCURVE",
"1076 1303 CURVE SMOOTH",
"1076 1545 OFFCURVE",
"904 1681 OFFCURVE",
"676 1681 CURVE SMOOTH",
"376 1681 OFFCURVE",
"209 1446 OFFCURVE",
"209 1091 CURVE SMOOTH",
"209 0 LINE",
"315 0 LINE",
"315 1092 LINE SMOOTH",
"315 1392 OFFCURVE",
"441 1574 OFFCURVE",
"669 1574 CURVE SMOOTH",
"839 1574 OFFCURVE",
"966 1473 OFFCURVE",
"966 1290 CURVE SMOOTH",
"966 1051 OFFCURVE",
"751 1057 OFFCURVE",
"751 899 CURVE SMOOTH",
"751 680 OFFCURVE",
"1170 724 OFFCURVE",
"1170 394 CURVE SMOOTH",
"1170 196 OFFCURVE",
"1023 71 OFFCURVE",
"838 71 CURVE SMOOTH",
"724 71 OFFCURVE",
"629 118 OFFCURVE",
"523 197 CURVE",
"467 109 LINE",
"601 14 OFFCURVE",
"711 -31 OFFCURVE",
"838 -31 CURVE SMOOTH"
);
}
);
width = 1398;
},
{
hints = (
{
horizontal = 1;
place = "{-32, 73}";
type = Stem;
},
{
place = "{1172, 79}";
type = Stem;
},
{
place = "{967, 80}";
type = Stem;
},
{
horizontal = 1;
place = "{1602, 79}";
type = Stem;
},
{
place = "{220, 76}";
type = Stem;
},
{
horizontal = 1;
place = "{0, 21}";
target = up;
type = BottomGhost;
}
);
layerId = "429DE6A8-FC85-4834-8ADF-6599F7754E15";
paths = (
{
closed = 1;
nodes = (
"1073 -32 OFFCURVE",
"1251 142 OFFCURVE",
"1251 388 CURVE SMOOTH",
"1251 766 OFFCURVE",
"827 747 OFFCURVE",
"827 912 CURVE SMOOTH",
"827 1031 OFFCURVE",
"1047 1043 OFFCURVE",
"1047 1314 CURVE SMOOTH",
"1047 1548 OFFCURVE",
"883 1681 OFFCURVE",
"666 1681 CURVE SMOOTH",
"379 1681 OFFCURVE",
"220 1449 OFFCURVE",
"220 1109 CURVE SMOOTH",
"220 0 LINE",
"296 0 LINE",
"296 1106 LINE SMOOTH",
"296 1413 OFFCURVE",
"426 1602 OFFCURVE",
"661 1602 CURVE SMOOTH",
"836 1602 OFFCURVE",
"967 1497 OFFCURVE",
"967 1308 CURVE SMOOTH",
"967 1063 OFFCURVE",
"748 1070 OFFCURVE",
"748 911 CURVE SMOOTH",
"748 691 OFFCURVE",
"1172 733 OFFCURVE",
"1172 387 CURVE SMOOTH",
"1172 175 OFFCURVE",
"1016 41 OFFCURVE",
"822 41 CURVE SMOOTH",
"701 41 OFFCURVE",
"603 92 OFFCURVE",
"493 178 CURVE",
"452 113 LINE",
"585 14 OFFCURVE",
"690 -32 OFFCURVE",
"819 -32 CURVE SMOOTH"
);
}
);
width = 1374;
},
{
hints = (
{
horizontal = 1;
place = "{-33, 54}";
type = Stem;
},
{
place = "{1177, 60}";
type = Stem;
},
{
place = "{971, 60}";
type = Stem;
},
{
horizontal = 1;
place = "{1621, 60}";
type = Stem;
},
{
place = "{231, 56}";
type = Stem;
},
{
horizontal = 1;
place = "{0, 21}";
target = up;
type = BottomGhost;
}
);
layerId = "F04A0BE8-B495-4823-90DC-0CCFE7794FD1";
paths = (
{
closed = 1;
nodes = (
"1062 -33 OFFCURVE",
"1237 142 OFFCURVE",
"1237 385 CURVE SMOOTH",
"1237 766 OFFCURVE",
"807 742 OFFCURVE",
"807 917 CURVE SMOOTH",
"807 1043 OFFCURVE",
"1031 1050 OFFCURVE",
"1031 1322 CURVE SMOOTH",
"1031 1551 OFFCURVE",
"873 1681 OFFCURVE",
"663 1681 CURVE SMOOTH",
"384 1681 OFFCURVE",
"231 1452 OFFCURVE",
"231 1121 CURVE SMOOTH",
"231 0 LINE",
"287 0 LINE",
"287 1115 LINE SMOOTH",
"287 1427 OFFCURVE",
"420 1621 OFFCURVE",
"659 1621 CURVE SMOOTH",
"838 1621 OFFCURVE",
"971 1513 OFFCURVE",
"971 1320 CURVE SMOOTH",
"971 1071 OFFCURVE",
"749 1079 OFFCURVE",
"749 919 CURVE SMOOTH",
"749 698 OFFCURVE",
"1177 740 OFFCURVE",
"1177 382 CURVE SMOOTH",
"1177 161 OFFCURVE",
"1014 21 OFFCURVE",
"814 21 CURVE SMOOTH",
"689 21 OFFCURVE",
"589 75 OFFCURVE",
"477 165 CURVE",
"446 116 LINE",
"578 14 OFFCURVE",
"680 -33 OFFCURVE",
"810 -33 CURVE SMOOTH"
);
}
);
width = 1371;
}
);
unicode = 1E9E;
},
